%TF.GenerationSoftware,KiCad,Pcbnew,7.0.7*%
%TF.CreationDate,2023-10-14T12:40:26+02:00*%
%TF.ProjectId,qez,71657a2e-6b69-4636-9164-5f7063625858,rev?*%
%TF.SameCoordinates,Original*%
%TF.FileFunction,Soldermask,Bot*%
%TF.FilePolarity,Negative*%
%FSLAX46Y46*%
G04 Gerber Fmt 4.6, Leading zero omitted, Abs format (unit mm)*
G04 Created by KiCad (PCBNEW 7.0.7) date 2023-10-14 12:40:26*
%MOMM*%
%LPD*%
G01*
G04 APERTURE LIST*
G04 Aperture macros list*
%AMRoundRect*
0 Rectangle with rounded corners*
0 $1 Rounding radius*
0 $2 $3 $4 $5 $6 $7 $8 $9 X,Y pos of 4 corners*
0 Add a 4 corners polygon primitive as box body*
4,1,4,$2,$3,$4,$5,$6,$7,$8,$9,$2,$3,0*
0 Add four circle primitives for the rounded corners*
1,1,$1+$1,$2,$3*
1,1,$1+$1,$4,$5*
1,1,$1+$1,$6,$7*
1,1,$1+$1,$8,$9*
0 Add four rect primitives between the rounded corners*
20,1,$1+$1,$2,$3,$4,$5,0*
20,1,$1+$1,$4,$5,$6,$7,0*
20,1,$1+$1,$6,$7,$8,$9,0*
20,1,$1+$1,$8,$9,$2,$3,0*%
G04 Aperture macros list end*
%ADD10C,1.750000*%
%ADD11C,3.000000*%
%ADD12C,3.987800*%
%ADD13R,2.550000X2.500000*%
%ADD14R,3.000000X2.000000*%
%ADD15C,3.048000*%
%ADD16R,3.000000X1.750000*%
%ADD17R,0.800000X0.900000*%
%ADD18RoundRect,0.250000X0.375000X0.625000X-0.375000X0.625000X-0.375000X-0.625000X0.375000X-0.625000X0*%
%ADD19RoundRect,0.250000X-0.262500X-0.450000X0.262500X-0.450000X0.262500X0.450000X-0.262500X0.450000X0*%
%ADD20RoundRect,0.250000X0.262500X0.450000X-0.262500X0.450000X-0.262500X-0.450000X0.262500X-0.450000X0*%
%ADD21RoundRect,0.150000X0.512500X0.150000X-0.512500X0.150000X-0.512500X-0.150000X0.512500X-0.150000X0*%
%ADD22C,0.650000*%
%ADD23R,0.600000X1.450000*%
%ADD24R,0.300000X1.450000*%
%ADD25O,1.000000X1.600000*%
%ADD26O,1.000000X2.100000*%
%ADD27R,1.000000X1.000000*%
%ADD28O,1.000000X1.000000*%
%ADD29RoundRect,0.140000X-0.140000X-0.170000X0.140000X-0.170000X0.140000X0.170000X-0.140000X0.170000X0*%
%ADD30RoundRect,0.140000X0.170000X-0.140000X0.170000X0.140000X-0.170000X0.140000X-0.170000X-0.140000X0*%
%ADD31RoundRect,0.135000X-0.185000X0.135000X-0.185000X-0.135000X0.185000X-0.135000X0.185000X0.135000X0*%
%ADD32R,1.500000X0.900000*%
%ADD33RoundRect,0.275000X-0.275000X0.625000X-0.275000X-0.625000X0.275000X-0.625000X0.275000X0.625000X0*%
%ADD34R,1.200000X1.400000*%
%ADD35RoundRect,0.135000X0.185000X-0.135000X0.185000X0.135000X-0.185000X0.135000X-0.185000X-0.135000X0*%
%ADD36RoundRect,0.140000X0.140000X0.170000X-0.140000X0.170000X-0.140000X-0.170000X0.140000X-0.170000X0*%
%ADD37RoundRect,0.150000X-0.275000X0.150000X-0.275000X-0.150000X0.275000X-0.150000X0.275000X0.150000X0*%
%ADD38RoundRect,0.175000X-0.225000X0.175000X-0.225000X-0.175000X0.225000X-0.175000X0.225000X0.175000X0*%
%ADD39RoundRect,0.050000X0.050000X-0.387500X0.050000X0.387500X-0.050000X0.387500X-0.050000X-0.387500X0*%
%ADD40RoundRect,0.050000X0.387500X-0.050000X0.387500X0.050000X-0.387500X0.050000X-0.387500X-0.050000X0*%
%ADD41R,3.200000X3.200000*%
%ADD42RoundRect,0.135000X0.135000X0.185000X-0.135000X0.185000X-0.135000X-0.185000X0.135000X-0.185000X0*%
%ADD43RoundRect,0.150000X0.275000X-0.150000X0.275000X0.150000X-0.275000X0.150000X-0.275000X-0.150000X0*%
%ADD44RoundRect,0.175000X0.225000X-0.175000X0.225000X0.175000X-0.225000X0.175000X-0.225000X-0.175000X0*%
%ADD45RoundRect,0.275000X0.275000X-0.625000X0.275000X0.625000X-0.275000X0.625000X-0.275000X-0.625000X0*%
%ADD46RoundRect,0.150000X0.587500X0.150000X-0.587500X0.150000X-0.587500X-0.150000X0.587500X-0.150000X0*%
%ADD47RoundRect,0.150000X-0.650000X-0.150000X0.650000X-0.150000X0.650000X0.150000X-0.650000X0.150000X0*%
%ADD48R,1.700000X1.700000*%
%ADD49O,1.700000X1.700000*%
%ADD50RoundRect,0.140000X-0.170000X0.140000X-0.170000X-0.140000X0.170000X-0.140000X0.170000X0.140000X0*%
%ADD51R,1.350000X1.350000*%
%ADD52O,1.350000X1.350000*%
%ADD53RoundRect,0.218750X0.256250X-0.218750X0.256250X0.218750X-0.256250X0.218750X-0.256250X-0.218750X0*%
%ADD54RoundRect,0.135000X-0.135000X-0.185000X0.135000X-0.185000X0.135000X0.185000X-0.135000X0.185000X0*%
%ADD55RoundRect,0.250000X-0.250000X-0.475000X0.250000X-0.475000X0.250000X0.475000X-0.250000X0.475000X0*%
G04 APERTURE END LIST*
D10*
%TO.C,MX1*%
X62388750Y-66675000D03*
D11*
X63658750Y-64135000D03*
D12*
X67468750Y-66675000D03*
D11*
X70008750Y-61595000D03*
D10*
X72548750Y-66675000D03*
D13*
X60383750Y-64135000D03*
X73310750Y-61595000D03*
%TD*%
D10*
%TO.C,MX2*%
X81438750Y-66675000D03*
D11*
X82708750Y-64135000D03*
D12*
X86518750Y-66675000D03*
D11*
X89058750Y-61595000D03*
D10*
X91598750Y-66675000D03*
D13*
X79433750Y-64135000D03*
X92360750Y-61595000D03*
%TD*%
D10*
%TO.C,MX3*%
X100488750Y-66675000D03*
D11*
X101758750Y-64135000D03*
D12*
X105568750Y-66675000D03*
D11*
X108108750Y-61595000D03*
D10*
X110648750Y-66675000D03*
D13*
X98483750Y-64135000D03*
X111410750Y-61595000D03*
%TD*%
D10*
%TO.C,MX4*%
X119538750Y-66675000D03*
D11*
X120808750Y-64135000D03*
D12*
X124618750Y-66675000D03*
D11*
X127158750Y-61595000D03*
D10*
X129698750Y-66675000D03*
D13*
X117533750Y-64135000D03*
X130460750Y-61595000D03*
%TD*%
D10*
%TO.C,MX5*%
X148748750Y-66675000D03*
D11*
X147478750Y-69215000D03*
D12*
X143668750Y-66675000D03*
D11*
X141128750Y-71755000D03*
D10*
X138588750Y-66675000D03*
D13*
X150753750Y-69215000D03*
X137826750Y-71755000D03*
%TD*%
D10*
%TO.C,MX6*%
X167798750Y-66675000D03*
D11*
X166528750Y-69215000D03*
D12*
X162718750Y-66675000D03*
D11*
X160178750Y-71755000D03*
D10*
X157638750Y-66675000D03*
D13*
X169803750Y-69215000D03*
X156876750Y-71755000D03*
%TD*%
D10*
%TO.C,MX7*%
X176688750Y-66675000D03*
D11*
X177958750Y-64135000D03*
D12*
X181768750Y-66675000D03*
D11*
X184308750Y-61595000D03*
D10*
X186848750Y-66675000D03*
D13*
X174683750Y-64135000D03*
X187610750Y-61595000D03*
%TD*%
D10*
%TO.C,MX8*%
X195738750Y-66675000D03*
D11*
X197008750Y-64135000D03*
D12*
X200818750Y-66675000D03*
D11*
X203358750Y-61595000D03*
D10*
X205898750Y-66675000D03*
D13*
X193733750Y-64135000D03*
X206660750Y-61595000D03*
%TD*%
D10*
%TO.C,MX9*%
X214788750Y-66675000D03*
D11*
X216058750Y-64135000D03*
D12*
X219868750Y-66675000D03*
D11*
X222408750Y-61595000D03*
D10*
X224948750Y-66675000D03*
D13*
X212783750Y-64135000D03*
X225710750Y-61595000D03*
%TD*%
D10*
%TO.C,MX10*%
X236220000Y-66675000D03*
D11*
X237490000Y-64135000D03*
D12*
X241300000Y-66675000D03*
D11*
X243840000Y-61595000D03*
D10*
X246380000Y-66675000D03*
D13*
X234215000Y-64135000D03*
X247142000Y-61595000D03*
%TD*%
D10*
%TO.C,MX11*%
X64770000Y-85725000D03*
D11*
X66040000Y-83185000D03*
D12*
X69850000Y-85725000D03*
D11*
X72390000Y-80645000D03*
D10*
X74930000Y-85725000D03*
D13*
X62765000Y-83185000D03*
X75692000Y-80645000D03*
%TD*%
D10*
%TO.C,MX12*%
X86201250Y-85725000D03*
D11*
X87471250Y-83185000D03*
D12*
X91281250Y-85725000D03*
D11*
X93821250Y-80645000D03*
D10*
X96361250Y-85725000D03*
D13*
X84196250Y-83185000D03*
X97123250Y-80645000D03*
%TD*%
D10*
%TO.C,MX13*%
X105251250Y-85725000D03*
D11*
X106521250Y-83185000D03*
D12*
X110331250Y-85725000D03*
D11*
X112871250Y-80645000D03*
D10*
X115411250Y-85725000D03*
D13*
X103246250Y-83185000D03*
X116173250Y-80645000D03*
%TD*%
D10*
%TO.C,MX14*%
X124301250Y-85725000D03*
D11*
X125571250Y-83185000D03*
D12*
X129381250Y-85725000D03*
D11*
X131921250Y-80645000D03*
D10*
X134461250Y-85725000D03*
D13*
X122296250Y-83185000D03*
X135223250Y-80645000D03*
%TD*%
D10*
%TO.C,MX17*%
X181451250Y-85725000D03*
D11*
X182721250Y-83185000D03*
D12*
X186531250Y-85725000D03*
D11*
X189071250Y-80645000D03*
D10*
X191611250Y-85725000D03*
D13*
X179446250Y-83185000D03*
X192373250Y-80645000D03*
%TD*%
D10*
%TO.C,MX18*%
X200501250Y-85725000D03*
D11*
X201771250Y-83185000D03*
D12*
X205581250Y-85725000D03*
D11*
X208121250Y-80645000D03*
D10*
X210661250Y-85725000D03*
D13*
X198496250Y-83185000D03*
X211423250Y-80645000D03*
%TD*%
D10*
%TO.C,MX19*%
X219551250Y-85725000D03*
D11*
X220821250Y-83185000D03*
D12*
X224631250Y-85725000D03*
D11*
X227171250Y-80645000D03*
D10*
X229711250Y-85725000D03*
D13*
X217546250Y-83185000D03*
X230473250Y-80645000D03*
%TD*%
D10*
%TO.C,MX20*%
X238601250Y-85725000D03*
D11*
X239871250Y-83185000D03*
D12*
X243681250Y-85725000D03*
D11*
X246221250Y-80645000D03*
D10*
X248761250Y-85725000D03*
D13*
X236596250Y-83185000D03*
X249523250Y-80645000D03*
%TD*%
D10*
%TO.C,MX21*%
X69532500Y-104775000D03*
D11*
X70802500Y-102235000D03*
D12*
X74612500Y-104775000D03*
D11*
X77152500Y-99695000D03*
D10*
X79692500Y-104775000D03*
D13*
X67527500Y-102235000D03*
X80454500Y-99695000D03*
%TD*%
D10*
%TO.C,MX22*%
X62388750Y-123825000D03*
D11*
X63658750Y-121285000D03*
D12*
X67468750Y-123825000D03*
D11*
X70008750Y-118745000D03*
D10*
X72548750Y-123825000D03*
D13*
X60383750Y-121285000D03*
X73310750Y-118745000D03*
%TD*%
D10*
%TO.C,MX23*%
X95726250Y-104775000D03*
D11*
X96996250Y-102235000D03*
D12*
X100806250Y-104775000D03*
D11*
X103346250Y-99695000D03*
D10*
X105886250Y-104775000D03*
D13*
X93721250Y-102235000D03*
X106648250Y-99695000D03*
%TD*%
D10*
%TO.C,MX24*%
X114776250Y-104775000D03*
D11*
X116046250Y-102235000D03*
D12*
X119856250Y-104775000D03*
D11*
X122396250Y-99695000D03*
D10*
X124936250Y-104775000D03*
D13*
X112771250Y-102235000D03*
X125698250Y-99695000D03*
%TD*%
D10*
%TO.C,MX25*%
X133826250Y-104775000D03*
D11*
X135096250Y-102235000D03*
D12*
X138906250Y-104775000D03*
D11*
X141446250Y-99695000D03*
D10*
X143986250Y-104775000D03*
D13*
X131821250Y-102235000D03*
X144748250Y-99695000D03*
%TD*%
D10*
%TO.C,MX26*%
X152876250Y-104775000D03*
D11*
X154146250Y-102235000D03*
D12*
X157956250Y-104775000D03*
D11*
X160496250Y-99695000D03*
D10*
X163036250Y-104775000D03*
D13*
X150871250Y-102235000D03*
X163798250Y-99695000D03*
%TD*%
D10*
%TO.C,MX29*%
X210026250Y-104775000D03*
D11*
X211296250Y-102235000D03*
D12*
X215106250Y-104775000D03*
D11*
X217646250Y-99695000D03*
D10*
X220186250Y-104775000D03*
D13*
X208021250Y-102235000D03*
X220948250Y-99695000D03*
%TD*%
D10*
%TO.C,MX30*%
X233838750Y-104775000D03*
D11*
X235108750Y-102235000D03*
D12*
X238918750Y-104775000D03*
D11*
X241458750Y-99695000D03*
D10*
X243998750Y-104775000D03*
D13*
X231833750Y-102235000D03*
X244760750Y-99695000D03*
%TD*%
D10*
%TO.C,MX31*%
X81438750Y-123825000D03*
D11*
X82708750Y-121285000D03*
D12*
X86518750Y-123825000D03*
D11*
X89058750Y-118745000D03*
D10*
X91598750Y-123825000D03*
D13*
X79433750Y-121285000D03*
X92360750Y-118745000D03*
%TD*%
D10*
%TO.C,MX34*%
X165417500Y-123825000D03*
D11*
X164147500Y-126365000D03*
D12*
X160337500Y-123825000D03*
D11*
X157797500Y-128905000D03*
D10*
X155257500Y-123825000D03*
D13*
X167422500Y-126365000D03*
X154495500Y-128905000D03*
%TD*%
D10*
%TO.C,MX37*%
X219551250Y-123825000D03*
D11*
X220821250Y-121285000D03*
D12*
X224631250Y-123825000D03*
D11*
X227171250Y-118745000D03*
D10*
X229711250Y-123825000D03*
D13*
X217546250Y-121285000D03*
X230473250Y-118745000D03*
%TD*%
D10*
%TO.C,MX38*%
X238601250Y-123825000D03*
D11*
X239871250Y-121285000D03*
D12*
X243681250Y-123825000D03*
D11*
X246221250Y-118745000D03*
D10*
X248761250Y-123825000D03*
D13*
X236596250Y-121285000D03*
X249523250Y-118745000D03*
%TD*%
D10*
%TO.C,MX28*%
X190976250Y-104775000D03*
D11*
X192246250Y-102235000D03*
D12*
X196056250Y-104775000D03*
D11*
X198596250Y-99695000D03*
D10*
X201136250Y-104775000D03*
D13*
X188971250Y-102235000D03*
X201898250Y-99695000D03*
%TD*%
D10*
%TO.C,MX36*%
X200501250Y-123825000D03*
D11*
X201771250Y-121285000D03*
D12*
X205581250Y-123825000D03*
D11*
X208121250Y-118745000D03*
D10*
X210661250Y-123825000D03*
D14*
X198496250Y-121285000D03*
D13*
X211423250Y-118745000D03*
%TD*%
D10*
%TO.C,MX32*%
X100488750Y-123825000D03*
D11*
X101758750Y-121285000D03*
D12*
X105568750Y-123825000D03*
D11*
X108108750Y-118745000D03*
D10*
X110648750Y-123825000D03*
D13*
X98483750Y-121285000D03*
X111410750Y-118745000D03*
%TD*%
D10*
%TO.C,MX15*%
X143351250Y-85725000D03*
D11*
X144621250Y-83185000D03*
D12*
X148431250Y-85725000D03*
D11*
X150971250Y-80645000D03*
D10*
X153511250Y-85725000D03*
D13*
X141346250Y-83185000D03*
X154273250Y-80645000D03*
%TD*%
D12*
%TO.C,MX41*%
X105575100Y-115570000D03*
D15*
X105575100Y-130810000D03*
D10*
X150495000Y-123825000D03*
D11*
X151765000Y-121285000D03*
D12*
X155575000Y-123825000D03*
D11*
X158115000Y-118745000D03*
D10*
X160655000Y-123825000D03*
D12*
X205574900Y-115570000D03*
D15*
X205574900Y-130810000D03*
D13*
X148490000Y-121285000D03*
X161417000Y-118745000D03*
%TD*%
D12*
%TO.C,MX39*%
X124587000Y-115570000D03*
D15*
X124587000Y-130810000D03*
D10*
X131445000Y-123825000D03*
D11*
X132715000Y-121285000D03*
D12*
X136525000Y-123825000D03*
D11*
X139065000Y-118745000D03*
D10*
X141605000Y-123825000D03*
D12*
X148463000Y-115570000D03*
D15*
X148463000Y-130810000D03*
D16*
X129025000Y-121285000D03*
D13*
X142367000Y-118745000D03*
%TD*%
D12*
%TO.C,MX33*%
X110299500Y-115570000D03*
D15*
X110299500Y-130810000D03*
D10*
X117157500Y-123825000D03*
D11*
X118427500Y-121285000D03*
D12*
X122237500Y-123825000D03*
D11*
X124777500Y-118745000D03*
D10*
X127317500Y-123825000D03*
D12*
X134175500Y-115570000D03*
D15*
X134175500Y-130810000D03*
D13*
X115152500Y-121285000D03*
D16*
X128237500Y-118745000D03*
%TD*%
D12*
%TO.C,MX40*%
X165068250Y-115570000D03*
D15*
X165068250Y-130810000D03*
D10*
X171926250Y-123825000D03*
D11*
X173196250Y-121285000D03*
D12*
X177006250Y-123825000D03*
D11*
X179546250Y-118745000D03*
D10*
X182086250Y-123825000D03*
D12*
X188944250Y-115570000D03*
D15*
X188944250Y-130810000D03*
D13*
X169921250Y-121285000D03*
X182848250Y-118745000D03*
%TD*%
D12*
%TO.C,MX35*%
X181737000Y-115570000D03*
D15*
X181737000Y-130810000D03*
D10*
X188595000Y-123825000D03*
D11*
X189865000Y-121285000D03*
D12*
X193675000Y-123825000D03*
D11*
X196215000Y-118745000D03*
D10*
X198755000Y-123825000D03*
D12*
X205613000Y-115570000D03*
D15*
X205613000Y-130810000D03*
D13*
X186590000Y-121285000D03*
D16*
X199675000Y-118745000D03*
%TD*%
D10*
%TO.C,MX16*%
X162401250Y-85725000D03*
D11*
X163671250Y-83185000D03*
D12*
X167481250Y-85725000D03*
D11*
X170021250Y-80645000D03*
D10*
X172561250Y-85725000D03*
D13*
X160396250Y-83185000D03*
X173323250Y-80645000D03*
%TD*%
D10*
%TO.C,MX27*%
X171926250Y-104775000D03*
D11*
X173196250Y-102235000D03*
D12*
X177006250Y-104775000D03*
D11*
X179546250Y-99695000D03*
D10*
X182086250Y-104775000D03*
D13*
X169921250Y-102235000D03*
X182848250Y-99695000D03*
%TD*%
D17*
%TO.C,D1*%
X76962000Y-70596000D03*
X77912000Y-68596000D03*
X76012000Y-68596000D03*
%TD*%
%TO.C,D2*%
X115125500Y-70596000D03*
X116075500Y-68596000D03*
X114175500Y-68596000D03*
%TD*%
%TO.C,D3*%
X134112000Y-70596000D03*
X135062000Y-68596000D03*
X133162000Y-68596000D03*
%TD*%
%TO.C,D4*%
X191389000Y-70659500D03*
X192339000Y-68659500D03*
X190439000Y-68659500D03*
%TD*%
%TO.C,D5*%
X230441500Y-70659500D03*
X231391500Y-68659500D03*
X229491500Y-68659500D03*
%TD*%
%TO.C,D6*%
X80708500Y-89646000D03*
X81658500Y-87646000D03*
X79758500Y-87646000D03*
%TD*%
%TO.C,D7*%
X119888000Y-89646000D03*
X120838000Y-87646000D03*
X118938000Y-87646000D03*
%TD*%
%TO.C,D8*%
X158051500Y-89646000D03*
X159001500Y-87646000D03*
X157101500Y-87646000D03*
%TD*%
%TO.C,D9*%
X196024500Y-89646000D03*
X196974500Y-87646000D03*
X195074500Y-87646000D03*
%TD*%
%TO.C,D10*%
X238000000Y-91250000D03*
X238950000Y-89250000D03*
X237050000Y-89250000D03*
%TD*%
%TO.C,D11*%
X87884000Y-109077000D03*
X88834000Y-107077000D03*
X86934000Y-107077000D03*
%TD*%
%TO.C,D12*%
X110299500Y-109077000D03*
X111249500Y-107077000D03*
X109349500Y-107077000D03*
%TD*%
%TO.C,D13*%
X148399500Y-109077000D03*
X149349500Y-107077000D03*
X147449500Y-107077000D03*
%TD*%
%TO.C,D14*%
X186563000Y-109077000D03*
X187513000Y-107077000D03*
X185613000Y-107077000D03*
%TD*%
%TO.C,D15*%
X234355691Y-109858660D03*
X235305691Y-107858660D03*
X233405691Y-107858660D03*
%TD*%
%TO.C,D16*%
X96043750Y-127555500D03*
X96993750Y-125555500D03*
X95093750Y-125555500D03*
%TD*%
%TO.C,D19*%
X234124500Y-127555500D03*
X235074500Y-125555500D03*
X233174500Y-125555500D03*
%TD*%
D18*
%TO.C,F1*%
X153650000Y-75250000D03*
X150850000Y-75250000D03*
%TD*%
D19*
%TO.C,R1*%
X143587500Y-60250000D03*
X145412500Y-60250000D03*
%TD*%
D20*
%TO.C,R2*%
X167412500Y-60250000D03*
X165587500Y-60250000D03*
%TD*%
D21*
%TO.C,U4*%
X154387500Y-63550000D03*
X154387500Y-64500000D03*
X154387500Y-65450000D03*
X152112500Y-65450000D03*
X152112500Y-64500000D03*
X152112500Y-63550000D03*
%TD*%
D22*
%TO.C,USB1*%
X152685000Y-58670500D03*
X158465000Y-58670500D03*
D23*
X152325000Y-60115500D03*
X153125000Y-60115500D03*
D24*
X154325000Y-60115500D03*
X155325000Y-60115500D03*
X155825000Y-60115500D03*
X156825000Y-60115500D03*
D23*
X158025000Y-60115500D03*
X158825000Y-60115500D03*
X158825000Y-60115500D03*
X158025000Y-60115500D03*
D24*
X157325000Y-60115500D03*
X156325000Y-60115500D03*
X154825000Y-60115500D03*
X153825000Y-60115500D03*
D23*
X153125000Y-60115500D03*
X152325000Y-60115500D03*
D25*
X159895000Y-55020500D03*
D26*
X159895000Y-59200500D03*
X151255000Y-59200500D03*
D25*
X151255000Y-55020500D03*
%TD*%
D17*
%TO.C,D17*%
X145161000Y-127492000D03*
X146111000Y-125492000D03*
X144211000Y-125492000D03*
%TD*%
%TO.C,D18*%
X215138000Y-127555500D03*
X216088000Y-125555500D03*
X214188000Y-125555500D03*
%TD*%
D27*
%TO.C,J7*%
X210317534Y-59737148D03*
D28*
X211587534Y-59737148D03*
X212857534Y-59737148D03*
X214127534Y-59737148D03*
X215397534Y-59737148D03*
X216667534Y-59737148D03*
X217937534Y-59737148D03*
%TD*%
D29*
%TO.C,C9*%
X234176562Y-94962187D03*
X235136562Y-94962187D03*
%TD*%
D30*
%TO.C,C14*%
X220621340Y-92839838D03*
X220621340Y-91879838D03*
%TD*%
%TO.C,C12*%
X225662100Y-89639736D03*
X225662100Y-88679736D03*
%TD*%
D31*
%TO.C,R8*%
X234256562Y-91852187D03*
X234256562Y-92872187D03*
%TD*%
D32*
%TO.C,D24*%
X195200000Y-110100000D03*
X195200000Y-113400000D03*
X190300000Y-113400000D03*
X190300000Y-110100000D03*
%TD*%
D33*
%TO.C,Boot1*%
X246170842Y-106035074D03*
X246170842Y-112235074D03*
X249870842Y-106035074D03*
X249870842Y-112235074D03*
%TD*%
D32*
%TO.C,D21*%
X72950000Y-110100000D03*
X72950000Y-113400000D03*
X68050000Y-113400000D03*
X68050000Y-110100000D03*
%TD*%
D29*
%TO.C,C8*%
X231082023Y-91042518D03*
X232042023Y-91042518D03*
%TD*%
%TO.C,C7*%
X231872868Y-94617943D03*
X232832868Y-94617943D03*
%TD*%
%TO.C,C5*%
X249020000Y-97500000D03*
X249980000Y-97500000D03*
%TD*%
D32*
%TO.C,D28*%
X120950000Y-73850000D03*
X120950000Y-77150000D03*
X116050000Y-77150000D03*
X116050000Y-73850000D03*
%TD*%
%TO.C,D26*%
X243200000Y-73850000D03*
X243200000Y-77150000D03*
X238300000Y-77150000D03*
X238300000Y-73850000D03*
%TD*%
D34*
%TO.C,Y1*%
X217506562Y-95862187D03*
X217506562Y-93662187D03*
X219206562Y-93662187D03*
X219206562Y-95862187D03*
%TD*%
D35*
%TO.C,R5*%
X248000000Y-102760000D03*
X248000000Y-101740000D03*
%TD*%
D32*
%TO.C,D27*%
X195200000Y-73850000D03*
X195200000Y-77150000D03*
X190300000Y-77150000D03*
X190300000Y-73850000D03*
%TD*%
D36*
%TO.C,C1*%
X155980000Y-77040000D03*
X155020000Y-77040000D03*
%TD*%
D37*
%TO.C,J5*%
X98897875Y-71458684D03*
X98897875Y-72658684D03*
X98897875Y-73858684D03*
X98897875Y-75058684D03*
D38*
X102672875Y-70308684D03*
X102672875Y-76208684D03*
%TD*%
D39*
%TO.C,U3*%
X229256562Y-97799687D03*
X228856562Y-97799687D03*
X228456562Y-97799687D03*
X228056562Y-97799687D03*
X227656562Y-97799687D03*
X227256562Y-97799687D03*
X226856562Y-97799687D03*
X226456562Y-97799687D03*
X226056562Y-97799687D03*
X225656562Y-97799687D03*
X225256562Y-97799687D03*
X224856562Y-97799687D03*
X224456562Y-97799687D03*
X224056562Y-97799687D03*
D40*
X223219062Y-96962187D03*
X223219062Y-96562187D03*
X223219062Y-96162187D03*
X223219062Y-95762187D03*
X223219062Y-95362187D03*
X223219062Y-94962187D03*
X223219062Y-94562187D03*
X223219062Y-94162187D03*
X223219062Y-93762187D03*
X223219062Y-93362187D03*
X223219062Y-92962187D03*
X223219062Y-92562187D03*
X223219062Y-92162187D03*
X223219062Y-91762187D03*
D39*
X224056562Y-90924687D03*
X224456562Y-90924687D03*
X224856562Y-90924687D03*
X225256562Y-90924687D03*
X225656562Y-90924687D03*
X226056562Y-90924687D03*
X226456562Y-90924687D03*
X226856562Y-90924687D03*
X227256562Y-90924687D03*
X227656562Y-90924687D03*
X228056562Y-90924687D03*
X228456562Y-90924687D03*
X228856562Y-90924687D03*
X229256562Y-90924687D03*
D40*
X230094062Y-91762187D03*
X230094062Y-92162187D03*
X230094062Y-92562187D03*
X230094062Y-92962187D03*
X230094062Y-93362187D03*
X230094062Y-93762187D03*
X230094062Y-94162187D03*
X230094062Y-94562187D03*
X230094062Y-94962187D03*
X230094062Y-95362187D03*
X230094062Y-95762187D03*
X230094062Y-96162187D03*
X230094062Y-96562187D03*
X230094062Y-96962187D03*
D41*
X226656562Y-94362187D03*
%TD*%
D29*
%TO.C,C4*%
X161020000Y-77250000D03*
X161980000Y-77250000D03*
%TD*%
D27*
%TO.C,J4*%
X248119055Y-72044104D03*
D28*
X248119055Y-73314104D03*
%TD*%
D32*
%TO.C,D29*%
X72988549Y-73848224D03*
X72988549Y-77148224D03*
X68088549Y-77148224D03*
X68088549Y-73848224D03*
%TD*%
D42*
%TO.C,R3*%
X232766562Y-93362187D03*
X231746562Y-93362187D03*
%TD*%
D30*
%TO.C,C3*%
X216106562Y-95442187D03*
X216106562Y-94482187D03*
%TD*%
D29*
%TO.C,C16*%
X234176562Y-93962187D03*
X235136562Y-93962187D03*
%TD*%
D32*
%TO.C,D22*%
X120950000Y-110100000D03*
X120950000Y-113400000D03*
X116050000Y-113400000D03*
X116050000Y-110100000D03*
%TD*%
D30*
%TO.C,C2*%
X220630083Y-94803443D03*
X220630083Y-93843443D03*
%TD*%
D42*
%TO.C,R11*%
X149510000Y-74750000D03*
X148490000Y-74750000D03*
%TD*%
D43*
%TO.C,J3*%
X94796655Y-75036662D03*
X94796655Y-73836662D03*
X94796655Y-72636662D03*
X94796655Y-71436662D03*
D44*
X91021655Y-76186662D03*
X91021655Y-70286662D03*
%TD*%
D32*
%TO.C,D23*%
X158082447Y-110109999D03*
X158082447Y-113409999D03*
X153182447Y-113409999D03*
X153182447Y-110109999D03*
%TD*%
D45*
%TO.C,Reset1*%
X249908537Y-75731252D03*
X249908537Y-69531252D03*
X246208537Y-75731252D03*
X246208537Y-69531252D03*
%TD*%
D46*
%TO.C,U1*%
X159437500Y-75300000D03*
X159437500Y-77200000D03*
X157562500Y-76250000D03*
%TD*%
D47*
%TO.C,U2*%
X241400000Y-95905000D03*
X241400000Y-94635000D03*
X241400000Y-93365000D03*
X241400000Y-92095000D03*
X248600000Y-92095000D03*
X248600000Y-93365000D03*
X248600000Y-94635000D03*
X248600000Y-95905000D03*
%TD*%
D20*
%TO.C,R6*%
X249662500Y-99750000D03*
X247837500Y-99750000D03*
%TD*%
D31*
%TO.C,R9*%
X225643214Y-101043044D03*
X225643214Y-102063044D03*
%TD*%
D29*
%TO.C,C15*%
X229925600Y-88695709D03*
X230885600Y-88695709D03*
%TD*%
%TO.C,C10*%
X229925600Y-89794252D03*
X230885600Y-89794252D03*
%TD*%
D48*
%TO.C,J2*%
X60546930Y-76941939D03*
D49*
X63086930Y-76941939D03*
X65626930Y-76941939D03*
%TD*%
D50*
%TO.C,C13*%
X225656562Y-99082187D03*
X225656562Y-100042187D03*
%TD*%
D29*
%TO.C,C11*%
X230026562Y-99112187D03*
X230986562Y-99112187D03*
%TD*%
D30*
%TO.C,C6*%
X221656562Y-92842187D03*
X221656562Y-91882187D03*
%TD*%
D51*
%TO.C,J6*%
X192992434Y-93867427D03*
D52*
X194992434Y-93867427D03*
X196992434Y-93867427D03*
X198992434Y-93867427D03*
X200992434Y-93867427D03*
X202992434Y-93867427D03*
X204992434Y-93867427D03*
%TD*%
D42*
%TO.C,R4*%
X232766562Y-92162187D03*
X231746562Y-92162187D03*
%TD*%
D53*
%TO.C,D20*%
X227154821Y-103001359D03*
X227154821Y-101426359D03*
%TD*%
D32*
%TO.C,D25*%
X243200000Y-110100000D03*
X243200000Y-113400000D03*
X238300000Y-113400000D03*
X238300000Y-110100000D03*
%TD*%
D54*
%TO.C,R10*%
X148490000Y-75750000D03*
X149510000Y-75750000D03*
%TD*%
D27*
%TO.C,J1*%
X248040976Y-109791951D03*
D28*
X248040976Y-108521951D03*
%TD*%
D55*
%TO.C,C17*%
X157550000Y-79500000D03*
X159450000Y-79500000D03*
%TD*%
M02*
