M48
; DRILL file {KiCad 7.0.7} date Sat Oct 14 12:40:22 2023
; FORMAT={-:-/ absolute / metric / decimal}
; #@! TF.CreationDate,2023-10-14T12:40:22+02:00
; #@! TF.GenerationSoftware,Kicad,Pcbnew,7.0.7
; #@! TF.FileFunction,Plated,1,2,PTH
FMAT,2
METRIC
; #@! TA.AperFunction,Plated,PTH,ViaDrill
T1C0.200
; #@! TA.AperFunction,Plated,PTH,ViaDrill
T2C0.300
; #@! TA.AperFunction,Plated,PTH,ComponentDrill
T3C0.300
; #@! TA.AperFunction,Plated,PTH,ViaDrill
T4C0.400
; #@! TA.AperFunction,Plated,PTH,ComponentDrill
T5C0.600
; #@! TA.AperFunction,Plated,PTH,ComponentDrill
T6C0.650
; #@! TA.AperFunction,Plated,PTH,ComponentDrill
T7C0.700
; #@! TA.AperFunction,Plated,PTH,ComponentDrill
T8C0.800
; #@! TA.AperFunction,Plated,PTH,ComponentDrill
T9C1.000
%
G90
G05
T1
X80.183Y-82.839
X85.879Y-106.1
X94.775Y-99.7
X99.522Y-84.917
X128.674Y-77.268
X129.54Y-72.451
X155.913Y-74.06
X199.909Y-115.657
X202.981Y-75.093
X209.606Y-92.986
X210.446Y-94.362
X211.52Y-95.436
X212.092Y-92.656
X213.02Y-93.968
X214.446Y-98.071
X215.237Y-97.907
X216.126Y-97.799
X221.65Y-74.675
X221.754Y-97.192
X222.109Y-90.991
X222.194Y-93.445
X223.887Y-99.352
X224.326Y-94.137
X225.555Y-103.404
X226.457Y-89.105
X226.49Y-77.624
X226.557Y-74.658
X226.779Y-83.49
X227.157Y-89.64
X227.536Y-83.34
X228.294Y-83.554
X228.865Y-84.015
X228.867Y-96.698
X228.997Y-91.979
X230.751Y-107.55
X235.504Y-92.472
X240.251Y-71.704
X246.288Y-95.855
X246.383Y-105.986
X249.544Y-108.531
X249.551Y-105.505
X249.885Y-77.915
X250.006Y-97.488
X250.122Y-76.259
X251.181Y-73.338
T2
X84.242Y-92.08
X96.403Y-71.417
X97.421Y-75.062
X123.239Y-71.998
X125.101Y-72.009
X126.218Y-110.059
X128.216Y-116.404
X128.424Y-107.816
X129.156Y-111.396
X129.563Y-91.075
X129.563Y-94.011
X131.222Y-116.383
X131.912Y-72.36
X132.774Y-111.407
X134.833Y-110.651
X139.689Y-108.131
X139.7Y-111.76
X142.799Y-80.218
X147.225Y-75.745
X156.642Y-83.905
X160.967Y-78.558
X164.265Y-74.591
X166.28Y-80.844
X168.5Y-63.25
X169.25Y-62.5
X171.386Y-112.647
X177.553Y-112.67
X184.204Y-108.017
X186.554Y-111.76
X186.564Y-112.647
X188.878Y-111.009
X194.882Y-111.304
X197.27Y-113.413
X199.93Y-89.639
X200.968Y-110.107
X201.858Y-113.424
X202.959Y-110.562
X204.076Y-80.892
X205.74Y-109.577
X209.052Y-59.694
X210.932Y-74.469
X210.941Y-71.239
X211.743Y-110.115
X214.397Y-71.266
X214.399Y-73.842
X214.677Y-81.132
X215.9Y-76.2
X216.44Y-85.856
X216.451Y-89.286
X217.493Y-93.629
X217.751Y-73.834
X219.25Y-95.75
X219.575Y-91.994
X220.2Y-76.177
X220.618Y-93.86
X221.823Y-86.624
X222.694Y-80.522
X223.52Y-71.975
X223.55Y-81.979
X224.179Y-96.824
X224.457Y-80.048
X225.0Y-92.25
X225.487Y-94.34
X225.5Y-93.25
X225.5Y-95.5
X225.632Y-101.044
X225.634Y-111.76
X225.657Y-100.042
X226.201Y-88.153
X226.477Y-105.003
X226.639Y-93.249
X226.656Y-95.509
X226.657Y-94.362
X227.75Y-93.25
X227.75Y-95.5
X227.758Y-94.357
X228.08Y-111.76
X228.719Y-62.101
X229.0Y-93.0
X230.977Y-111.426
X231.14Y-77.25
X231.707Y-88.922
X231.873Y-94.618
X231.921Y-87.486
X232.007Y-89.984
X232.168Y-77.179
X232.2Y-99.127
X232.699Y-111.453
X232.846Y-94.608
X232.997Y-113.688
X234.173Y-124.128
X234.23Y-67.964
X234.578Y-87.479
X235.199Y-112.647
X235.893Y-91.251
X236.568Y-80.717
X238.5Y-94.75
X239.25Y-94.25
X242.155Y-88.951
X243.698Y-90.51
X243.84Y-75.33
X244.75Y-96.0
X245.016Y-110.726
X245.75Y-93.5
X245.92Y-104.049
X246.25Y-94.75
X246.75Y-98.0
X248.193Y-113.614
X249.624Y-102.114
X249.925Y-88.654
X251.81Y-78.39
T3
X90.672Y-70.887
X90.672Y-75.587
X91.172Y-70.887
X91.172Y-75.587
X91.672Y-70.387
X91.672Y-70.887
X91.672Y-75.587
X91.672Y-76.087
X102.023Y-70.409
X102.023Y-70.909
X102.023Y-75.609
X102.023Y-76.109
X102.523Y-70.909
X102.523Y-75.609
X103.023Y-70.909
X103.023Y-75.609
T4
X66.305Y-113.335
X71.12Y-73.66
X75.619Y-113.409
X79.486Y-67.002
X79.507Y-96.224
X80.04Y-118.707
X82.57Y-113.409
X83.863Y-80.411
X84.232Y-86.928
X89.279Y-96.503
X93.713Y-96.477
X93.742Y-106.318
X98.34Y-118.697
X98.438Y-67.002
X102.857Y-80.411
X103.234Y-86.957
X107.42Y-95.33
X112.779Y-106.346
X112.85Y-97.951
X114.264Y-77.168
X114.313Y-113.4
X115.043Y-118.519
X117.547Y-66.937
X119.187Y-69.71
X121.851Y-80.635
X122.306Y-86.928
X125.723Y-125.853
X131.877Y-106.359
X131.883Y-99.094
X141.338Y-80.186
X141.349Y-87.0
X142.549Y-60.267
X145.937Y-89.574
X147.042Y-74.52
X148.115Y-71.947
X148.538Y-119.197
X149.47Y-73.838
X150.846Y-106.364
X150.85Y-99.07
X152.25Y-62.0
X153.169Y-114.972
X154.087Y-77.16
X154.457Y-71.932
X154.532Y-68.239
X155.633Y-64.513
X158.025Y-61.975
X160.02Y-75.35
X160.431Y-86.924
X161.181Y-80.925
X162.987Y-76.522
X165.526Y-121.11
X168.792Y-60.201
X169.776Y-71.208
X169.878Y-125.824
X169.902Y-106.398
X169.924Y-118.767
X169.979Y-98.965
X174.682Y-70.589
X179.43Y-87.011
X179.449Y-80.531
X180.34Y-93.69
X182.88Y-88.9
X188.23Y-77.122
X189.017Y-98.904
X189.017Y-105.854
X190.312Y-125.617
X191.342Y-93.863
X191.839Y-113.371
X193.02Y-115.577
X193.04Y-118.783
X193.734Y-71.174
X198.455Y-80.485
X198.528Y-86.995
X208.034Y-106.224
X208.053Y-98.826
X209.115Y-115.661
X210.754Y-88.379
X212.781Y-71.252
X213.229Y-123.208
X217.549Y-80.417
X217.563Y-118.663
X221.754Y-103.422
X224.401Y-107.248
X226.06Y-107.059
X227.599Y-109.287
X227.704Y-125.809
X231.39Y-84.698
X232.686Y-110.045
X232.718Y-106.141
X235.601Y-89.213
X236.581Y-113.433
X236.584Y-77.135
X238.701Y-128.14
X241.392Y-91.212
X249.936Y-69.013
T6
X248.041Y-108.522
X248.041Y-109.792
X248.119Y-72.044
X248.119Y-73.314
T7
X210.318Y-59.737
X211.588Y-59.737
X212.858Y-59.737
X214.128Y-59.737
X215.398Y-59.737
X216.668Y-59.737
X217.938Y-59.737
T8
X192.992Y-93.867
X194.992Y-93.867
X196.992Y-93.867
X198.992Y-93.867
X200.992Y-93.867
X202.992Y-93.867
X204.992Y-93.867
T9
X60.547Y-76.942
X63.087Y-76.942
X65.627Y-76.942
T5
G00X151.255Y-54.72
M15
G01X151.255Y-55.32
M16
G05
G00X151.255Y-58.65
M15
G01X151.255Y-59.75
M16
G05
G00X159.895Y-54.72
M15
G01X159.895Y-55.32
M16
G05
G00X159.895Y-58.65
M15
G01X159.895Y-59.75
M16
G05
T0
M30
