%TF.GenerationSoftware,KiCad,Pcbnew,7.0.7*%
%TF.CreationDate,2023-10-14T12:40:26+02:00*%
%TF.ProjectId,qez,71657a2e-6b69-4636-9164-5f7063625858,rev?*%
%TF.SameCoordinates,Original*%
%TF.FileFunction,Legend,Bot*%
%TF.FilePolarity,Positive*%
%FSLAX46Y46*%
G04 Gerber Fmt 4.6, Leading zero omitted, Abs format (unit mm)*
G04 Created by KiCad (PCBNEW 7.0.7) date 2023-10-14 12:40:26*
%MOMM*%
%LPD*%
G01*
G04 APERTURE LIST*
%ADD10C,0.125000*%
%ADD11C,0.150000*%
%ADD12C,0.120000*%
G04 APERTURE END LIST*
D10*
X65950726Y-74792500D02*
X65988821Y-74868690D01*
X65988821Y-74868690D02*
X65988821Y-74982976D01*
X65988821Y-74982976D02*
X65950726Y-75097262D01*
X65950726Y-75097262D02*
X65874536Y-75173452D01*
X65874536Y-75173452D02*
X65798345Y-75211547D01*
X65798345Y-75211547D02*
X65645964Y-75249643D01*
X65645964Y-75249643D02*
X65531678Y-75249643D01*
X65531678Y-75249643D02*
X65379297Y-75211547D01*
X65379297Y-75211547D02*
X65303107Y-75173452D01*
X65303107Y-75173452D02*
X65226917Y-75097262D01*
X65226917Y-75097262D02*
X65188821Y-74982976D01*
X65188821Y-74982976D02*
X65188821Y-74906785D01*
X65188821Y-74906785D02*
X65226917Y-74792500D01*
X65226917Y-74792500D02*
X65265012Y-74754404D01*
X65265012Y-74754404D02*
X65531678Y-74754404D01*
X65531678Y-74754404D02*
X65531678Y-74906785D01*
X65188821Y-74411547D02*
X65988821Y-74411547D01*
X65988821Y-74411547D02*
X65188821Y-73954404D01*
X65188821Y-73954404D02*
X65988821Y-73954404D01*
X65188821Y-73573452D02*
X65988821Y-73573452D01*
X65988821Y-73573452D02*
X65988821Y-73382976D01*
X65988821Y-73382976D02*
X65950726Y-73268690D01*
X65950726Y-73268690D02*
X65874536Y-73192500D01*
X65874536Y-73192500D02*
X65798345Y-73154405D01*
X65798345Y-73154405D02*
X65645964Y-73116309D01*
X65645964Y-73116309D02*
X65531678Y-73116309D01*
X65531678Y-73116309D02*
X65379297Y-73154405D01*
X65379297Y-73154405D02*
X65303107Y-73192500D01*
X65303107Y-73192500D02*
X65226917Y-73268690D01*
X65226917Y-73268690D02*
X65188821Y-73382976D01*
X65188821Y-73382976D02*
X65188821Y-73573452D01*
X62652001Y-75313754D02*
X63452001Y-75313754D01*
X63452001Y-75313754D02*
X63452001Y-75123278D01*
X63452001Y-75123278D02*
X63413906Y-75008992D01*
X63413906Y-75008992D02*
X63337716Y-74932802D01*
X63337716Y-74932802D02*
X63261525Y-74894707D01*
X63261525Y-74894707D02*
X63109144Y-74856611D01*
X63109144Y-74856611D02*
X62994858Y-74856611D01*
X62994858Y-74856611D02*
X62842477Y-74894707D01*
X62842477Y-74894707D02*
X62766287Y-74932802D01*
X62766287Y-74932802D02*
X62690097Y-75008992D01*
X62690097Y-75008992D02*
X62652001Y-75123278D01*
X62652001Y-75123278D02*
X62652001Y-75313754D01*
X62652001Y-74170897D02*
X63071049Y-74170897D01*
X63071049Y-74170897D02*
X63147239Y-74208992D01*
X63147239Y-74208992D02*
X63185335Y-74285183D01*
X63185335Y-74285183D02*
X63185335Y-74437564D01*
X63185335Y-74437564D02*
X63147239Y-74513754D01*
X62690097Y-74170897D02*
X62652001Y-74247088D01*
X62652001Y-74247088D02*
X62652001Y-74437564D01*
X62652001Y-74437564D02*
X62690097Y-74513754D01*
X62690097Y-74513754D02*
X62766287Y-74551850D01*
X62766287Y-74551850D02*
X62842477Y-74551850D01*
X62842477Y-74551850D02*
X62918668Y-74513754D01*
X62918668Y-74513754D02*
X62956763Y-74437564D01*
X62956763Y-74437564D02*
X62956763Y-74247088D01*
X62956763Y-74247088D02*
X62994858Y-74170897D01*
X63185335Y-73904230D02*
X63185335Y-73599468D01*
X63452001Y-73789944D02*
X62766287Y-73789944D01*
X62766287Y-73789944D02*
X62690097Y-73751849D01*
X62690097Y-73751849D02*
X62652001Y-73675659D01*
X62652001Y-73675659D02*
X62652001Y-73599468D01*
X62652001Y-72989944D02*
X63071049Y-72989944D01*
X63071049Y-72989944D02*
X63147239Y-73028039D01*
X63147239Y-73028039D02*
X63185335Y-73104230D01*
X63185335Y-73104230D02*
X63185335Y-73256611D01*
X63185335Y-73256611D02*
X63147239Y-73332801D01*
X62690097Y-72989944D02*
X62652001Y-73066135D01*
X62652001Y-73066135D02*
X62652001Y-73256611D01*
X62652001Y-73256611D02*
X62690097Y-73332801D01*
X62690097Y-73332801D02*
X62766287Y-73370897D01*
X62766287Y-73370897D02*
X62842477Y-73370897D01*
X62842477Y-73370897D02*
X62918668Y-73332801D01*
X62918668Y-73332801D02*
X62956763Y-73256611D01*
X62956763Y-73256611D02*
X62956763Y-73066135D01*
X62956763Y-73066135D02*
X62994858Y-72989944D01*
D11*
X143426488Y-59010464D02*
X143426488Y-58260464D01*
X143426488Y-58260464D02*
X143247917Y-58260464D01*
X143247917Y-58260464D02*
X143140774Y-58296178D01*
X143140774Y-58296178D02*
X143069345Y-58367607D01*
X143069345Y-58367607D02*
X143033631Y-58439035D01*
X143033631Y-58439035D02*
X142997917Y-58581892D01*
X142997917Y-58581892D02*
X142997917Y-58689035D01*
X142997917Y-58689035D02*
X143033631Y-58831892D01*
X143033631Y-58831892D02*
X143069345Y-58903321D01*
X143069345Y-58903321D02*
X143140774Y-58974750D01*
X143140774Y-58974750D02*
X143247917Y-59010464D01*
X143247917Y-59010464D02*
X143426488Y-59010464D01*
X142569345Y-59010464D02*
X142640774Y-58974750D01*
X142640774Y-58974750D02*
X142676488Y-58939035D01*
X142676488Y-58939035D02*
X142712202Y-58867607D01*
X142712202Y-58867607D02*
X142712202Y-58653321D01*
X142712202Y-58653321D02*
X142676488Y-58581892D01*
X142676488Y-58581892D02*
X142640774Y-58546178D01*
X142640774Y-58546178D02*
X142569345Y-58510464D01*
X142569345Y-58510464D02*
X142462202Y-58510464D01*
X142462202Y-58510464D02*
X142390774Y-58546178D01*
X142390774Y-58546178D02*
X142355060Y-58581892D01*
X142355060Y-58581892D02*
X142319345Y-58653321D01*
X142319345Y-58653321D02*
X142319345Y-58867607D01*
X142319345Y-58867607D02*
X142355060Y-58939035D01*
X142355060Y-58939035D02*
X142390774Y-58974750D01*
X142390774Y-58974750D02*
X142462202Y-59010464D01*
X142462202Y-59010464D02*
X142569345Y-59010464D01*
X141997917Y-58510464D02*
X141997917Y-59010464D01*
X141997917Y-58581892D02*
X141962203Y-58546178D01*
X141962203Y-58546178D02*
X141890774Y-58510464D01*
X141890774Y-58510464D02*
X141783631Y-58510464D01*
X141783631Y-58510464D02*
X141712203Y-58546178D01*
X141712203Y-58546178D02*
X141676489Y-58617607D01*
X141676489Y-58617607D02*
X141676489Y-59010464D01*
X141283632Y-58260464D02*
X141355060Y-58403321D01*
X141069346Y-58510464D02*
X140783632Y-58510464D01*
X140962203Y-58260464D02*
X140962203Y-58903321D01*
X140962203Y-58903321D02*
X140926489Y-58974750D01*
X140926489Y-58974750D02*
X140855060Y-59010464D01*
X140855060Y-59010464D02*
X140783632Y-59010464D01*
X139640775Y-58974750D02*
X139712203Y-59010464D01*
X139712203Y-59010464D02*
X139855060Y-59010464D01*
X139855060Y-59010464D02*
X139926489Y-58974750D01*
X139926489Y-58974750D02*
X139962203Y-58939035D01*
X139962203Y-58939035D02*
X139997917Y-58867607D01*
X139997917Y-58867607D02*
X139997917Y-58653321D01*
X139997917Y-58653321D02*
X139962203Y-58581892D01*
X139962203Y-58581892D02*
X139926489Y-58546178D01*
X139926489Y-58546178D02*
X139855060Y-58510464D01*
X139855060Y-58510464D02*
X139712203Y-58510464D01*
X139712203Y-58510464D02*
X139640775Y-58546178D01*
X138997918Y-59010464D02*
X138997918Y-58617607D01*
X138997918Y-58617607D02*
X139033632Y-58546178D01*
X139033632Y-58546178D02*
X139105060Y-58510464D01*
X139105060Y-58510464D02*
X139247918Y-58510464D01*
X139247918Y-58510464D02*
X139319346Y-58546178D01*
X138997918Y-58974750D02*
X139069346Y-59010464D01*
X139069346Y-59010464D02*
X139247918Y-59010464D01*
X139247918Y-59010464D02*
X139319346Y-58974750D01*
X139319346Y-58974750D02*
X139355060Y-58903321D01*
X139355060Y-58903321D02*
X139355060Y-58831892D01*
X139355060Y-58831892D02*
X139319346Y-58760464D01*
X139319346Y-58760464D02*
X139247918Y-58724750D01*
X139247918Y-58724750D02*
X139069346Y-58724750D01*
X139069346Y-58724750D02*
X138997918Y-58689035D01*
X138533632Y-59010464D02*
X138605061Y-58974750D01*
X138605061Y-58974750D02*
X138640775Y-58903321D01*
X138640775Y-58903321D02*
X138640775Y-58260464D01*
X138140775Y-59010464D02*
X138212204Y-58974750D01*
X138212204Y-58974750D02*
X138247918Y-58903321D01*
X138247918Y-58903321D02*
X138247918Y-58260464D01*
X137390775Y-58510464D02*
X137105061Y-58510464D01*
X137283632Y-58260464D02*
X137283632Y-58903321D01*
X137283632Y-58903321D02*
X137247918Y-58974750D01*
X137247918Y-58974750D02*
X137176489Y-59010464D01*
X137176489Y-59010464D02*
X137105061Y-59010464D01*
X136855061Y-59010464D02*
X136855061Y-58260464D01*
X136533633Y-59010464D02*
X136533633Y-58617607D01*
X136533633Y-58617607D02*
X136569347Y-58546178D01*
X136569347Y-58546178D02*
X136640775Y-58510464D01*
X136640775Y-58510464D02*
X136747918Y-58510464D01*
X136747918Y-58510464D02*
X136819347Y-58546178D01*
X136819347Y-58546178D02*
X136855061Y-58581892D01*
X136176490Y-59010464D02*
X136176490Y-58510464D01*
X136176490Y-58260464D02*
X136212204Y-58296178D01*
X136212204Y-58296178D02*
X136176490Y-58331892D01*
X136176490Y-58331892D02*
X136140776Y-58296178D01*
X136140776Y-58296178D02*
X136176490Y-58260464D01*
X136176490Y-58260464D02*
X136176490Y-58331892D01*
X135855061Y-58974750D02*
X135783633Y-59010464D01*
X135783633Y-59010464D02*
X135640776Y-59010464D01*
X135640776Y-59010464D02*
X135569347Y-58974750D01*
X135569347Y-58974750D02*
X135533633Y-58903321D01*
X135533633Y-58903321D02*
X135533633Y-58867607D01*
X135533633Y-58867607D02*
X135569347Y-58796178D01*
X135569347Y-58796178D02*
X135640776Y-58760464D01*
X135640776Y-58760464D02*
X135747919Y-58760464D01*
X135747919Y-58760464D02*
X135819347Y-58724750D01*
X135819347Y-58724750D02*
X135855061Y-58653321D01*
X135855061Y-58653321D02*
X135855061Y-58617607D01*
X135855061Y-58617607D02*
X135819347Y-58546178D01*
X135819347Y-58546178D02*
X135747919Y-58510464D01*
X135747919Y-58510464D02*
X135640776Y-58510464D01*
X135640776Y-58510464D02*
X135569347Y-58546178D01*
X134640775Y-58510464D02*
X134640775Y-59010464D01*
X134640775Y-58581892D02*
X134605061Y-58546178D01*
X134605061Y-58546178D02*
X134533632Y-58510464D01*
X134533632Y-58510464D02*
X134426489Y-58510464D01*
X134426489Y-58510464D02*
X134355061Y-58546178D01*
X134355061Y-58546178D02*
X134319347Y-58617607D01*
X134319347Y-58617607D02*
X134319347Y-59010464D01*
X133640776Y-58510464D02*
X133640776Y-59010464D01*
X133962204Y-58510464D02*
X133962204Y-58903321D01*
X133962204Y-58903321D02*
X133926490Y-58974750D01*
X133926490Y-58974750D02*
X133855061Y-59010464D01*
X133855061Y-59010464D02*
X133747918Y-59010464D01*
X133747918Y-59010464D02*
X133676490Y-58974750D01*
X133676490Y-58974750D02*
X133640776Y-58939035D01*
X133283633Y-59010464D02*
X133283633Y-58510464D01*
X133283633Y-58581892D02*
X133247919Y-58546178D01*
X133247919Y-58546178D02*
X133176490Y-58510464D01*
X133176490Y-58510464D02*
X133069347Y-58510464D01*
X133069347Y-58510464D02*
X132997919Y-58546178D01*
X132997919Y-58546178D02*
X132962205Y-58617607D01*
X132962205Y-58617607D02*
X132962205Y-59010464D01*
X132962205Y-58617607D02*
X132926490Y-58546178D01*
X132926490Y-58546178D02*
X132855062Y-58510464D01*
X132855062Y-58510464D02*
X132747919Y-58510464D01*
X132747919Y-58510464D02*
X132676490Y-58546178D01*
X132676490Y-58546178D02*
X132640776Y-58617607D01*
X132640776Y-58617607D02*
X132640776Y-59010464D01*
X132283633Y-59010464D02*
X132283633Y-58260464D01*
X132283633Y-58546178D02*
X132212205Y-58510464D01*
X132212205Y-58510464D02*
X132069347Y-58510464D01*
X132069347Y-58510464D02*
X131997919Y-58546178D01*
X131997919Y-58546178D02*
X131962205Y-58581892D01*
X131962205Y-58581892D02*
X131926490Y-58653321D01*
X131926490Y-58653321D02*
X131926490Y-58867607D01*
X131926490Y-58867607D02*
X131962205Y-58939035D01*
X131962205Y-58939035D02*
X131997919Y-58974750D01*
X131997919Y-58974750D02*
X132069347Y-59010464D01*
X132069347Y-59010464D02*
X132212205Y-59010464D01*
X132212205Y-59010464D02*
X132283633Y-58974750D01*
X131319348Y-58974750D02*
X131390776Y-59010464D01*
X131390776Y-59010464D02*
X131533634Y-59010464D01*
X131533634Y-59010464D02*
X131605062Y-58974750D01*
X131605062Y-58974750D02*
X131640776Y-58903321D01*
X131640776Y-58903321D02*
X131640776Y-58617607D01*
X131640776Y-58617607D02*
X131605062Y-58546178D01*
X131605062Y-58546178D02*
X131533634Y-58510464D01*
X131533634Y-58510464D02*
X131390776Y-58510464D01*
X131390776Y-58510464D02*
X131319348Y-58546178D01*
X131319348Y-58546178D02*
X131283634Y-58617607D01*
X131283634Y-58617607D02*
X131283634Y-58689035D01*
X131283634Y-58689035D02*
X131640776Y-58760464D01*
X130962205Y-59010464D02*
X130962205Y-58510464D01*
X130962205Y-58653321D02*
X130926491Y-58581892D01*
X130926491Y-58581892D02*
X130890777Y-58546178D01*
X130890777Y-58546178D02*
X130819348Y-58510464D01*
X130819348Y-58510464D02*
X130747919Y-58510464D01*
D10*
X60381036Y-75273800D02*
X60381036Y-74664277D01*
X60076274Y-74969038D02*
X60685798Y-74969038D01*
X60876274Y-73902372D02*
X60876274Y-74283324D01*
X60876274Y-74283324D02*
X60495322Y-74321420D01*
X60495322Y-74321420D02*
X60533417Y-74283324D01*
X60533417Y-74283324D02*
X60571512Y-74207134D01*
X60571512Y-74207134D02*
X60571512Y-74016658D01*
X60571512Y-74016658D02*
X60533417Y-73940467D01*
X60533417Y-73940467D02*
X60495322Y-73902372D01*
X60495322Y-73902372D02*
X60419131Y-73864277D01*
X60419131Y-73864277D02*
X60228655Y-73864277D01*
X60228655Y-73864277D02*
X60152465Y-73902372D01*
X60152465Y-73902372D02*
X60114370Y-73940467D01*
X60114370Y-73940467D02*
X60076274Y-74016658D01*
X60076274Y-74016658D02*
X60076274Y-74207134D01*
X60076274Y-74207134D02*
X60114370Y-74283324D01*
X60114370Y-74283324D02*
X60152465Y-74321420D01*
X60876274Y-73635705D02*
X60076274Y-73369038D01*
X60076274Y-73369038D02*
X60876274Y-73102372D01*
D11*
X141784791Y-60091843D02*
X141784791Y-60806128D01*
X141784791Y-60806128D02*
X141832410Y-60948985D01*
X141832410Y-60948985D02*
X141927648Y-61044224D01*
X141927648Y-61044224D02*
X142070505Y-61091843D01*
X142070505Y-61091843D02*
X142165743Y-61091843D01*
X140832410Y-61091843D02*
X141308600Y-61091843D01*
X141308600Y-61091843D02*
X141308600Y-60091843D01*
X139927648Y-60996604D02*
X139975267Y-61044224D01*
X139975267Y-61044224D02*
X140118124Y-61091843D01*
X140118124Y-61091843D02*
X140213362Y-61091843D01*
X140213362Y-61091843D02*
X140356219Y-61044224D01*
X140356219Y-61044224D02*
X140451457Y-60948985D01*
X140451457Y-60948985D02*
X140499076Y-60853747D01*
X140499076Y-60853747D02*
X140546695Y-60663271D01*
X140546695Y-60663271D02*
X140546695Y-60520414D01*
X140546695Y-60520414D02*
X140499076Y-60329938D01*
X140499076Y-60329938D02*
X140451457Y-60234700D01*
X140451457Y-60234700D02*
X140356219Y-60139462D01*
X140356219Y-60139462D02*
X140213362Y-60091843D01*
X140213362Y-60091843D02*
X140118124Y-60091843D01*
X140118124Y-60091843D02*
X139975267Y-60139462D01*
X139975267Y-60139462D02*
X139927648Y-60187081D01*
X139213362Y-60091843D02*
X139213362Y-60806128D01*
X139213362Y-60806128D02*
X139260981Y-60948985D01*
X139260981Y-60948985D02*
X139356219Y-61044224D01*
X139356219Y-61044224D02*
X139499076Y-61091843D01*
X139499076Y-61091843D02*
X139594314Y-61091843D01*
X138260981Y-61091843D02*
X138737171Y-61091843D01*
X138737171Y-61091843D02*
X138737171Y-60091843D01*
X137356219Y-60996604D02*
X137403838Y-61044224D01*
X137403838Y-61044224D02*
X137546695Y-61091843D01*
X137546695Y-61091843D02*
X137641933Y-61091843D01*
X137641933Y-61091843D02*
X137784790Y-61044224D01*
X137784790Y-61044224D02*
X137880028Y-60948985D01*
X137880028Y-60948985D02*
X137927647Y-60853747D01*
X137927647Y-60853747D02*
X137975266Y-60663271D01*
X137975266Y-60663271D02*
X137975266Y-60520414D01*
X137975266Y-60520414D02*
X137927647Y-60329938D01*
X137927647Y-60329938D02*
X137880028Y-60234700D01*
X137880028Y-60234700D02*
X137784790Y-60139462D01*
X137784790Y-60139462D02*
X137641933Y-60091843D01*
X137641933Y-60091843D02*
X137546695Y-60091843D01*
X137546695Y-60091843D02*
X137403838Y-60139462D01*
X137403838Y-60139462D02*
X137356219Y-60187081D01*
X136641933Y-60091843D02*
X136641933Y-60806128D01*
X136641933Y-60806128D02*
X136689552Y-60948985D01*
X136689552Y-60948985D02*
X136784790Y-61044224D01*
X136784790Y-61044224D02*
X136927647Y-61091843D01*
X136927647Y-61091843D02*
X137022885Y-61091843D01*
X135689552Y-61091843D02*
X136165742Y-61091843D01*
X136165742Y-61091843D02*
X136165742Y-60091843D01*
X134784790Y-60996604D02*
X134832409Y-61044224D01*
X134832409Y-61044224D02*
X134975266Y-61091843D01*
X134975266Y-61091843D02*
X135070504Y-61091843D01*
X135070504Y-61091843D02*
X135213361Y-61044224D01*
X135213361Y-61044224D02*
X135308599Y-60948985D01*
X135308599Y-60948985D02*
X135356218Y-60853747D01*
X135356218Y-60853747D02*
X135403837Y-60663271D01*
X135403837Y-60663271D02*
X135403837Y-60520414D01*
X135403837Y-60520414D02*
X135356218Y-60329938D01*
X135356218Y-60329938D02*
X135308599Y-60234700D01*
X135308599Y-60234700D02*
X135213361Y-60139462D01*
X135213361Y-60139462D02*
X135070504Y-60091843D01*
X135070504Y-60091843D02*
X134975266Y-60091843D01*
X134975266Y-60091843D02*
X134832409Y-60139462D01*
X134832409Y-60139462D02*
X134784790Y-60187081D01*
X134070504Y-60091843D02*
X134070504Y-60806128D01*
X134070504Y-60806128D02*
X134118123Y-60948985D01*
X134118123Y-60948985D02*
X134213361Y-61044224D01*
X134213361Y-61044224D02*
X134356218Y-61091843D01*
X134356218Y-61091843D02*
X134451456Y-61091843D01*
X133118123Y-61091843D02*
X133594313Y-61091843D01*
X133594313Y-61091843D02*
X133594313Y-60091843D01*
X132213361Y-60996604D02*
X132260980Y-61044224D01*
X132260980Y-61044224D02*
X132403837Y-61091843D01*
X132403837Y-61091843D02*
X132499075Y-61091843D01*
X132499075Y-61091843D02*
X132641932Y-61044224D01*
X132641932Y-61044224D02*
X132737170Y-60948985D01*
X132737170Y-60948985D02*
X132784789Y-60853747D01*
X132784789Y-60853747D02*
X132832408Y-60663271D01*
X132832408Y-60663271D02*
X132832408Y-60520414D01*
X132832408Y-60520414D02*
X132784789Y-60329938D01*
X132784789Y-60329938D02*
X132737170Y-60234700D01*
X132737170Y-60234700D02*
X132641932Y-60139462D01*
X132641932Y-60139462D02*
X132499075Y-60091843D01*
X132499075Y-60091843D02*
X132403837Y-60091843D01*
X132403837Y-60091843D02*
X132260980Y-60139462D01*
X132260980Y-60139462D02*
X132213361Y-60187081D01*
X94265124Y-92230622D02*
X94360362Y-92183003D01*
X94360362Y-92183003D02*
X94455600Y-92087765D01*
X94455600Y-92087765D02*
X94598457Y-91944907D01*
X94598457Y-91944907D02*
X94693695Y-91897288D01*
X94693695Y-91897288D02*
X94788933Y-91897288D01*
X94741314Y-92135384D02*
X94836552Y-92087765D01*
X94836552Y-92087765D02*
X94931790Y-91992526D01*
X94931790Y-91992526D02*
X94979409Y-91802050D01*
X94979409Y-91802050D02*
X94979409Y-91468717D01*
X94979409Y-91468717D02*
X94931790Y-91278241D01*
X94931790Y-91278241D02*
X94836552Y-91183003D01*
X94836552Y-91183003D02*
X94741314Y-91135384D01*
X94741314Y-91135384D02*
X94550838Y-91135384D01*
X94550838Y-91135384D02*
X94455600Y-91183003D01*
X94455600Y-91183003D02*
X94360362Y-91278241D01*
X94360362Y-91278241D02*
X94312743Y-91468717D01*
X94312743Y-91468717D02*
X94312743Y-91802050D01*
X94312743Y-91802050D02*
X94360362Y-91992526D01*
X94360362Y-91992526D02*
X94455600Y-92087765D01*
X94455600Y-92087765D02*
X94550838Y-92135384D01*
X94550838Y-92135384D02*
X94741314Y-92135384D01*
X93884171Y-91611574D02*
X93550838Y-91611574D01*
X93407981Y-92135384D02*
X93884171Y-92135384D01*
X93884171Y-92135384D02*
X93884171Y-91135384D01*
X93884171Y-91135384D02*
X93407981Y-91135384D01*
X93074647Y-91135384D02*
X92407981Y-91135384D01*
X92407981Y-91135384D02*
X93074647Y-92135384D01*
X93074647Y-92135384D02*
X92407981Y-92135384D01*
X91693695Y-91611574D02*
X91550838Y-91659193D01*
X91550838Y-91659193D02*
X91503219Y-91706812D01*
X91503219Y-91706812D02*
X91455600Y-91802050D01*
X91455600Y-91802050D02*
X91455600Y-91944907D01*
X91455600Y-91944907D02*
X91503219Y-92040145D01*
X91503219Y-92040145D02*
X91550838Y-92087765D01*
X91550838Y-92087765D02*
X91646076Y-92135384D01*
X91646076Y-92135384D02*
X92027028Y-92135384D01*
X92027028Y-92135384D02*
X92027028Y-91135384D01*
X92027028Y-91135384D02*
X91693695Y-91135384D01*
X91693695Y-91135384D02*
X91598457Y-91183003D01*
X91598457Y-91183003D02*
X91550838Y-91230622D01*
X91550838Y-91230622D02*
X91503219Y-91325860D01*
X91503219Y-91325860D02*
X91503219Y-91421098D01*
X91503219Y-91421098D02*
X91550838Y-91516336D01*
X91550838Y-91516336D02*
X91598457Y-91563955D01*
X91598457Y-91563955D02*
X91693695Y-91611574D01*
X91693695Y-91611574D02*
X92027028Y-91611574D01*
X90646076Y-92087765D02*
X90741314Y-92135384D01*
X90741314Y-92135384D02*
X90931790Y-92135384D01*
X90931790Y-92135384D02*
X91027028Y-92087765D01*
X91027028Y-92087765D02*
X91074647Y-91992526D01*
X91074647Y-91992526D02*
X91074647Y-91611574D01*
X91074647Y-91611574D02*
X91027028Y-91516336D01*
X91027028Y-91516336D02*
X90931790Y-91468717D01*
X90931790Y-91468717D02*
X90741314Y-91468717D01*
X90741314Y-91468717D02*
X90646076Y-91516336D01*
X90646076Y-91516336D02*
X90598457Y-91611574D01*
X90598457Y-91611574D02*
X90598457Y-91706812D01*
X90598457Y-91706812D02*
X91074647Y-91802050D01*
X90169885Y-92135384D02*
X90169885Y-91468717D01*
X90169885Y-91659193D02*
X90122266Y-91563955D01*
X90122266Y-91563955D02*
X90074647Y-91516336D01*
X90074647Y-91516336D02*
X89979409Y-91468717D01*
X89979409Y-91468717D02*
X89884171Y-91468717D01*
X89550837Y-92135384D02*
X89550837Y-91468717D01*
X89550837Y-91659193D02*
X89503218Y-91563955D01*
X89503218Y-91563955D02*
X89455599Y-91516336D01*
X89455599Y-91516336D02*
X89360361Y-91468717D01*
X89360361Y-91468717D02*
X89265123Y-91468717D01*
X89027027Y-91468717D02*
X88788932Y-92135384D01*
X88550837Y-91468717D02*
X88788932Y-92135384D01*
X88788932Y-92135384D02*
X88884170Y-92373479D01*
X88884170Y-92373479D02*
X88931789Y-92421098D01*
X88931789Y-92421098D02*
X89027027Y-92468717D01*
X87407979Y-92135384D02*
X87407979Y-91468717D01*
X87407979Y-91659193D02*
X87360360Y-91563955D01*
X87360360Y-91563955D02*
X87312741Y-91516336D01*
X87312741Y-91516336D02*
X87217503Y-91468717D01*
X87217503Y-91468717D02*
X87122265Y-91468717D01*
X86407979Y-92087765D02*
X86503217Y-92135384D01*
X86503217Y-92135384D02*
X86693693Y-92135384D01*
X86693693Y-92135384D02*
X86788931Y-92087765D01*
X86788931Y-92087765D02*
X86836550Y-91992526D01*
X86836550Y-91992526D02*
X86836550Y-91611574D01*
X86836550Y-91611574D02*
X86788931Y-91516336D01*
X86788931Y-91516336D02*
X86693693Y-91468717D01*
X86693693Y-91468717D02*
X86503217Y-91468717D01*
X86503217Y-91468717D02*
X86407979Y-91516336D01*
X86407979Y-91516336D02*
X86360360Y-91611574D01*
X86360360Y-91611574D02*
X86360360Y-91706812D01*
X86360360Y-91706812D02*
X86836550Y-91802050D01*
X86027026Y-91468717D02*
X85788931Y-92135384D01*
X85788931Y-92135384D02*
X85550836Y-91468717D01*
X85217502Y-91230622D02*
X85169883Y-91183003D01*
X85169883Y-91183003D02*
X85074645Y-91135384D01*
X85074645Y-91135384D02*
X84836550Y-91135384D01*
X84836550Y-91135384D02*
X84741312Y-91183003D01*
X84741312Y-91183003D02*
X84693693Y-91230622D01*
X84693693Y-91230622D02*
X84646074Y-91325860D01*
X84646074Y-91325860D02*
X84646074Y-91421098D01*
X84646074Y-91421098D02*
X84693693Y-91563955D01*
X84693693Y-91563955D02*
X85265121Y-92135384D01*
X85265121Y-92135384D02*
X84646074Y-92135384D01*
X84217502Y-92040145D02*
X84169883Y-92087765D01*
X84169883Y-92087765D02*
X84217502Y-92135384D01*
X84217502Y-92135384D02*
X84265121Y-92087765D01*
X84265121Y-92087765D02*
X84217502Y-92040145D01*
X84217502Y-92040145D02*
X84217502Y-92135384D01*
X83550836Y-91135384D02*
X83455598Y-91135384D01*
X83455598Y-91135384D02*
X83360360Y-91183003D01*
X83360360Y-91183003D02*
X83312741Y-91230622D01*
X83312741Y-91230622D02*
X83265122Y-91325860D01*
X83265122Y-91325860D02*
X83217503Y-91516336D01*
X83217503Y-91516336D02*
X83217503Y-91754431D01*
X83217503Y-91754431D02*
X83265122Y-91944907D01*
X83265122Y-91944907D02*
X83312741Y-92040145D01*
X83312741Y-92040145D02*
X83360360Y-92087765D01*
X83360360Y-92087765D02*
X83455598Y-92135384D01*
X83455598Y-92135384D02*
X83550836Y-92135384D01*
X83550836Y-92135384D02*
X83646074Y-92087765D01*
X83646074Y-92087765D02*
X83693693Y-92040145D01*
X83693693Y-92040145D02*
X83741312Y-91944907D01*
X83741312Y-91944907D02*
X83788931Y-91754431D01*
X83788931Y-91754431D02*
X83788931Y-91516336D01*
X83788931Y-91516336D02*
X83741312Y-91325860D01*
X83741312Y-91325860D02*
X83693693Y-91230622D01*
X83693693Y-91230622D02*
X83646074Y-91183003D01*
X83646074Y-91183003D02*
X83550836Y-91135384D01*
X82027026Y-92135384D02*
X82027026Y-91135384D01*
X82027026Y-91516336D02*
X81931788Y-91468717D01*
X81931788Y-91468717D02*
X81741312Y-91468717D01*
X81741312Y-91468717D02*
X81646074Y-91516336D01*
X81646074Y-91516336D02*
X81598455Y-91563955D01*
X81598455Y-91563955D02*
X81550836Y-91659193D01*
X81550836Y-91659193D02*
X81550836Y-91944907D01*
X81550836Y-91944907D02*
X81598455Y-92040145D01*
X81598455Y-92040145D02*
X81646074Y-92087765D01*
X81646074Y-92087765D02*
X81741312Y-92135384D01*
X81741312Y-92135384D02*
X81931788Y-92135384D01*
X81931788Y-92135384D02*
X82027026Y-92087765D01*
X81217502Y-91468717D02*
X80979407Y-92135384D01*
X80741312Y-91468717D02*
X80979407Y-92135384D01*
X80979407Y-92135384D02*
X81074645Y-92373479D01*
X81074645Y-92373479D02*
X81122264Y-92421098D01*
X81122264Y-92421098D02*
X81217502Y-92468717D01*
X79598454Y-92135384D02*
X79598454Y-91468717D01*
X79598454Y-91135384D02*
X79646073Y-91183003D01*
X79646073Y-91183003D02*
X79598454Y-91230622D01*
X79598454Y-91230622D02*
X79550835Y-91183003D01*
X79550835Y-91183003D02*
X79598454Y-91135384D01*
X79598454Y-91135384D02*
X79598454Y-91230622D01*
X79169883Y-92087765D02*
X79074645Y-92135384D01*
X79074645Y-92135384D02*
X78884169Y-92135384D01*
X78884169Y-92135384D02*
X78788931Y-92087765D01*
X78788931Y-92087765D02*
X78741312Y-91992526D01*
X78741312Y-91992526D02*
X78741312Y-91944907D01*
X78741312Y-91944907D02*
X78788931Y-91849669D01*
X78788931Y-91849669D02*
X78884169Y-91802050D01*
X78884169Y-91802050D02*
X79027026Y-91802050D01*
X79027026Y-91802050D02*
X79122264Y-91754431D01*
X79122264Y-91754431D02*
X79169883Y-91659193D01*
X79169883Y-91659193D02*
X79169883Y-91611574D01*
X79169883Y-91611574D02*
X79122264Y-91516336D01*
X79122264Y-91516336D02*
X79027026Y-91468717D01*
X79027026Y-91468717D02*
X78884169Y-91468717D01*
X78884169Y-91468717D02*
X78788931Y-91516336D01*
X78312740Y-91468717D02*
X78312740Y-92468717D01*
X78312740Y-91516336D02*
X78217502Y-91468717D01*
X78217502Y-91468717D02*
X78027026Y-91468717D01*
X78027026Y-91468717D02*
X77931788Y-91516336D01*
X77931788Y-91516336D02*
X77884169Y-91563955D01*
X77884169Y-91563955D02*
X77836550Y-91659193D01*
X77836550Y-91659193D02*
X77836550Y-91944907D01*
X77836550Y-91944907D02*
X77884169Y-92040145D01*
X77884169Y-92040145D02*
X77931788Y-92087765D01*
X77931788Y-92087765D02*
X78027026Y-92135384D01*
X78027026Y-92135384D02*
X78217502Y-92135384D01*
X78217502Y-92135384D02*
X78312740Y-92087765D01*
X94931790Y-93745384D02*
X94931790Y-93078717D01*
X94931790Y-92745384D02*
X94979409Y-92793003D01*
X94979409Y-92793003D02*
X94931790Y-92840622D01*
X94931790Y-92840622D02*
X94884171Y-92793003D01*
X94884171Y-92793003D02*
X94931790Y-92745384D01*
X94931790Y-92745384D02*
X94931790Y-92840622D01*
X94455600Y-93078717D02*
X94455600Y-93745384D01*
X94455600Y-93173955D02*
X94407981Y-93126336D01*
X94407981Y-93126336D02*
X94312743Y-93078717D01*
X94312743Y-93078717D02*
X94169886Y-93078717D01*
X94169886Y-93078717D02*
X94074648Y-93126336D01*
X94074648Y-93126336D02*
X94027029Y-93221574D01*
X94027029Y-93221574D02*
X94027029Y-93745384D01*
X93598457Y-93697765D02*
X93503219Y-93745384D01*
X93503219Y-93745384D02*
X93312743Y-93745384D01*
X93312743Y-93745384D02*
X93217505Y-93697765D01*
X93217505Y-93697765D02*
X93169886Y-93602526D01*
X93169886Y-93602526D02*
X93169886Y-93554907D01*
X93169886Y-93554907D02*
X93217505Y-93459669D01*
X93217505Y-93459669D02*
X93312743Y-93412050D01*
X93312743Y-93412050D02*
X93455600Y-93412050D01*
X93455600Y-93412050D02*
X93550838Y-93364431D01*
X93550838Y-93364431D02*
X93598457Y-93269193D01*
X93598457Y-93269193D02*
X93598457Y-93221574D01*
X93598457Y-93221574D02*
X93550838Y-93126336D01*
X93550838Y-93126336D02*
X93455600Y-93078717D01*
X93455600Y-93078717D02*
X93312743Y-93078717D01*
X93312743Y-93078717D02*
X93217505Y-93126336D01*
X92741314Y-93078717D02*
X92741314Y-94078717D01*
X92741314Y-93126336D02*
X92646076Y-93078717D01*
X92646076Y-93078717D02*
X92455600Y-93078717D01*
X92455600Y-93078717D02*
X92360362Y-93126336D01*
X92360362Y-93126336D02*
X92312743Y-93173955D01*
X92312743Y-93173955D02*
X92265124Y-93269193D01*
X92265124Y-93269193D02*
X92265124Y-93554907D01*
X92265124Y-93554907D02*
X92312743Y-93650145D01*
X92312743Y-93650145D02*
X92360362Y-93697765D01*
X92360362Y-93697765D02*
X92455600Y-93745384D01*
X92455600Y-93745384D02*
X92646076Y-93745384D01*
X92646076Y-93745384D02*
X92741314Y-93697765D01*
X91836552Y-93745384D02*
X91836552Y-93078717D01*
X91836552Y-92745384D02*
X91884171Y-92793003D01*
X91884171Y-92793003D02*
X91836552Y-92840622D01*
X91836552Y-92840622D02*
X91788933Y-92793003D01*
X91788933Y-92793003D02*
X91836552Y-92745384D01*
X91836552Y-92745384D02*
X91836552Y-92840622D01*
X91360362Y-93745384D02*
X91360362Y-93078717D01*
X91360362Y-93269193D02*
X91312743Y-93173955D01*
X91312743Y-93173955D02*
X91265124Y-93126336D01*
X91265124Y-93126336D02*
X91169886Y-93078717D01*
X91169886Y-93078717D02*
X91074648Y-93078717D01*
X90360362Y-93697765D02*
X90455600Y-93745384D01*
X90455600Y-93745384D02*
X90646076Y-93745384D01*
X90646076Y-93745384D02*
X90741314Y-93697765D01*
X90741314Y-93697765D02*
X90788933Y-93602526D01*
X90788933Y-93602526D02*
X90788933Y-93221574D01*
X90788933Y-93221574D02*
X90741314Y-93126336D01*
X90741314Y-93126336D02*
X90646076Y-93078717D01*
X90646076Y-93078717D02*
X90455600Y-93078717D01*
X90455600Y-93078717D02*
X90360362Y-93126336D01*
X90360362Y-93126336D02*
X90312743Y-93221574D01*
X90312743Y-93221574D02*
X90312743Y-93316812D01*
X90312743Y-93316812D02*
X90788933Y-93412050D01*
X89455600Y-93745384D02*
X89455600Y-92745384D01*
X89455600Y-93697765D02*
X89550838Y-93745384D01*
X89550838Y-93745384D02*
X89741314Y-93745384D01*
X89741314Y-93745384D02*
X89836552Y-93697765D01*
X89836552Y-93697765D02*
X89884171Y-93650145D01*
X89884171Y-93650145D02*
X89931790Y-93554907D01*
X89931790Y-93554907D02*
X89931790Y-93269193D01*
X89931790Y-93269193D02*
X89884171Y-93173955D01*
X89884171Y-93173955D02*
X89836552Y-93126336D01*
X89836552Y-93126336D02*
X89741314Y-93078717D01*
X89741314Y-93078717D02*
X89550838Y-93078717D01*
X89550838Y-93078717D02*
X89455600Y-93126336D01*
X88360361Y-93078717D02*
X87979409Y-93078717D01*
X88217504Y-93745384D02*
X88217504Y-92888241D01*
X88217504Y-92888241D02*
X88169885Y-92793003D01*
X88169885Y-92793003D02*
X88074647Y-92745384D01*
X88074647Y-92745384D02*
X87979409Y-92745384D01*
X87646075Y-93745384D02*
X87646075Y-93078717D01*
X87646075Y-93269193D02*
X87598456Y-93173955D01*
X87598456Y-93173955D02*
X87550837Y-93126336D01*
X87550837Y-93126336D02*
X87455599Y-93078717D01*
X87455599Y-93078717D02*
X87360361Y-93078717D01*
X86884170Y-93745384D02*
X86979408Y-93697765D01*
X86979408Y-93697765D02*
X87027027Y-93650145D01*
X87027027Y-93650145D02*
X87074646Y-93554907D01*
X87074646Y-93554907D02*
X87074646Y-93269193D01*
X87074646Y-93269193D02*
X87027027Y-93173955D01*
X87027027Y-93173955D02*
X86979408Y-93126336D01*
X86979408Y-93126336D02*
X86884170Y-93078717D01*
X86884170Y-93078717D02*
X86741313Y-93078717D01*
X86741313Y-93078717D02*
X86646075Y-93126336D01*
X86646075Y-93126336D02*
X86598456Y-93173955D01*
X86598456Y-93173955D02*
X86550837Y-93269193D01*
X86550837Y-93269193D02*
X86550837Y-93554907D01*
X86550837Y-93554907D02*
X86598456Y-93650145D01*
X86598456Y-93650145D02*
X86646075Y-93697765D01*
X86646075Y-93697765D02*
X86741313Y-93745384D01*
X86741313Y-93745384D02*
X86884170Y-93745384D01*
X86122265Y-93745384D02*
X86122265Y-93078717D01*
X86122265Y-93173955D02*
X86074646Y-93126336D01*
X86074646Y-93126336D02*
X85979408Y-93078717D01*
X85979408Y-93078717D02*
X85836551Y-93078717D01*
X85836551Y-93078717D02*
X85741313Y-93126336D01*
X85741313Y-93126336D02*
X85693694Y-93221574D01*
X85693694Y-93221574D02*
X85693694Y-93745384D01*
X85693694Y-93221574D02*
X85646075Y-93126336D01*
X85646075Y-93126336D02*
X85550837Y-93078717D01*
X85550837Y-93078717D02*
X85407980Y-93078717D01*
X85407980Y-93078717D02*
X85312741Y-93126336D01*
X85312741Y-93126336D02*
X85265122Y-93221574D01*
X85265122Y-93221574D02*
X85265122Y-93745384D01*
X83360361Y-93840622D02*
X83455599Y-93793003D01*
X83455599Y-93793003D02*
X83550837Y-93697765D01*
X83550837Y-93697765D02*
X83693694Y-93554907D01*
X83693694Y-93554907D02*
X83788932Y-93507288D01*
X83788932Y-93507288D02*
X83884170Y-93507288D01*
X83836551Y-93745384D02*
X83931789Y-93697765D01*
X83931789Y-93697765D02*
X84027027Y-93602526D01*
X84027027Y-93602526D02*
X84074646Y-93412050D01*
X84074646Y-93412050D02*
X84074646Y-93078717D01*
X84074646Y-93078717D02*
X84027027Y-92888241D01*
X84027027Y-92888241D02*
X83931789Y-92793003D01*
X83931789Y-92793003D02*
X83836551Y-92745384D01*
X83836551Y-92745384D02*
X83646075Y-92745384D01*
X83646075Y-92745384D02*
X83550837Y-92793003D01*
X83550837Y-92793003D02*
X83455599Y-92888241D01*
X83455599Y-92888241D02*
X83407980Y-93078717D01*
X83407980Y-93078717D02*
X83407980Y-93412050D01*
X83407980Y-93412050D02*
X83455599Y-93602526D01*
X83455599Y-93602526D02*
X83550837Y-93697765D01*
X83550837Y-93697765D02*
X83646075Y-93745384D01*
X83646075Y-93745384D02*
X83836551Y-93745384D01*
X82979408Y-93221574D02*
X82646075Y-93221574D01*
X82503218Y-93745384D02*
X82979408Y-93745384D01*
X82979408Y-93745384D02*
X82979408Y-92745384D01*
X82979408Y-92745384D02*
X82503218Y-92745384D01*
X82169884Y-92745384D02*
X81503218Y-92745384D01*
X81503218Y-92745384D02*
X82169884Y-93745384D01*
X82169884Y-93745384D02*
X81503218Y-93745384D01*
X80360360Y-93745384D02*
X80360360Y-92745384D01*
X80360360Y-93126336D02*
X80265122Y-93078717D01*
X80265122Y-93078717D02*
X80074646Y-93078717D01*
X80074646Y-93078717D02*
X79979408Y-93126336D01*
X79979408Y-93126336D02*
X79931789Y-93173955D01*
X79931789Y-93173955D02*
X79884170Y-93269193D01*
X79884170Y-93269193D02*
X79884170Y-93554907D01*
X79884170Y-93554907D02*
X79931789Y-93650145D01*
X79931789Y-93650145D02*
X79979408Y-93697765D01*
X79979408Y-93697765D02*
X80074646Y-93745384D01*
X80074646Y-93745384D02*
X80265122Y-93745384D01*
X80265122Y-93745384D02*
X80360360Y-93697765D01*
X79550836Y-93078717D02*
X79312741Y-93745384D01*
X79074646Y-93078717D02*
X79312741Y-93745384D01*
X79312741Y-93745384D02*
X79407979Y-93983479D01*
X79407979Y-93983479D02*
X79455598Y-94031098D01*
X79455598Y-94031098D02*
X79550836Y-94078717D01*
X77550836Y-93697765D02*
X77646074Y-93745384D01*
X77646074Y-93745384D02*
X77836550Y-93745384D01*
X77836550Y-93745384D02*
X77931788Y-93697765D01*
X77931788Y-93697765D02*
X77979407Y-93602526D01*
X77979407Y-93602526D02*
X77979407Y-93221574D01*
X77979407Y-93221574D02*
X77931788Y-93126336D01*
X77931788Y-93126336D02*
X77836550Y-93078717D01*
X77836550Y-93078717D02*
X77646074Y-93078717D01*
X77646074Y-93078717D02*
X77550836Y-93126336D01*
X77550836Y-93126336D02*
X77503217Y-93221574D01*
X77503217Y-93221574D02*
X77503217Y-93316812D01*
X77503217Y-93316812D02*
X77979407Y-93412050D01*
X76931788Y-93745384D02*
X77027026Y-93697765D01*
X77027026Y-93697765D02*
X77074645Y-93602526D01*
X77074645Y-93602526D02*
X77074645Y-92745384D01*
X76550835Y-93745384D02*
X76550835Y-93078717D01*
X76550835Y-93173955D02*
X76503216Y-93126336D01*
X76503216Y-93126336D02*
X76407978Y-93078717D01*
X76407978Y-93078717D02*
X76265121Y-93078717D01*
X76265121Y-93078717D02*
X76169883Y-93126336D01*
X76169883Y-93126336D02*
X76122264Y-93221574D01*
X76122264Y-93221574D02*
X76122264Y-93745384D01*
X76122264Y-93221574D02*
X76074645Y-93126336D01*
X76074645Y-93126336D02*
X75979407Y-93078717D01*
X75979407Y-93078717D02*
X75836550Y-93078717D01*
X75836550Y-93078717D02*
X75741311Y-93126336D01*
X75741311Y-93126336D02*
X75693692Y-93221574D01*
X75693692Y-93221574D02*
X75693692Y-93745384D01*
X75074645Y-93745384D02*
X75169883Y-93697765D01*
X75169883Y-93697765D02*
X75217502Y-93650145D01*
X75217502Y-93650145D02*
X75265121Y-93554907D01*
X75265121Y-93554907D02*
X75265121Y-93269193D01*
X75265121Y-93269193D02*
X75217502Y-93173955D01*
X75217502Y-93173955D02*
X75169883Y-93126336D01*
X75169883Y-93126336D02*
X75074645Y-93078717D01*
X75074645Y-93078717D02*
X74931788Y-93078717D01*
X74931788Y-93078717D02*
X74836550Y-93126336D01*
X74836550Y-93126336D02*
X74788931Y-93173955D01*
X74788931Y-93173955D02*
X74741312Y-93269193D01*
X74741312Y-93269193D02*
X74741312Y-93554907D01*
X74741312Y-93554907D02*
X74788931Y-93650145D01*
X74788931Y-93650145D02*
X74836550Y-93697765D01*
X74836550Y-93697765D02*
X74931788Y-93745384D01*
X74931788Y-93745384D02*
X75074645Y-93745384D01*
X94503219Y-95355384D02*
X94503219Y-94355384D01*
X94503219Y-95307765D02*
X94598457Y-95355384D01*
X94598457Y-95355384D02*
X94788933Y-95355384D01*
X94788933Y-95355384D02*
X94884171Y-95307765D01*
X94884171Y-95307765D02*
X94931790Y-95260145D01*
X94931790Y-95260145D02*
X94979409Y-95164907D01*
X94979409Y-95164907D02*
X94979409Y-94879193D01*
X94979409Y-94879193D02*
X94931790Y-94783955D01*
X94931790Y-94783955D02*
X94884171Y-94736336D01*
X94884171Y-94736336D02*
X94788933Y-94688717D01*
X94788933Y-94688717D02*
X94598457Y-94688717D01*
X94598457Y-94688717D02*
X94503219Y-94736336D01*
X93646076Y-95307765D02*
X93741314Y-95355384D01*
X93741314Y-95355384D02*
X93931790Y-95355384D01*
X93931790Y-95355384D02*
X94027028Y-95307765D01*
X94027028Y-95307765D02*
X94074647Y-95212526D01*
X94074647Y-95212526D02*
X94074647Y-94831574D01*
X94074647Y-94831574D02*
X94027028Y-94736336D01*
X94027028Y-94736336D02*
X93931790Y-94688717D01*
X93931790Y-94688717D02*
X93741314Y-94688717D01*
X93741314Y-94688717D02*
X93646076Y-94736336D01*
X93646076Y-94736336D02*
X93598457Y-94831574D01*
X93598457Y-94831574D02*
X93598457Y-94926812D01*
X93598457Y-94926812D02*
X94074647Y-95022050D01*
X93217504Y-95307765D02*
X93122266Y-95355384D01*
X93122266Y-95355384D02*
X92931790Y-95355384D01*
X92931790Y-95355384D02*
X92836552Y-95307765D01*
X92836552Y-95307765D02*
X92788933Y-95212526D01*
X92788933Y-95212526D02*
X92788933Y-95164907D01*
X92788933Y-95164907D02*
X92836552Y-95069669D01*
X92836552Y-95069669D02*
X92931790Y-95022050D01*
X92931790Y-95022050D02*
X93074647Y-95022050D01*
X93074647Y-95022050D02*
X93169885Y-94974431D01*
X93169885Y-94974431D02*
X93217504Y-94879193D01*
X93217504Y-94879193D02*
X93217504Y-94831574D01*
X93217504Y-94831574D02*
X93169885Y-94736336D01*
X93169885Y-94736336D02*
X93074647Y-94688717D01*
X93074647Y-94688717D02*
X92931790Y-94688717D01*
X92931790Y-94688717D02*
X92836552Y-94736336D01*
X92360361Y-95355384D02*
X92360361Y-94688717D01*
X92360361Y-94355384D02*
X92407980Y-94403003D01*
X92407980Y-94403003D02*
X92360361Y-94450622D01*
X92360361Y-94450622D02*
X92312742Y-94403003D01*
X92312742Y-94403003D02*
X92360361Y-94355384D01*
X92360361Y-94355384D02*
X92360361Y-94450622D01*
X91455600Y-94688717D02*
X91455600Y-95498241D01*
X91455600Y-95498241D02*
X91503219Y-95593479D01*
X91503219Y-95593479D02*
X91550838Y-95641098D01*
X91550838Y-95641098D02*
X91646076Y-95688717D01*
X91646076Y-95688717D02*
X91788933Y-95688717D01*
X91788933Y-95688717D02*
X91884171Y-95641098D01*
X91455600Y-95307765D02*
X91550838Y-95355384D01*
X91550838Y-95355384D02*
X91741314Y-95355384D01*
X91741314Y-95355384D02*
X91836552Y-95307765D01*
X91836552Y-95307765D02*
X91884171Y-95260145D01*
X91884171Y-95260145D02*
X91931790Y-95164907D01*
X91931790Y-95164907D02*
X91931790Y-94879193D01*
X91931790Y-94879193D02*
X91884171Y-94783955D01*
X91884171Y-94783955D02*
X91836552Y-94736336D01*
X91836552Y-94736336D02*
X91741314Y-94688717D01*
X91741314Y-94688717D02*
X91550838Y-94688717D01*
X91550838Y-94688717D02*
X91455600Y-94736336D01*
X90979409Y-94688717D02*
X90979409Y-95355384D01*
X90979409Y-94783955D02*
X90931790Y-94736336D01*
X90931790Y-94736336D02*
X90836552Y-94688717D01*
X90836552Y-94688717D02*
X90693695Y-94688717D01*
X90693695Y-94688717D02*
X90598457Y-94736336D01*
X90598457Y-94736336D02*
X90550838Y-94831574D01*
X90550838Y-94831574D02*
X90550838Y-95355384D01*
X88931790Y-95307765D02*
X89027028Y-95355384D01*
X89027028Y-95355384D02*
X89217504Y-95355384D01*
X89217504Y-95355384D02*
X89312742Y-95307765D01*
X89312742Y-95307765D02*
X89360361Y-95212526D01*
X89360361Y-95212526D02*
X89360361Y-94831574D01*
X89360361Y-94831574D02*
X89312742Y-94736336D01*
X89312742Y-94736336D02*
X89217504Y-94688717D01*
X89217504Y-94688717D02*
X89027028Y-94688717D01*
X89027028Y-94688717D02*
X88931790Y-94736336D01*
X88931790Y-94736336D02*
X88884171Y-94831574D01*
X88884171Y-94831574D02*
X88884171Y-94926812D01*
X88884171Y-94926812D02*
X89360361Y-95022050D01*
X88312742Y-95355384D02*
X88407980Y-95307765D01*
X88407980Y-95307765D02*
X88455599Y-95212526D01*
X88455599Y-95212526D02*
X88455599Y-94355384D01*
X87550837Y-95307765D02*
X87646075Y-95355384D01*
X87646075Y-95355384D02*
X87836551Y-95355384D01*
X87836551Y-95355384D02*
X87931789Y-95307765D01*
X87931789Y-95307765D02*
X87979408Y-95212526D01*
X87979408Y-95212526D02*
X87979408Y-94831574D01*
X87979408Y-94831574D02*
X87931789Y-94736336D01*
X87931789Y-94736336D02*
X87836551Y-94688717D01*
X87836551Y-94688717D02*
X87646075Y-94688717D01*
X87646075Y-94688717D02*
X87550837Y-94736336D01*
X87550837Y-94736336D02*
X87503218Y-94831574D01*
X87503218Y-94831574D02*
X87503218Y-94926812D01*
X87503218Y-94926812D02*
X87979408Y-95022050D01*
X87074646Y-95355384D02*
X87074646Y-94688717D01*
X87074646Y-94783955D02*
X87027027Y-94736336D01*
X87027027Y-94736336D02*
X86931789Y-94688717D01*
X86931789Y-94688717D02*
X86788932Y-94688717D01*
X86788932Y-94688717D02*
X86693694Y-94736336D01*
X86693694Y-94736336D02*
X86646075Y-94831574D01*
X86646075Y-94831574D02*
X86646075Y-95355384D01*
X86646075Y-94831574D02*
X86598456Y-94736336D01*
X86598456Y-94736336D02*
X86503218Y-94688717D01*
X86503218Y-94688717D02*
X86360361Y-94688717D01*
X86360361Y-94688717D02*
X86265122Y-94736336D01*
X86265122Y-94736336D02*
X86217503Y-94831574D01*
X86217503Y-94831574D02*
X86217503Y-95355384D01*
X85360361Y-95307765D02*
X85455599Y-95355384D01*
X85455599Y-95355384D02*
X85646075Y-95355384D01*
X85646075Y-95355384D02*
X85741313Y-95307765D01*
X85741313Y-95307765D02*
X85788932Y-95212526D01*
X85788932Y-95212526D02*
X85788932Y-94831574D01*
X85788932Y-94831574D02*
X85741313Y-94736336D01*
X85741313Y-94736336D02*
X85646075Y-94688717D01*
X85646075Y-94688717D02*
X85455599Y-94688717D01*
X85455599Y-94688717D02*
X85360361Y-94736336D01*
X85360361Y-94736336D02*
X85312742Y-94831574D01*
X85312742Y-94831574D02*
X85312742Y-94926812D01*
X85312742Y-94926812D02*
X85788932Y-95022050D01*
X84884170Y-94688717D02*
X84884170Y-95355384D01*
X84884170Y-94783955D02*
X84836551Y-94736336D01*
X84836551Y-94736336D02*
X84741313Y-94688717D01*
X84741313Y-94688717D02*
X84598456Y-94688717D01*
X84598456Y-94688717D02*
X84503218Y-94736336D01*
X84503218Y-94736336D02*
X84455599Y-94831574D01*
X84455599Y-94831574D02*
X84455599Y-95355384D01*
X84122265Y-94688717D02*
X83741313Y-94688717D01*
X83979408Y-94355384D02*
X83979408Y-95212526D01*
X83979408Y-95212526D02*
X83931789Y-95307765D01*
X83931789Y-95307765D02*
X83836551Y-95355384D01*
X83836551Y-95355384D02*
X83741313Y-95355384D01*
X83455598Y-95307765D02*
X83360360Y-95355384D01*
X83360360Y-95355384D02*
X83169884Y-95355384D01*
X83169884Y-95355384D02*
X83074646Y-95307765D01*
X83074646Y-95307765D02*
X83027027Y-95212526D01*
X83027027Y-95212526D02*
X83027027Y-95164907D01*
X83027027Y-95164907D02*
X83074646Y-95069669D01*
X83074646Y-95069669D02*
X83169884Y-95022050D01*
X83169884Y-95022050D02*
X83312741Y-95022050D01*
X83312741Y-95022050D02*
X83407979Y-94974431D01*
X83407979Y-94974431D02*
X83455598Y-94879193D01*
X83455598Y-94879193D02*
X83455598Y-94831574D01*
X83455598Y-94831574D02*
X83407979Y-94736336D01*
X83407979Y-94736336D02*
X83312741Y-94688717D01*
X83312741Y-94688717D02*
X83169884Y-94688717D01*
X83169884Y-94688717D02*
X83074646Y-94736336D01*
X81836550Y-95355384D02*
X81836550Y-94355384D01*
X81836550Y-94736336D02*
X81741312Y-94688717D01*
X81741312Y-94688717D02*
X81550836Y-94688717D01*
X81550836Y-94688717D02*
X81455598Y-94736336D01*
X81455598Y-94736336D02*
X81407979Y-94783955D01*
X81407979Y-94783955D02*
X81360360Y-94879193D01*
X81360360Y-94879193D02*
X81360360Y-95164907D01*
X81360360Y-95164907D02*
X81407979Y-95260145D01*
X81407979Y-95260145D02*
X81455598Y-95307765D01*
X81455598Y-95307765D02*
X81550836Y-95355384D01*
X81550836Y-95355384D02*
X81741312Y-95355384D01*
X81741312Y-95355384D02*
X81836550Y-95307765D01*
X81027026Y-94688717D02*
X80788931Y-95355384D01*
X80550836Y-94688717D02*
X80788931Y-95355384D01*
X80788931Y-95355384D02*
X80884169Y-95593479D01*
X80884169Y-95593479D02*
X80931788Y-95641098D01*
X80931788Y-95641098D02*
X81027026Y-95688717D01*
X79407978Y-95355384D02*
X79407978Y-94355384D01*
X79407978Y-94736336D02*
X79312740Y-94688717D01*
X79312740Y-94688717D02*
X79122264Y-94688717D01*
X79122264Y-94688717D02*
X79027026Y-94736336D01*
X79027026Y-94736336D02*
X78979407Y-94783955D01*
X78979407Y-94783955D02*
X78931788Y-94879193D01*
X78931788Y-94879193D02*
X78931788Y-95164907D01*
X78931788Y-95164907D02*
X78979407Y-95260145D01*
X78979407Y-95260145D02*
X79027026Y-95307765D01*
X79027026Y-95307765D02*
X79122264Y-95355384D01*
X79122264Y-95355384D02*
X79312740Y-95355384D01*
X79312740Y-95355384D02*
X79407978Y-95307765D01*
X78074645Y-94688717D02*
X78074645Y-95355384D01*
X78503216Y-94688717D02*
X78503216Y-95212526D01*
X78503216Y-95212526D02*
X78455597Y-95307765D01*
X78455597Y-95307765D02*
X78360359Y-95355384D01*
X78360359Y-95355384D02*
X78217502Y-95355384D01*
X78217502Y-95355384D02*
X78122264Y-95307765D01*
X78122264Y-95307765D02*
X78074645Y-95260145D01*
X77598454Y-95355384D02*
X77598454Y-94355384D01*
X77598454Y-94736336D02*
X77503216Y-94688717D01*
X77503216Y-94688717D02*
X77312740Y-94688717D01*
X77312740Y-94688717D02*
X77217502Y-94736336D01*
X77217502Y-94736336D02*
X77169883Y-94783955D01*
X77169883Y-94783955D02*
X77122264Y-94879193D01*
X77122264Y-94879193D02*
X77122264Y-95164907D01*
X77122264Y-95164907D02*
X77169883Y-95260145D01*
X77169883Y-95260145D02*
X77217502Y-95307765D01*
X77217502Y-95307765D02*
X77312740Y-95355384D01*
X77312740Y-95355384D02*
X77503216Y-95355384D01*
X77503216Y-95355384D02*
X77598454Y-95307765D01*
X76693692Y-95355384D02*
X76693692Y-94355384D01*
X76693692Y-94736336D02*
X76598454Y-94688717D01*
X76598454Y-94688717D02*
X76407978Y-94688717D01*
X76407978Y-94688717D02*
X76312740Y-94736336D01*
X76312740Y-94736336D02*
X76265121Y-94783955D01*
X76265121Y-94783955D02*
X76217502Y-94879193D01*
X76217502Y-94879193D02*
X76217502Y-95164907D01*
X76217502Y-95164907D02*
X76265121Y-95260145D01*
X76265121Y-95260145D02*
X76312740Y-95307765D01*
X76312740Y-95307765D02*
X76407978Y-95355384D01*
X76407978Y-95355384D02*
X76598454Y-95355384D01*
X76598454Y-95355384D02*
X76693692Y-95307765D01*
X75646073Y-95355384D02*
X75741311Y-95307765D01*
X75741311Y-95307765D02*
X75788930Y-95212526D01*
X75788930Y-95212526D02*
X75788930Y-94355384D01*
X74884168Y-95307765D02*
X74979406Y-95355384D01*
X74979406Y-95355384D02*
X75169882Y-95355384D01*
X75169882Y-95355384D02*
X75265120Y-95307765D01*
X75265120Y-95307765D02*
X75312739Y-95212526D01*
X75312739Y-95212526D02*
X75312739Y-94831574D01*
X75312739Y-94831574D02*
X75265120Y-94736336D01*
X75265120Y-94736336D02*
X75169882Y-94688717D01*
X75169882Y-94688717D02*
X74979406Y-94688717D01*
X74979406Y-94688717D02*
X74884168Y-94736336D01*
X74884168Y-94736336D02*
X74836549Y-94831574D01*
X74836549Y-94831574D02*
X74836549Y-94926812D01*
X74836549Y-94926812D02*
X75312739Y-95022050D01*
X74265120Y-95355384D02*
X74360358Y-95307765D01*
X74360358Y-95307765D02*
X74407977Y-95260145D01*
X74407977Y-95260145D02*
X74455596Y-95164907D01*
X74455596Y-95164907D02*
X74455596Y-94879193D01*
X74455596Y-94879193D02*
X74407977Y-94783955D01*
X74407977Y-94783955D02*
X74360358Y-94736336D01*
X74360358Y-94736336D02*
X74265120Y-94688717D01*
X74265120Y-94688717D02*
X74122263Y-94688717D01*
X74122263Y-94688717D02*
X74027025Y-94736336D01*
X74027025Y-94736336D02*
X73979406Y-94783955D01*
X73979406Y-94783955D02*
X73931787Y-94879193D01*
X73931787Y-94879193D02*
X73931787Y-95164907D01*
X73931787Y-95164907D02*
X73979406Y-95260145D01*
X73979406Y-95260145D02*
X74027025Y-95307765D01*
X74027025Y-95307765D02*
X74122263Y-95355384D01*
X74122263Y-95355384D02*
X74265120Y-95355384D01*
X73360358Y-95355384D02*
X73455596Y-95307765D01*
X73455596Y-95307765D02*
X73503215Y-95212526D01*
X73503215Y-95212526D02*
X73503215Y-94355384D01*
X72836548Y-95355384D02*
X72931786Y-95307765D01*
X72931786Y-95307765D02*
X72979405Y-95260145D01*
X72979405Y-95260145D02*
X73027024Y-95164907D01*
X73027024Y-95164907D02*
X73027024Y-94879193D01*
X73027024Y-94879193D02*
X72979405Y-94783955D01*
X72979405Y-94783955D02*
X72931786Y-94736336D01*
X72931786Y-94736336D02*
X72836548Y-94688717D01*
X72836548Y-94688717D02*
X72693691Y-94688717D01*
X72693691Y-94688717D02*
X72598453Y-94736336D01*
X72598453Y-94736336D02*
X72550834Y-94783955D01*
X72550834Y-94783955D02*
X72503215Y-94879193D01*
X72503215Y-94879193D02*
X72503215Y-95164907D01*
X72503215Y-95164907D02*
X72550834Y-95260145D01*
X72550834Y-95260145D02*
X72598453Y-95307765D01*
X72598453Y-95307765D02*
X72693691Y-95355384D01*
X72693691Y-95355384D02*
X72836548Y-95355384D01*
X71646072Y-94688717D02*
X71646072Y-95498241D01*
X71646072Y-95498241D02*
X71693691Y-95593479D01*
X71693691Y-95593479D02*
X71741310Y-95641098D01*
X71741310Y-95641098D02*
X71836548Y-95688717D01*
X71836548Y-95688717D02*
X71979405Y-95688717D01*
X71979405Y-95688717D02*
X72074643Y-95641098D01*
X71646072Y-95307765D02*
X71741310Y-95355384D01*
X71741310Y-95355384D02*
X71931786Y-95355384D01*
X71931786Y-95355384D02*
X72027024Y-95307765D01*
X72027024Y-95307765D02*
X72074643Y-95260145D01*
X72074643Y-95260145D02*
X72122262Y-95164907D01*
X72122262Y-95164907D02*
X72122262Y-94879193D01*
X72122262Y-94879193D02*
X72074643Y-94783955D01*
X72074643Y-94783955D02*
X72027024Y-94736336D01*
X72027024Y-94736336D02*
X71931786Y-94688717D01*
X71931786Y-94688717D02*
X71741310Y-94688717D01*
X71741310Y-94688717D02*
X71646072Y-94736336D01*
X71265119Y-94688717D02*
X71027024Y-95355384D01*
X70788929Y-94688717D02*
X71027024Y-95355384D01*
X71027024Y-95355384D02*
X71122262Y-95593479D01*
X71122262Y-95593479D02*
X71169881Y-95641098D01*
X71169881Y-95641098D02*
X71265119Y-95688717D01*
X74738094Y-70050819D02*
X74738094Y-69050819D01*
X74738094Y-69050819D02*
X74499999Y-69050819D01*
X74499999Y-69050819D02*
X74357142Y-69098438D01*
X74357142Y-69098438D02*
X74261904Y-69193676D01*
X74261904Y-69193676D02*
X74214285Y-69288914D01*
X74214285Y-69288914D02*
X74166666Y-69479390D01*
X74166666Y-69479390D02*
X74166666Y-69622247D01*
X74166666Y-69622247D02*
X74214285Y-69812723D01*
X74214285Y-69812723D02*
X74261904Y-69907961D01*
X74261904Y-69907961D02*
X74357142Y-70003200D01*
X74357142Y-70003200D02*
X74499999Y-70050819D01*
X74499999Y-70050819D02*
X74738094Y-70050819D01*
X73214285Y-70050819D02*
X73785713Y-70050819D01*
X73499999Y-70050819D02*
X73499999Y-69050819D01*
X73499999Y-69050819D02*
X73595237Y-69193676D01*
X73595237Y-69193676D02*
X73690475Y-69288914D01*
X73690475Y-69288914D02*
X73785713Y-69336533D01*
X112988094Y-70050819D02*
X112988094Y-69050819D01*
X112988094Y-69050819D02*
X112749999Y-69050819D01*
X112749999Y-69050819D02*
X112607142Y-69098438D01*
X112607142Y-69098438D02*
X112511904Y-69193676D01*
X112511904Y-69193676D02*
X112464285Y-69288914D01*
X112464285Y-69288914D02*
X112416666Y-69479390D01*
X112416666Y-69479390D02*
X112416666Y-69622247D01*
X112416666Y-69622247D02*
X112464285Y-69812723D01*
X112464285Y-69812723D02*
X112511904Y-69907961D01*
X112511904Y-69907961D02*
X112607142Y-70003200D01*
X112607142Y-70003200D02*
X112749999Y-70050819D01*
X112749999Y-70050819D02*
X112988094Y-70050819D01*
X112035713Y-69146057D02*
X111988094Y-69098438D01*
X111988094Y-69098438D02*
X111892856Y-69050819D01*
X111892856Y-69050819D02*
X111654761Y-69050819D01*
X111654761Y-69050819D02*
X111559523Y-69098438D01*
X111559523Y-69098438D02*
X111511904Y-69146057D01*
X111511904Y-69146057D02*
X111464285Y-69241295D01*
X111464285Y-69241295D02*
X111464285Y-69336533D01*
X111464285Y-69336533D02*
X111511904Y-69479390D01*
X111511904Y-69479390D02*
X112083332Y-70050819D01*
X112083332Y-70050819D02*
X111464285Y-70050819D01*
X131988094Y-70050819D02*
X131988094Y-69050819D01*
X131988094Y-69050819D02*
X131749999Y-69050819D01*
X131749999Y-69050819D02*
X131607142Y-69098438D01*
X131607142Y-69098438D02*
X131511904Y-69193676D01*
X131511904Y-69193676D02*
X131464285Y-69288914D01*
X131464285Y-69288914D02*
X131416666Y-69479390D01*
X131416666Y-69479390D02*
X131416666Y-69622247D01*
X131416666Y-69622247D02*
X131464285Y-69812723D01*
X131464285Y-69812723D02*
X131511904Y-69907961D01*
X131511904Y-69907961D02*
X131607142Y-70003200D01*
X131607142Y-70003200D02*
X131749999Y-70050819D01*
X131749999Y-70050819D02*
X131988094Y-70050819D01*
X131083332Y-69050819D02*
X130464285Y-69050819D01*
X130464285Y-69050819D02*
X130797618Y-69431771D01*
X130797618Y-69431771D02*
X130654761Y-69431771D01*
X130654761Y-69431771D02*
X130559523Y-69479390D01*
X130559523Y-69479390D02*
X130511904Y-69527009D01*
X130511904Y-69527009D02*
X130464285Y-69622247D01*
X130464285Y-69622247D02*
X130464285Y-69860342D01*
X130464285Y-69860342D02*
X130511904Y-69955580D01*
X130511904Y-69955580D02*
X130559523Y-70003200D01*
X130559523Y-70003200D02*
X130654761Y-70050819D01*
X130654761Y-70050819D02*
X130940475Y-70050819D01*
X130940475Y-70050819D02*
X131035713Y-70003200D01*
X131035713Y-70003200D02*
X131083332Y-69955580D01*
X189238094Y-70114319D02*
X189238094Y-69114319D01*
X189238094Y-69114319D02*
X188999999Y-69114319D01*
X188999999Y-69114319D02*
X188857142Y-69161938D01*
X188857142Y-69161938D02*
X188761904Y-69257176D01*
X188761904Y-69257176D02*
X188714285Y-69352414D01*
X188714285Y-69352414D02*
X188666666Y-69542890D01*
X188666666Y-69542890D02*
X188666666Y-69685747D01*
X188666666Y-69685747D02*
X188714285Y-69876223D01*
X188714285Y-69876223D02*
X188761904Y-69971461D01*
X188761904Y-69971461D02*
X188857142Y-70066700D01*
X188857142Y-70066700D02*
X188999999Y-70114319D01*
X188999999Y-70114319D02*
X189238094Y-70114319D01*
X187809523Y-69447652D02*
X187809523Y-70114319D01*
X188047618Y-69066700D02*
X188285713Y-69780985D01*
X188285713Y-69780985D02*
X187666666Y-69780985D01*
X228238094Y-70114319D02*
X228238094Y-69114319D01*
X228238094Y-69114319D02*
X227999999Y-69114319D01*
X227999999Y-69114319D02*
X227857142Y-69161938D01*
X227857142Y-69161938D02*
X227761904Y-69257176D01*
X227761904Y-69257176D02*
X227714285Y-69352414D01*
X227714285Y-69352414D02*
X227666666Y-69542890D01*
X227666666Y-69542890D02*
X227666666Y-69685747D01*
X227666666Y-69685747D02*
X227714285Y-69876223D01*
X227714285Y-69876223D02*
X227761904Y-69971461D01*
X227761904Y-69971461D02*
X227857142Y-70066700D01*
X227857142Y-70066700D02*
X227999999Y-70114319D01*
X227999999Y-70114319D02*
X228238094Y-70114319D01*
X226761904Y-69114319D02*
X227238094Y-69114319D01*
X227238094Y-69114319D02*
X227285713Y-69590509D01*
X227285713Y-69590509D02*
X227238094Y-69542890D01*
X227238094Y-69542890D02*
X227142856Y-69495271D01*
X227142856Y-69495271D02*
X226904761Y-69495271D01*
X226904761Y-69495271D02*
X226809523Y-69542890D01*
X226809523Y-69542890D02*
X226761904Y-69590509D01*
X226761904Y-69590509D02*
X226714285Y-69685747D01*
X226714285Y-69685747D02*
X226714285Y-69923842D01*
X226714285Y-69923842D02*
X226761904Y-70019080D01*
X226761904Y-70019080D02*
X226809523Y-70066700D01*
X226809523Y-70066700D02*
X226904761Y-70114319D01*
X226904761Y-70114319D02*
X227142856Y-70114319D01*
X227142856Y-70114319D02*
X227238094Y-70066700D01*
X227238094Y-70066700D02*
X227285713Y-70019080D01*
X78488094Y-89100819D02*
X78488094Y-88100819D01*
X78488094Y-88100819D02*
X78249999Y-88100819D01*
X78249999Y-88100819D02*
X78107142Y-88148438D01*
X78107142Y-88148438D02*
X78011904Y-88243676D01*
X78011904Y-88243676D02*
X77964285Y-88338914D01*
X77964285Y-88338914D02*
X77916666Y-88529390D01*
X77916666Y-88529390D02*
X77916666Y-88672247D01*
X77916666Y-88672247D02*
X77964285Y-88862723D01*
X77964285Y-88862723D02*
X78011904Y-88957961D01*
X78011904Y-88957961D02*
X78107142Y-89053200D01*
X78107142Y-89053200D02*
X78249999Y-89100819D01*
X78249999Y-89100819D02*
X78488094Y-89100819D01*
X77059523Y-88100819D02*
X77249999Y-88100819D01*
X77249999Y-88100819D02*
X77345237Y-88148438D01*
X77345237Y-88148438D02*
X77392856Y-88196057D01*
X77392856Y-88196057D02*
X77488094Y-88338914D01*
X77488094Y-88338914D02*
X77535713Y-88529390D01*
X77535713Y-88529390D02*
X77535713Y-88910342D01*
X77535713Y-88910342D02*
X77488094Y-89005580D01*
X77488094Y-89005580D02*
X77440475Y-89053200D01*
X77440475Y-89053200D02*
X77345237Y-89100819D01*
X77345237Y-89100819D02*
X77154761Y-89100819D01*
X77154761Y-89100819D02*
X77059523Y-89053200D01*
X77059523Y-89053200D02*
X77011904Y-89005580D01*
X77011904Y-89005580D02*
X76964285Y-88910342D01*
X76964285Y-88910342D02*
X76964285Y-88672247D01*
X76964285Y-88672247D02*
X77011904Y-88577009D01*
X77011904Y-88577009D02*
X77059523Y-88529390D01*
X77059523Y-88529390D02*
X77154761Y-88481771D01*
X77154761Y-88481771D02*
X77345237Y-88481771D01*
X77345237Y-88481771D02*
X77440475Y-88529390D01*
X77440475Y-88529390D02*
X77488094Y-88577009D01*
X77488094Y-88577009D02*
X77535713Y-88672247D01*
X117738094Y-89100819D02*
X117738094Y-88100819D01*
X117738094Y-88100819D02*
X117499999Y-88100819D01*
X117499999Y-88100819D02*
X117357142Y-88148438D01*
X117357142Y-88148438D02*
X117261904Y-88243676D01*
X117261904Y-88243676D02*
X117214285Y-88338914D01*
X117214285Y-88338914D02*
X117166666Y-88529390D01*
X117166666Y-88529390D02*
X117166666Y-88672247D01*
X117166666Y-88672247D02*
X117214285Y-88862723D01*
X117214285Y-88862723D02*
X117261904Y-88957961D01*
X117261904Y-88957961D02*
X117357142Y-89053200D01*
X117357142Y-89053200D02*
X117499999Y-89100819D01*
X117499999Y-89100819D02*
X117738094Y-89100819D01*
X116833332Y-88100819D02*
X116166666Y-88100819D01*
X116166666Y-88100819D02*
X116595237Y-89100819D01*
X155988094Y-89100819D02*
X155988094Y-88100819D01*
X155988094Y-88100819D02*
X155749999Y-88100819D01*
X155749999Y-88100819D02*
X155607142Y-88148438D01*
X155607142Y-88148438D02*
X155511904Y-88243676D01*
X155511904Y-88243676D02*
X155464285Y-88338914D01*
X155464285Y-88338914D02*
X155416666Y-88529390D01*
X155416666Y-88529390D02*
X155416666Y-88672247D01*
X155416666Y-88672247D02*
X155464285Y-88862723D01*
X155464285Y-88862723D02*
X155511904Y-88957961D01*
X155511904Y-88957961D02*
X155607142Y-89053200D01*
X155607142Y-89053200D02*
X155749999Y-89100819D01*
X155749999Y-89100819D02*
X155988094Y-89100819D01*
X154845237Y-88529390D02*
X154940475Y-88481771D01*
X154940475Y-88481771D02*
X154988094Y-88434152D01*
X154988094Y-88434152D02*
X155035713Y-88338914D01*
X155035713Y-88338914D02*
X155035713Y-88291295D01*
X155035713Y-88291295D02*
X154988094Y-88196057D01*
X154988094Y-88196057D02*
X154940475Y-88148438D01*
X154940475Y-88148438D02*
X154845237Y-88100819D01*
X154845237Y-88100819D02*
X154654761Y-88100819D01*
X154654761Y-88100819D02*
X154559523Y-88148438D01*
X154559523Y-88148438D02*
X154511904Y-88196057D01*
X154511904Y-88196057D02*
X154464285Y-88291295D01*
X154464285Y-88291295D02*
X154464285Y-88338914D01*
X154464285Y-88338914D02*
X154511904Y-88434152D01*
X154511904Y-88434152D02*
X154559523Y-88481771D01*
X154559523Y-88481771D02*
X154654761Y-88529390D01*
X154654761Y-88529390D02*
X154845237Y-88529390D01*
X154845237Y-88529390D02*
X154940475Y-88577009D01*
X154940475Y-88577009D02*
X154988094Y-88624628D01*
X154988094Y-88624628D02*
X155035713Y-88719866D01*
X155035713Y-88719866D02*
X155035713Y-88910342D01*
X155035713Y-88910342D02*
X154988094Y-89005580D01*
X154988094Y-89005580D02*
X154940475Y-89053200D01*
X154940475Y-89053200D02*
X154845237Y-89100819D01*
X154845237Y-89100819D02*
X154654761Y-89100819D01*
X154654761Y-89100819D02*
X154559523Y-89053200D01*
X154559523Y-89053200D02*
X154511904Y-89005580D01*
X154511904Y-89005580D02*
X154464285Y-88910342D01*
X154464285Y-88910342D02*
X154464285Y-88719866D01*
X154464285Y-88719866D02*
X154511904Y-88624628D01*
X154511904Y-88624628D02*
X154559523Y-88577009D01*
X154559523Y-88577009D02*
X154654761Y-88529390D01*
X193979319Y-87907905D02*
X192979319Y-87907905D01*
X192979319Y-87907905D02*
X192979319Y-88146000D01*
X192979319Y-88146000D02*
X193026938Y-88288857D01*
X193026938Y-88288857D02*
X193122176Y-88384095D01*
X193122176Y-88384095D02*
X193217414Y-88431714D01*
X193217414Y-88431714D02*
X193407890Y-88479333D01*
X193407890Y-88479333D02*
X193550747Y-88479333D01*
X193550747Y-88479333D02*
X193741223Y-88431714D01*
X193741223Y-88431714D02*
X193836461Y-88384095D01*
X193836461Y-88384095D02*
X193931700Y-88288857D01*
X193931700Y-88288857D02*
X193979319Y-88146000D01*
X193979319Y-88146000D02*
X193979319Y-87907905D01*
X193979319Y-88955524D02*
X193979319Y-89146000D01*
X193979319Y-89146000D02*
X193931700Y-89241238D01*
X193931700Y-89241238D02*
X193884080Y-89288857D01*
X193884080Y-89288857D02*
X193741223Y-89384095D01*
X193741223Y-89384095D02*
X193550747Y-89431714D01*
X193550747Y-89431714D02*
X193169795Y-89431714D01*
X193169795Y-89431714D02*
X193074557Y-89384095D01*
X193074557Y-89384095D02*
X193026938Y-89336476D01*
X193026938Y-89336476D02*
X192979319Y-89241238D01*
X192979319Y-89241238D02*
X192979319Y-89050762D01*
X192979319Y-89050762D02*
X193026938Y-88955524D01*
X193026938Y-88955524D02*
X193074557Y-88907905D01*
X193074557Y-88907905D02*
X193169795Y-88860286D01*
X193169795Y-88860286D02*
X193407890Y-88860286D01*
X193407890Y-88860286D02*
X193503128Y-88907905D01*
X193503128Y-88907905D02*
X193550747Y-88955524D01*
X193550747Y-88955524D02*
X193598366Y-89050762D01*
X193598366Y-89050762D02*
X193598366Y-89241238D01*
X193598366Y-89241238D02*
X193550747Y-89336476D01*
X193550747Y-89336476D02*
X193503128Y-89384095D01*
X193503128Y-89384095D02*
X193407890Y-89431714D01*
X236161476Y-90926596D02*
X236161476Y-89926596D01*
X236161476Y-89926596D02*
X235923381Y-89926596D01*
X235923381Y-89926596D02*
X235780524Y-89974215D01*
X235780524Y-89974215D02*
X235685286Y-90069453D01*
X235685286Y-90069453D02*
X235637667Y-90164691D01*
X235637667Y-90164691D02*
X235590048Y-90355167D01*
X235590048Y-90355167D02*
X235590048Y-90498024D01*
X235590048Y-90498024D02*
X235637667Y-90688500D01*
X235637667Y-90688500D02*
X235685286Y-90783738D01*
X235685286Y-90783738D02*
X235780524Y-90878977D01*
X235780524Y-90878977D02*
X235923381Y-90926596D01*
X235923381Y-90926596D02*
X236161476Y-90926596D01*
X234637667Y-90926596D02*
X235209095Y-90926596D01*
X234923381Y-90926596D02*
X234923381Y-89926596D01*
X234923381Y-89926596D02*
X235018619Y-90069453D01*
X235018619Y-90069453D02*
X235113857Y-90164691D01*
X235113857Y-90164691D02*
X235209095Y-90212310D01*
X234018619Y-89926596D02*
X233923381Y-89926596D01*
X233923381Y-89926596D02*
X233828143Y-89974215D01*
X233828143Y-89974215D02*
X233780524Y-90021834D01*
X233780524Y-90021834D02*
X233732905Y-90117072D01*
X233732905Y-90117072D02*
X233685286Y-90307548D01*
X233685286Y-90307548D02*
X233685286Y-90545643D01*
X233685286Y-90545643D02*
X233732905Y-90736119D01*
X233732905Y-90736119D02*
X233780524Y-90831357D01*
X233780524Y-90831357D02*
X233828143Y-90878977D01*
X233828143Y-90878977D02*
X233923381Y-90926596D01*
X233923381Y-90926596D02*
X234018619Y-90926596D01*
X234018619Y-90926596D02*
X234113857Y-90878977D01*
X234113857Y-90878977D02*
X234161476Y-90831357D01*
X234161476Y-90831357D02*
X234209095Y-90736119D01*
X234209095Y-90736119D02*
X234256714Y-90545643D01*
X234256714Y-90545643D02*
X234256714Y-90307548D01*
X234256714Y-90307548D02*
X234209095Y-90117072D01*
X234209095Y-90117072D02*
X234161476Y-90021834D01*
X234161476Y-90021834D02*
X234113857Y-89974215D01*
X234113857Y-89974215D02*
X234018619Y-89926596D01*
X85714285Y-108531819D02*
X85714285Y-107531819D01*
X85714285Y-107531819D02*
X85476190Y-107531819D01*
X85476190Y-107531819D02*
X85333333Y-107579438D01*
X85333333Y-107579438D02*
X85238095Y-107674676D01*
X85238095Y-107674676D02*
X85190476Y-107769914D01*
X85190476Y-107769914D02*
X85142857Y-107960390D01*
X85142857Y-107960390D02*
X85142857Y-108103247D01*
X85142857Y-108103247D02*
X85190476Y-108293723D01*
X85190476Y-108293723D02*
X85238095Y-108388961D01*
X85238095Y-108388961D02*
X85333333Y-108484200D01*
X85333333Y-108484200D02*
X85476190Y-108531819D01*
X85476190Y-108531819D02*
X85714285Y-108531819D01*
X84190476Y-108531819D02*
X84761904Y-108531819D01*
X84476190Y-108531819D02*
X84476190Y-107531819D01*
X84476190Y-107531819D02*
X84571428Y-107674676D01*
X84571428Y-107674676D02*
X84666666Y-107769914D01*
X84666666Y-107769914D02*
X84761904Y-107817533D01*
X83238095Y-108531819D02*
X83809523Y-108531819D01*
X83523809Y-108531819D02*
X83523809Y-107531819D01*
X83523809Y-107531819D02*
X83619047Y-107674676D01*
X83619047Y-107674676D02*
X83714285Y-107769914D01*
X83714285Y-107769914D02*
X83809523Y-107817533D01*
X108214285Y-108454819D02*
X108214285Y-107454819D01*
X108214285Y-107454819D02*
X107976190Y-107454819D01*
X107976190Y-107454819D02*
X107833333Y-107502438D01*
X107833333Y-107502438D02*
X107738095Y-107597676D01*
X107738095Y-107597676D02*
X107690476Y-107692914D01*
X107690476Y-107692914D02*
X107642857Y-107883390D01*
X107642857Y-107883390D02*
X107642857Y-108026247D01*
X107642857Y-108026247D02*
X107690476Y-108216723D01*
X107690476Y-108216723D02*
X107738095Y-108311961D01*
X107738095Y-108311961D02*
X107833333Y-108407200D01*
X107833333Y-108407200D02*
X107976190Y-108454819D01*
X107976190Y-108454819D02*
X108214285Y-108454819D01*
X106690476Y-108454819D02*
X107261904Y-108454819D01*
X106976190Y-108454819D02*
X106976190Y-107454819D01*
X106976190Y-107454819D02*
X107071428Y-107597676D01*
X107071428Y-107597676D02*
X107166666Y-107692914D01*
X107166666Y-107692914D02*
X107261904Y-107740533D01*
X106309523Y-107550057D02*
X106261904Y-107502438D01*
X106261904Y-107502438D02*
X106166666Y-107454819D01*
X106166666Y-107454819D02*
X105928571Y-107454819D01*
X105928571Y-107454819D02*
X105833333Y-107502438D01*
X105833333Y-107502438D02*
X105785714Y-107550057D01*
X105785714Y-107550057D02*
X105738095Y-107645295D01*
X105738095Y-107645295D02*
X105738095Y-107740533D01*
X105738095Y-107740533D02*
X105785714Y-107883390D01*
X105785714Y-107883390D02*
X106357142Y-108454819D01*
X106357142Y-108454819D02*
X105738095Y-108454819D01*
X146214285Y-108531819D02*
X146214285Y-107531819D01*
X146214285Y-107531819D02*
X145976190Y-107531819D01*
X145976190Y-107531819D02*
X145833333Y-107579438D01*
X145833333Y-107579438D02*
X145738095Y-107674676D01*
X145738095Y-107674676D02*
X145690476Y-107769914D01*
X145690476Y-107769914D02*
X145642857Y-107960390D01*
X145642857Y-107960390D02*
X145642857Y-108103247D01*
X145642857Y-108103247D02*
X145690476Y-108293723D01*
X145690476Y-108293723D02*
X145738095Y-108388961D01*
X145738095Y-108388961D02*
X145833333Y-108484200D01*
X145833333Y-108484200D02*
X145976190Y-108531819D01*
X145976190Y-108531819D02*
X146214285Y-108531819D01*
X144690476Y-108531819D02*
X145261904Y-108531819D01*
X144976190Y-108531819D02*
X144976190Y-107531819D01*
X144976190Y-107531819D02*
X145071428Y-107674676D01*
X145071428Y-107674676D02*
X145166666Y-107769914D01*
X145166666Y-107769914D02*
X145261904Y-107817533D01*
X144357142Y-107531819D02*
X143738095Y-107531819D01*
X143738095Y-107531819D02*
X144071428Y-107912771D01*
X144071428Y-107912771D02*
X143928571Y-107912771D01*
X143928571Y-107912771D02*
X143833333Y-107960390D01*
X143833333Y-107960390D02*
X143785714Y-108008009D01*
X143785714Y-108008009D02*
X143738095Y-108103247D01*
X143738095Y-108103247D02*
X143738095Y-108341342D01*
X143738095Y-108341342D02*
X143785714Y-108436580D01*
X143785714Y-108436580D02*
X143833333Y-108484200D01*
X143833333Y-108484200D02*
X143928571Y-108531819D01*
X143928571Y-108531819D02*
X144214285Y-108531819D01*
X144214285Y-108531819D02*
X144309523Y-108484200D01*
X144309523Y-108484200D02*
X144357142Y-108436580D01*
X184464285Y-108531819D02*
X184464285Y-107531819D01*
X184464285Y-107531819D02*
X184226190Y-107531819D01*
X184226190Y-107531819D02*
X184083333Y-107579438D01*
X184083333Y-107579438D02*
X183988095Y-107674676D01*
X183988095Y-107674676D02*
X183940476Y-107769914D01*
X183940476Y-107769914D02*
X183892857Y-107960390D01*
X183892857Y-107960390D02*
X183892857Y-108103247D01*
X183892857Y-108103247D02*
X183940476Y-108293723D01*
X183940476Y-108293723D02*
X183988095Y-108388961D01*
X183988095Y-108388961D02*
X184083333Y-108484200D01*
X184083333Y-108484200D02*
X184226190Y-108531819D01*
X184226190Y-108531819D02*
X184464285Y-108531819D01*
X182940476Y-108531819D02*
X183511904Y-108531819D01*
X183226190Y-108531819D02*
X183226190Y-107531819D01*
X183226190Y-107531819D02*
X183321428Y-107674676D01*
X183321428Y-107674676D02*
X183416666Y-107769914D01*
X183416666Y-107769914D02*
X183511904Y-107817533D01*
X182083333Y-107865152D02*
X182083333Y-108531819D01*
X182321428Y-107484200D02*
X182559523Y-108198485D01*
X182559523Y-108198485D02*
X181940476Y-108198485D01*
X232251976Y-109313479D02*
X232251976Y-108313479D01*
X232251976Y-108313479D02*
X232013881Y-108313479D01*
X232013881Y-108313479D02*
X231871024Y-108361098D01*
X231871024Y-108361098D02*
X231775786Y-108456336D01*
X231775786Y-108456336D02*
X231728167Y-108551574D01*
X231728167Y-108551574D02*
X231680548Y-108742050D01*
X231680548Y-108742050D02*
X231680548Y-108884907D01*
X231680548Y-108884907D02*
X231728167Y-109075383D01*
X231728167Y-109075383D02*
X231775786Y-109170621D01*
X231775786Y-109170621D02*
X231871024Y-109265860D01*
X231871024Y-109265860D02*
X232013881Y-109313479D01*
X232013881Y-109313479D02*
X232251976Y-109313479D01*
X230728167Y-109313479D02*
X231299595Y-109313479D01*
X231013881Y-109313479D02*
X231013881Y-108313479D01*
X231013881Y-108313479D02*
X231109119Y-108456336D01*
X231109119Y-108456336D02*
X231204357Y-108551574D01*
X231204357Y-108551574D02*
X231299595Y-108599193D01*
X229823405Y-108313479D02*
X230299595Y-108313479D01*
X230299595Y-108313479D02*
X230347214Y-108789669D01*
X230347214Y-108789669D02*
X230299595Y-108742050D01*
X230299595Y-108742050D02*
X230204357Y-108694431D01*
X230204357Y-108694431D02*
X229966262Y-108694431D01*
X229966262Y-108694431D02*
X229871024Y-108742050D01*
X229871024Y-108742050D02*
X229823405Y-108789669D01*
X229823405Y-108789669D02*
X229775786Y-108884907D01*
X229775786Y-108884907D02*
X229775786Y-109123002D01*
X229775786Y-109123002D02*
X229823405Y-109218240D01*
X229823405Y-109218240D02*
X229871024Y-109265860D01*
X229871024Y-109265860D02*
X229966262Y-109313479D01*
X229966262Y-109313479D02*
X230204357Y-109313479D01*
X230204357Y-109313479D02*
X230299595Y-109265860D01*
X230299595Y-109265860D02*
X230347214Y-109218240D01*
X93964285Y-127010319D02*
X93964285Y-126010319D01*
X93964285Y-126010319D02*
X93726190Y-126010319D01*
X93726190Y-126010319D02*
X93583333Y-126057938D01*
X93583333Y-126057938D02*
X93488095Y-126153176D01*
X93488095Y-126153176D02*
X93440476Y-126248414D01*
X93440476Y-126248414D02*
X93392857Y-126438890D01*
X93392857Y-126438890D02*
X93392857Y-126581747D01*
X93392857Y-126581747D02*
X93440476Y-126772223D01*
X93440476Y-126772223D02*
X93488095Y-126867461D01*
X93488095Y-126867461D02*
X93583333Y-126962700D01*
X93583333Y-126962700D02*
X93726190Y-127010319D01*
X93726190Y-127010319D02*
X93964285Y-127010319D01*
X92440476Y-127010319D02*
X93011904Y-127010319D01*
X92726190Y-127010319D02*
X92726190Y-126010319D01*
X92726190Y-126010319D02*
X92821428Y-126153176D01*
X92821428Y-126153176D02*
X92916666Y-126248414D01*
X92916666Y-126248414D02*
X93011904Y-126296033D01*
X91583333Y-126010319D02*
X91773809Y-126010319D01*
X91773809Y-126010319D02*
X91869047Y-126057938D01*
X91869047Y-126057938D02*
X91916666Y-126105557D01*
X91916666Y-126105557D02*
X92011904Y-126248414D01*
X92011904Y-126248414D02*
X92059523Y-126438890D01*
X92059523Y-126438890D02*
X92059523Y-126819842D01*
X92059523Y-126819842D02*
X92011904Y-126915080D01*
X92011904Y-126915080D02*
X91964285Y-126962700D01*
X91964285Y-126962700D02*
X91869047Y-127010319D01*
X91869047Y-127010319D02*
X91678571Y-127010319D01*
X91678571Y-127010319D02*
X91583333Y-126962700D01*
X91583333Y-126962700D02*
X91535714Y-126915080D01*
X91535714Y-126915080D02*
X91488095Y-126819842D01*
X91488095Y-126819842D02*
X91488095Y-126581747D01*
X91488095Y-126581747D02*
X91535714Y-126486509D01*
X91535714Y-126486509D02*
X91583333Y-126438890D01*
X91583333Y-126438890D02*
X91678571Y-126391271D01*
X91678571Y-126391271D02*
X91869047Y-126391271D01*
X91869047Y-126391271D02*
X91964285Y-126438890D01*
X91964285Y-126438890D02*
X92011904Y-126486509D01*
X92011904Y-126486509D02*
X92059523Y-126581747D01*
X231964285Y-127010319D02*
X231964285Y-126010319D01*
X231964285Y-126010319D02*
X231726190Y-126010319D01*
X231726190Y-126010319D02*
X231583333Y-126057938D01*
X231583333Y-126057938D02*
X231488095Y-126153176D01*
X231488095Y-126153176D02*
X231440476Y-126248414D01*
X231440476Y-126248414D02*
X231392857Y-126438890D01*
X231392857Y-126438890D02*
X231392857Y-126581747D01*
X231392857Y-126581747D02*
X231440476Y-126772223D01*
X231440476Y-126772223D02*
X231488095Y-126867461D01*
X231488095Y-126867461D02*
X231583333Y-126962700D01*
X231583333Y-126962700D02*
X231726190Y-127010319D01*
X231726190Y-127010319D02*
X231964285Y-127010319D01*
X230440476Y-127010319D02*
X231011904Y-127010319D01*
X230726190Y-127010319D02*
X230726190Y-126010319D01*
X230726190Y-126010319D02*
X230821428Y-126153176D01*
X230821428Y-126153176D02*
X230916666Y-126248414D01*
X230916666Y-126248414D02*
X231011904Y-126296033D01*
X229964285Y-127010319D02*
X229773809Y-127010319D01*
X229773809Y-127010319D02*
X229678571Y-126962700D01*
X229678571Y-126962700D02*
X229630952Y-126915080D01*
X229630952Y-126915080D02*
X229535714Y-126772223D01*
X229535714Y-126772223D02*
X229488095Y-126581747D01*
X229488095Y-126581747D02*
X229488095Y-126200795D01*
X229488095Y-126200795D02*
X229535714Y-126105557D01*
X229535714Y-126105557D02*
X229583333Y-126057938D01*
X229583333Y-126057938D02*
X229678571Y-126010319D01*
X229678571Y-126010319D02*
X229869047Y-126010319D01*
X229869047Y-126010319D02*
X229964285Y-126057938D01*
X229964285Y-126057938D02*
X230011904Y-126105557D01*
X230011904Y-126105557D02*
X230059523Y-126200795D01*
X230059523Y-126200795D02*
X230059523Y-126438890D01*
X230059523Y-126438890D02*
X230011904Y-126534128D01*
X230011904Y-126534128D02*
X229964285Y-126581747D01*
X229964285Y-126581747D02*
X229869047Y-126629366D01*
X229869047Y-126629366D02*
X229678571Y-126629366D01*
X229678571Y-126629366D02*
X229583333Y-126581747D01*
X229583333Y-126581747D02*
X229535714Y-126534128D01*
X229535714Y-126534128D02*
X229488095Y-126438890D01*
X152583333Y-73361009D02*
X152916666Y-73361009D01*
X152916666Y-73884819D02*
X152916666Y-72884819D01*
X152916666Y-72884819D02*
X152440476Y-72884819D01*
X151535714Y-73884819D02*
X152107142Y-73884819D01*
X151821428Y-73884819D02*
X151821428Y-72884819D01*
X151821428Y-72884819D02*
X151916666Y-73027676D01*
X151916666Y-73027676D02*
X152011904Y-73122914D01*
X152011904Y-73122914D02*
X152107142Y-73170533D01*
X144666666Y-62354819D02*
X144999999Y-61878628D01*
X145238094Y-62354819D02*
X145238094Y-61354819D01*
X145238094Y-61354819D02*
X144857142Y-61354819D01*
X144857142Y-61354819D02*
X144761904Y-61402438D01*
X144761904Y-61402438D02*
X144714285Y-61450057D01*
X144714285Y-61450057D02*
X144666666Y-61545295D01*
X144666666Y-61545295D02*
X144666666Y-61688152D01*
X144666666Y-61688152D02*
X144714285Y-61783390D01*
X144714285Y-61783390D02*
X144761904Y-61831009D01*
X144761904Y-61831009D02*
X144857142Y-61878628D01*
X144857142Y-61878628D02*
X145238094Y-61878628D01*
X143714285Y-62354819D02*
X144285713Y-62354819D01*
X143999999Y-62354819D02*
X143999999Y-61354819D01*
X143999999Y-61354819D02*
X144095237Y-61497676D01*
X144095237Y-61497676D02*
X144190475Y-61592914D01*
X144190475Y-61592914D02*
X144285713Y-61640533D01*
X166642666Y-62553319D02*
X166975999Y-62077128D01*
X167214094Y-62553319D02*
X167214094Y-61553319D01*
X167214094Y-61553319D02*
X166833142Y-61553319D01*
X166833142Y-61553319D02*
X166737904Y-61600938D01*
X166737904Y-61600938D02*
X166690285Y-61648557D01*
X166690285Y-61648557D02*
X166642666Y-61743795D01*
X166642666Y-61743795D02*
X166642666Y-61886652D01*
X166642666Y-61886652D02*
X166690285Y-61981890D01*
X166690285Y-61981890D02*
X166737904Y-62029509D01*
X166737904Y-62029509D02*
X166833142Y-62077128D01*
X166833142Y-62077128D02*
X167214094Y-62077128D01*
X166261713Y-61648557D02*
X166214094Y-61600938D01*
X166214094Y-61600938D02*
X166118856Y-61553319D01*
X166118856Y-61553319D02*
X165880761Y-61553319D01*
X165880761Y-61553319D02*
X165785523Y-61600938D01*
X165785523Y-61600938D02*
X165737904Y-61648557D01*
X165737904Y-61648557D02*
X165690285Y-61743795D01*
X165690285Y-61743795D02*
X165690285Y-61839033D01*
X165690285Y-61839033D02*
X165737904Y-61981890D01*
X165737904Y-61981890D02*
X166309332Y-62553319D01*
X166309332Y-62553319D02*
X165690285Y-62553319D01*
X153997721Y-66351510D02*
X153997721Y-67161033D01*
X153997721Y-67161033D02*
X153950102Y-67256271D01*
X153950102Y-67256271D02*
X153902483Y-67303891D01*
X153902483Y-67303891D02*
X153807245Y-67351510D01*
X153807245Y-67351510D02*
X153616769Y-67351510D01*
X153616769Y-67351510D02*
X153521531Y-67303891D01*
X153521531Y-67303891D02*
X153473912Y-67256271D01*
X153473912Y-67256271D02*
X153426293Y-67161033D01*
X153426293Y-67161033D02*
X153426293Y-66351510D01*
X152521531Y-66684843D02*
X152521531Y-67351510D01*
X152759626Y-66303891D02*
X152997721Y-67018176D01*
X152997721Y-67018176D02*
X152378674Y-67018176D01*
X157313094Y-61170319D02*
X157313094Y-61979842D01*
X157313094Y-61979842D02*
X157265475Y-62075080D01*
X157265475Y-62075080D02*
X157217856Y-62122700D01*
X157217856Y-62122700D02*
X157122618Y-62170319D01*
X157122618Y-62170319D02*
X156932142Y-62170319D01*
X156932142Y-62170319D02*
X156836904Y-62122700D01*
X156836904Y-62122700D02*
X156789285Y-62075080D01*
X156789285Y-62075080D02*
X156741666Y-61979842D01*
X156741666Y-61979842D02*
X156741666Y-61170319D01*
X156313094Y-62122700D02*
X156170237Y-62170319D01*
X156170237Y-62170319D02*
X155932142Y-62170319D01*
X155932142Y-62170319D02*
X155836904Y-62122700D01*
X155836904Y-62122700D02*
X155789285Y-62075080D01*
X155789285Y-62075080D02*
X155741666Y-61979842D01*
X155741666Y-61979842D02*
X155741666Y-61884604D01*
X155741666Y-61884604D02*
X155789285Y-61789366D01*
X155789285Y-61789366D02*
X155836904Y-61741747D01*
X155836904Y-61741747D02*
X155932142Y-61694128D01*
X155932142Y-61694128D02*
X156122618Y-61646509D01*
X156122618Y-61646509D02*
X156217856Y-61598890D01*
X156217856Y-61598890D02*
X156265475Y-61551271D01*
X156265475Y-61551271D02*
X156313094Y-61456033D01*
X156313094Y-61456033D02*
X156313094Y-61360795D01*
X156313094Y-61360795D02*
X156265475Y-61265557D01*
X156265475Y-61265557D02*
X156217856Y-61217938D01*
X156217856Y-61217938D02*
X156122618Y-61170319D01*
X156122618Y-61170319D02*
X155884523Y-61170319D01*
X155884523Y-61170319D02*
X155741666Y-61217938D01*
X154979761Y-61646509D02*
X154836904Y-61694128D01*
X154836904Y-61694128D02*
X154789285Y-61741747D01*
X154789285Y-61741747D02*
X154741666Y-61836985D01*
X154741666Y-61836985D02*
X154741666Y-61979842D01*
X154741666Y-61979842D02*
X154789285Y-62075080D01*
X154789285Y-62075080D02*
X154836904Y-62122700D01*
X154836904Y-62122700D02*
X154932142Y-62170319D01*
X154932142Y-62170319D02*
X155313094Y-62170319D01*
X155313094Y-62170319D02*
X155313094Y-61170319D01*
X155313094Y-61170319D02*
X154979761Y-61170319D01*
X154979761Y-61170319D02*
X154884523Y-61217938D01*
X154884523Y-61217938D02*
X154836904Y-61265557D01*
X154836904Y-61265557D02*
X154789285Y-61360795D01*
X154789285Y-61360795D02*
X154789285Y-61456033D01*
X154789285Y-61456033D02*
X154836904Y-61551271D01*
X154836904Y-61551271D02*
X154884523Y-61598890D01*
X154884523Y-61598890D02*
X154979761Y-61646509D01*
X154979761Y-61646509D02*
X155313094Y-61646509D01*
X153789285Y-62170319D02*
X154360713Y-62170319D01*
X154074999Y-62170319D02*
X154074999Y-61170319D01*
X154074999Y-61170319D02*
X154170237Y-61313176D01*
X154170237Y-61313176D02*
X154265475Y-61408414D01*
X154265475Y-61408414D02*
X154360713Y-61456033D01*
X142964285Y-126954819D02*
X142964285Y-125954819D01*
X142964285Y-125954819D02*
X142726190Y-125954819D01*
X142726190Y-125954819D02*
X142583333Y-126002438D01*
X142583333Y-126002438D02*
X142488095Y-126097676D01*
X142488095Y-126097676D02*
X142440476Y-126192914D01*
X142440476Y-126192914D02*
X142392857Y-126383390D01*
X142392857Y-126383390D02*
X142392857Y-126526247D01*
X142392857Y-126526247D02*
X142440476Y-126716723D01*
X142440476Y-126716723D02*
X142488095Y-126811961D01*
X142488095Y-126811961D02*
X142583333Y-126907200D01*
X142583333Y-126907200D02*
X142726190Y-126954819D01*
X142726190Y-126954819D02*
X142964285Y-126954819D01*
X141440476Y-126954819D02*
X142011904Y-126954819D01*
X141726190Y-126954819D02*
X141726190Y-125954819D01*
X141726190Y-125954819D02*
X141821428Y-126097676D01*
X141821428Y-126097676D02*
X141916666Y-126192914D01*
X141916666Y-126192914D02*
X142011904Y-126240533D01*
X141107142Y-125954819D02*
X140440476Y-125954819D01*
X140440476Y-125954819D02*
X140869047Y-126954819D01*
X212964285Y-127010319D02*
X212964285Y-126010319D01*
X212964285Y-126010319D02*
X212726190Y-126010319D01*
X212726190Y-126010319D02*
X212583333Y-126057938D01*
X212583333Y-126057938D02*
X212488095Y-126153176D01*
X212488095Y-126153176D02*
X212440476Y-126248414D01*
X212440476Y-126248414D02*
X212392857Y-126438890D01*
X212392857Y-126438890D02*
X212392857Y-126581747D01*
X212392857Y-126581747D02*
X212440476Y-126772223D01*
X212440476Y-126772223D02*
X212488095Y-126867461D01*
X212488095Y-126867461D02*
X212583333Y-126962700D01*
X212583333Y-126962700D02*
X212726190Y-127010319D01*
X212726190Y-127010319D02*
X212964285Y-127010319D01*
X211440476Y-127010319D02*
X212011904Y-127010319D01*
X211726190Y-127010319D02*
X211726190Y-126010319D01*
X211726190Y-126010319D02*
X211821428Y-126153176D01*
X211821428Y-126153176D02*
X211916666Y-126248414D01*
X211916666Y-126248414D02*
X212011904Y-126296033D01*
X210869047Y-126438890D02*
X210964285Y-126391271D01*
X210964285Y-126391271D02*
X211011904Y-126343652D01*
X211011904Y-126343652D02*
X211059523Y-126248414D01*
X211059523Y-126248414D02*
X211059523Y-126200795D01*
X211059523Y-126200795D02*
X211011904Y-126105557D01*
X211011904Y-126105557D02*
X210964285Y-126057938D01*
X210964285Y-126057938D02*
X210869047Y-126010319D01*
X210869047Y-126010319D02*
X210678571Y-126010319D01*
X210678571Y-126010319D02*
X210583333Y-126057938D01*
X210583333Y-126057938D02*
X210535714Y-126105557D01*
X210535714Y-126105557D02*
X210488095Y-126200795D01*
X210488095Y-126200795D02*
X210488095Y-126248414D01*
X210488095Y-126248414D02*
X210535714Y-126343652D01*
X210535714Y-126343652D02*
X210583333Y-126391271D01*
X210583333Y-126391271D02*
X210678571Y-126438890D01*
X210678571Y-126438890D02*
X210869047Y-126438890D01*
X210869047Y-126438890D02*
X210964285Y-126486509D01*
X210964285Y-126486509D02*
X211011904Y-126534128D01*
X211011904Y-126534128D02*
X211059523Y-126629366D01*
X211059523Y-126629366D02*
X211059523Y-126819842D01*
X211059523Y-126819842D02*
X211011904Y-126915080D01*
X211011904Y-126915080D02*
X210964285Y-126962700D01*
X210964285Y-126962700D02*
X210869047Y-127010319D01*
X210869047Y-127010319D02*
X210678571Y-127010319D01*
X210678571Y-127010319D02*
X210583333Y-126962700D01*
X210583333Y-126962700D02*
X210535714Y-126915080D01*
X210535714Y-126915080D02*
X210488095Y-126819842D01*
X210488095Y-126819842D02*
X210488095Y-126629366D01*
X210488095Y-126629366D02*
X210535714Y-126534128D01*
X210535714Y-126534128D02*
X210583333Y-126486509D01*
X210583333Y-126486509D02*
X210678571Y-126438890D01*
X218282643Y-62617124D02*
X218318357Y-62688553D01*
X218318357Y-62688553D02*
X218318357Y-62795695D01*
X218318357Y-62795695D02*
X218282643Y-62902838D01*
X218282643Y-62902838D02*
X218211214Y-62974267D01*
X218211214Y-62974267D02*
X218139786Y-63009981D01*
X218139786Y-63009981D02*
X217996929Y-63045695D01*
X217996929Y-63045695D02*
X217889786Y-63045695D01*
X217889786Y-63045695D02*
X217746929Y-63009981D01*
X217746929Y-63009981D02*
X217675500Y-62974267D01*
X217675500Y-62974267D02*
X217604072Y-62902838D01*
X217604072Y-62902838D02*
X217568357Y-62795695D01*
X217568357Y-62795695D02*
X217568357Y-62724267D01*
X217568357Y-62724267D02*
X217604072Y-62617124D01*
X217604072Y-62617124D02*
X217639786Y-62581410D01*
X217639786Y-62581410D02*
X217889786Y-62581410D01*
X217889786Y-62581410D02*
X217889786Y-62724267D01*
X217568357Y-62259981D02*
X218318357Y-62259981D01*
X218318357Y-62259981D02*
X218318357Y-61974267D01*
X218318357Y-61974267D02*
X218282643Y-61902838D01*
X218282643Y-61902838D02*
X218246929Y-61867124D01*
X218246929Y-61867124D02*
X218175500Y-61831410D01*
X218175500Y-61831410D02*
X218068357Y-61831410D01*
X218068357Y-61831410D02*
X217996929Y-61867124D01*
X217996929Y-61867124D02*
X217961214Y-61902838D01*
X217961214Y-61902838D02*
X217925500Y-61974267D01*
X217925500Y-61974267D02*
X217925500Y-62259981D01*
X218246929Y-61545695D02*
X218282643Y-61509981D01*
X218282643Y-61509981D02*
X218318357Y-61438553D01*
X218318357Y-61438553D02*
X218318357Y-61259981D01*
X218318357Y-61259981D02*
X218282643Y-61188553D01*
X218282643Y-61188553D02*
X218246929Y-61152838D01*
X218246929Y-61152838D02*
X218175500Y-61117124D01*
X218175500Y-61117124D02*
X218104072Y-61117124D01*
X218104072Y-61117124D02*
X217996929Y-61152838D01*
X217996929Y-61152838D02*
X217568357Y-61581410D01*
X217568357Y-61581410D02*
X217568357Y-61117124D01*
X217568357Y-60759981D02*
X217568357Y-60617124D01*
X217568357Y-60617124D02*
X217604072Y-60545695D01*
X217604072Y-60545695D02*
X217639786Y-60509981D01*
X217639786Y-60509981D02*
X217746929Y-60438552D01*
X217746929Y-60438552D02*
X217889786Y-60402838D01*
X217889786Y-60402838D02*
X218175500Y-60402838D01*
X218175500Y-60402838D02*
X218246929Y-60438552D01*
X218246929Y-60438552D02*
X218282643Y-60474267D01*
X218282643Y-60474267D02*
X218318357Y-60545695D01*
X218318357Y-60545695D02*
X218318357Y-60688552D01*
X218318357Y-60688552D02*
X218282643Y-60759981D01*
X218282643Y-60759981D02*
X218246929Y-60795695D01*
X218246929Y-60795695D02*
X218175500Y-60831409D01*
X218175500Y-60831409D02*
X217996929Y-60831409D01*
X217996929Y-60831409D02*
X217925500Y-60795695D01*
X217925500Y-60795695D02*
X217889786Y-60759981D01*
X217889786Y-60759981D02*
X217854072Y-60688552D01*
X217854072Y-60688552D02*
X217854072Y-60545695D01*
X217854072Y-60545695D02*
X217889786Y-60474267D01*
X217889786Y-60474267D02*
X217925500Y-60438552D01*
X217925500Y-60438552D02*
X217996929Y-60402838D01*
X212706669Y-62416050D02*
X212706669Y-61844622D01*
X212420954Y-62130336D02*
X212992383Y-62130336D01*
X213170954Y-61130336D02*
X213170954Y-61487479D01*
X213170954Y-61487479D02*
X212813811Y-61523193D01*
X212813811Y-61523193D02*
X212849526Y-61487479D01*
X212849526Y-61487479D02*
X212885240Y-61416051D01*
X212885240Y-61416051D02*
X212885240Y-61237479D01*
X212885240Y-61237479D02*
X212849526Y-61166051D01*
X212849526Y-61166051D02*
X212813811Y-61130336D01*
X212813811Y-61130336D02*
X212742383Y-61094622D01*
X212742383Y-61094622D02*
X212563811Y-61094622D01*
X212563811Y-61094622D02*
X212492383Y-61130336D01*
X212492383Y-61130336D02*
X212456669Y-61166051D01*
X212456669Y-61166051D02*
X212420954Y-61237479D01*
X212420954Y-61237479D02*
X212420954Y-61416051D01*
X212420954Y-61416051D02*
X212456669Y-61487479D01*
X212456669Y-61487479D02*
X212492383Y-61523193D01*
X213170954Y-60880336D02*
X212420954Y-60630336D01*
X212420954Y-60630336D02*
X213170954Y-60380336D01*
X215732233Y-62617124D02*
X215767947Y-62688553D01*
X215767947Y-62688553D02*
X215767947Y-62795695D01*
X215767947Y-62795695D02*
X215732233Y-62902838D01*
X215732233Y-62902838D02*
X215660804Y-62974267D01*
X215660804Y-62974267D02*
X215589376Y-63009981D01*
X215589376Y-63009981D02*
X215446519Y-63045695D01*
X215446519Y-63045695D02*
X215339376Y-63045695D01*
X215339376Y-63045695D02*
X215196519Y-63009981D01*
X215196519Y-63009981D02*
X215125090Y-62974267D01*
X215125090Y-62974267D02*
X215053662Y-62902838D01*
X215053662Y-62902838D02*
X215017947Y-62795695D01*
X215017947Y-62795695D02*
X215017947Y-62724267D01*
X215017947Y-62724267D02*
X215053662Y-62617124D01*
X215053662Y-62617124D02*
X215089376Y-62581410D01*
X215089376Y-62581410D02*
X215339376Y-62581410D01*
X215339376Y-62581410D02*
X215339376Y-62724267D01*
X215017947Y-62259981D02*
X215767947Y-62259981D01*
X215767947Y-62259981D02*
X215767947Y-61974267D01*
X215767947Y-61974267D02*
X215732233Y-61902838D01*
X215732233Y-61902838D02*
X215696519Y-61867124D01*
X215696519Y-61867124D02*
X215625090Y-61831410D01*
X215625090Y-61831410D02*
X215517947Y-61831410D01*
X215517947Y-61831410D02*
X215446519Y-61867124D01*
X215446519Y-61867124D02*
X215410804Y-61902838D01*
X215410804Y-61902838D02*
X215375090Y-61974267D01*
X215375090Y-61974267D02*
X215375090Y-62259981D01*
X215696519Y-61545695D02*
X215732233Y-61509981D01*
X215732233Y-61509981D02*
X215767947Y-61438553D01*
X215767947Y-61438553D02*
X215767947Y-61259981D01*
X215767947Y-61259981D02*
X215732233Y-61188553D01*
X215732233Y-61188553D02*
X215696519Y-61152838D01*
X215696519Y-61152838D02*
X215625090Y-61117124D01*
X215625090Y-61117124D02*
X215553662Y-61117124D01*
X215553662Y-61117124D02*
X215446519Y-61152838D01*
X215446519Y-61152838D02*
X215017947Y-61581410D01*
X215017947Y-61581410D02*
X215017947Y-61117124D01*
X215767947Y-60867124D02*
X215767947Y-60367124D01*
X215767947Y-60367124D02*
X215017947Y-60688552D01*
X218348329Y-58595791D02*
X218081663Y-58595791D01*
X217967377Y-59014839D02*
X218348329Y-59014839D01*
X218348329Y-59014839D02*
X218348329Y-58214839D01*
X218348329Y-58214839D02*
X217967377Y-58214839D01*
X217700710Y-59014839D02*
X217281662Y-58481505D01*
X217700710Y-58481505D02*
X217281662Y-59014839D01*
X217091186Y-58481505D02*
X216786424Y-58481505D01*
X216976900Y-58214839D02*
X216976900Y-58900553D01*
X216976900Y-58900553D02*
X216938805Y-58976744D01*
X216938805Y-58976744D02*
X216862615Y-59014839D01*
X216862615Y-59014839D02*
X216786424Y-59014839D01*
X216519757Y-59014839D02*
X216519757Y-58481505D01*
X216519757Y-58633886D02*
X216481662Y-58557696D01*
X216481662Y-58557696D02*
X216443567Y-58519601D01*
X216443567Y-58519601D02*
X216367376Y-58481505D01*
X216367376Y-58481505D02*
X216291186Y-58481505D01*
X215681662Y-59014839D02*
X215681662Y-58595791D01*
X215681662Y-58595791D02*
X215719757Y-58519601D01*
X215719757Y-58519601D02*
X215795948Y-58481505D01*
X215795948Y-58481505D02*
X215948329Y-58481505D01*
X215948329Y-58481505D02*
X216024519Y-58519601D01*
X215681662Y-58976744D02*
X215757853Y-59014839D01*
X215757853Y-59014839D02*
X215948329Y-59014839D01*
X215948329Y-59014839D02*
X216024519Y-58976744D01*
X216024519Y-58976744D02*
X216062615Y-58900553D01*
X216062615Y-58900553D02*
X216062615Y-58824363D01*
X216062615Y-58824363D02*
X216024519Y-58748172D01*
X216024519Y-58748172D02*
X215948329Y-58710077D01*
X215948329Y-58710077D02*
X215757853Y-58710077D01*
X215757853Y-58710077D02*
X215681662Y-58671982D01*
X214729281Y-58786267D02*
X214348328Y-58786267D01*
X214805471Y-59014839D02*
X214538804Y-58214839D01*
X214538804Y-58214839D02*
X214272138Y-59014839D01*
X214005471Y-59014839D02*
X214005471Y-58214839D01*
X214005471Y-58214839D02*
X213814995Y-58214839D01*
X213814995Y-58214839D02*
X213700709Y-58252934D01*
X213700709Y-58252934D02*
X213624519Y-58329124D01*
X213624519Y-58329124D02*
X213586424Y-58405315D01*
X213586424Y-58405315D02*
X213548328Y-58557696D01*
X213548328Y-58557696D02*
X213548328Y-58671982D01*
X213548328Y-58671982D02*
X213586424Y-58824363D01*
X213586424Y-58824363D02*
X213624519Y-58900553D01*
X213624519Y-58900553D02*
X213700709Y-58976744D01*
X213700709Y-58976744D02*
X213814995Y-59014839D01*
X213814995Y-59014839D02*
X214005471Y-59014839D01*
X212748328Y-58938648D02*
X212786424Y-58976744D01*
X212786424Y-58976744D02*
X212900709Y-59014839D01*
X212900709Y-59014839D02*
X212976900Y-59014839D01*
X212976900Y-59014839D02*
X213091186Y-58976744D01*
X213091186Y-58976744D02*
X213167376Y-58900553D01*
X213167376Y-58900553D02*
X213205471Y-58824363D01*
X213205471Y-58824363D02*
X213243567Y-58671982D01*
X213243567Y-58671982D02*
X213243567Y-58557696D01*
X213243567Y-58557696D02*
X213205471Y-58405315D01*
X213205471Y-58405315D02*
X213167376Y-58329124D01*
X213167376Y-58329124D02*
X213091186Y-58252934D01*
X213091186Y-58252934D02*
X212976900Y-58214839D01*
X212976900Y-58214839D02*
X212900709Y-58214839D01*
X212900709Y-58214839D02*
X212786424Y-58252934D01*
X212786424Y-58252934D02*
X212748328Y-58291029D01*
X211795947Y-59014839D02*
X211795947Y-58214839D01*
X211795947Y-58214839D02*
X211491185Y-58214839D01*
X211491185Y-58214839D02*
X211414995Y-58252934D01*
X211414995Y-58252934D02*
X211376900Y-58291029D01*
X211376900Y-58291029D02*
X211338804Y-58367220D01*
X211338804Y-58367220D02*
X211338804Y-58481505D01*
X211338804Y-58481505D02*
X211376900Y-58557696D01*
X211376900Y-58557696D02*
X211414995Y-58595791D01*
X211414995Y-58595791D02*
X211491185Y-58633886D01*
X211491185Y-58633886D02*
X211795947Y-58633886D01*
X210995947Y-59014839D02*
X210995947Y-58481505D01*
X210995947Y-58214839D02*
X211034043Y-58252934D01*
X211034043Y-58252934D02*
X210995947Y-58291029D01*
X210995947Y-58291029D02*
X210957852Y-58252934D01*
X210957852Y-58252934D02*
X210995947Y-58214839D01*
X210995947Y-58214839D02*
X210995947Y-58291029D01*
X210614995Y-58481505D02*
X210614995Y-59014839D01*
X210614995Y-58557696D02*
X210576900Y-58519601D01*
X210576900Y-58519601D02*
X210500710Y-58481505D01*
X210500710Y-58481505D02*
X210386424Y-58481505D01*
X210386424Y-58481505D02*
X210310233Y-58519601D01*
X210310233Y-58519601D02*
X210272138Y-58595791D01*
X210272138Y-58595791D02*
X210272138Y-59014839D01*
X209929281Y-58976744D02*
X209853090Y-59014839D01*
X209853090Y-59014839D02*
X209700709Y-59014839D01*
X209700709Y-59014839D02*
X209624519Y-58976744D01*
X209624519Y-58976744D02*
X209586423Y-58900553D01*
X209586423Y-58900553D02*
X209586423Y-58862458D01*
X209586423Y-58862458D02*
X209624519Y-58786267D01*
X209624519Y-58786267D02*
X209700709Y-58748172D01*
X209700709Y-58748172D02*
X209814995Y-58748172D01*
X209814995Y-58748172D02*
X209891185Y-58710077D01*
X209891185Y-58710077D02*
X209929281Y-58633886D01*
X209929281Y-58633886D02*
X209929281Y-58595791D01*
X209929281Y-58595791D02*
X209891185Y-58519601D01*
X209891185Y-58519601D02*
X209814995Y-58481505D01*
X209814995Y-58481505D02*
X209700709Y-58481505D01*
X209700709Y-58481505D02*
X209624519Y-58519601D01*
X210622335Y-62106937D02*
X210660430Y-62183127D01*
X210660430Y-62183127D02*
X210660430Y-62297413D01*
X210660430Y-62297413D02*
X210622335Y-62411699D01*
X210622335Y-62411699D02*
X210546145Y-62487889D01*
X210546145Y-62487889D02*
X210469954Y-62525984D01*
X210469954Y-62525984D02*
X210317573Y-62564080D01*
X210317573Y-62564080D02*
X210203287Y-62564080D01*
X210203287Y-62564080D02*
X210050906Y-62525984D01*
X210050906Y-62525984D02*
X209974716Y-62487889D01*
X209974716Y-62487889D02*
X209898526Y-62411699D01*
X209898526Y-62411699D02*
X209860430Y-62297413D01*
X209860430Y-62297413D02*
X209860430Y-62221222D01*
X209860430Y-62221222D02*
X209898526Y-62106937D01*
X209898526Y-62106937D02*
X209936621Y-62068841D01*
X209936621Y-62068841D02*
X210203287Y-62068841D01*
X210203287Y-62068841D02*
X210203287Y-62221222D01*
X209860430Y-61725984D02*
X210660430Y-61725984D01*
X210660430Y-61725984D02*
X209860430Y-61268841D01*
X209860430Y-61268841D02*
X210660430Y-61268841D01*
X209860430Y-60887889D02*
X210660430Y-60887889D01*
X210660430Y-60887889D02*
X210660430Y-60697413D01*
X210660430Y-60697413D02*
X210622335Y-60583127D01*
X210622335Y-60583127D02*
X210546145Y-60506937D01*
X210546145Y-60506937D02*
X210469954Y-60468842D01*
X210469954Y-60468842D02*
X210317573Y-60430746D01*
X210317573Y-60430746D02*
X210203287Y-60430746D01*
X210203287Y-60430746D02*
X210050906Y-60468842D01*
X210050906Y-60468842D02*
X209974716Y-60506937D01*
X209974716Y-60506937D02*
X209898526Y-60583127D01*
X209898526Y-60583127D02*
X209860430Y-60697413D01*
X209860430Y-60697413D02*
X209860430Y-60887889D01*
X214462851Y-62582187D02*
X214498565Y-62653616D01*
X214498565Y-62653616D02*
X214498565Y-62760758D01*
X214498565Y-62760758D02*
X214462851Y-62867901D01*
X214462851Y-62867901D02*
X214391422Y-62939330D01*
X214391422Y-62939330D02*
X214319994Y-62975044D01*
X214319994Y-62975044D02*
X214177137Y-63010758D01*
X214177137Y-63010758D02*
X214069994Y-63010758D01*
X214069994Y-63010758D02*
X213927137Y-62975044D01*
X213927137Y-62975044D02*
X213855708Y-62939330D01*
X213855708Y-62939330D02*
X213784280Y-62867901D01*
X213784280Y-62867901D02*
X213748565Y-62760758D01*
X213748565Y-62760758D02*
X213748565Y-62689330D01*
X213748565Y-62689330D02*
X213784280Y-62582187D01*
X213784280Y-62582187D02*
X213819994Y-62546473D01*
X213819994Y-62546473D02*
X214069994Y-62546473D01*
X214069994Y-62546473D02*
X214069994Y-62689330D01*
X213748565Y-62225044D02*
X214498565Y-62225044D01*
X214498565Y-62225044D02*
X214498565Y-61939330D01*
X214498565Y-61939330D02*
X214462851Y-61867901D01*
X214462851Y-61867901D02*
X214427137Y-61832187D01*
X214427137Y-61832187D02*
X214355708Y-61796473D01*
X214355708Y-61796473D02*
X214248565Y-61796473D01*
X214248565Y-61796473D02*
X214177137Y-61832187D01*
X214177137Y-61832187D02*
X214141422Y-61867901D01*
X214141422Y-61867901D02*
X214105708Y-61939330D01*
X214105708Y-61939330D02*
X214105708Y-62225044D01*
X214427137Y-61510758D02*
X214462851Y-61475044D01*
X214462851Y-61475044D02*
X214498565Y-61403616D01*
X214498565Y-61403616D02*
X214498565Y-61225044D01*
X214498565Y-61225044D02*
X214462851Y-61153616D01*
X214462851Y-61153616D02*
X214427137Y-61117901D01*
X214427137Y-61117901D02*
X214355708Y-61082187D01*
X214355708Y-61082187D02*
X214284280Y-61082187D01*
X214284280Y-61082187D02*
X214177137Y-61117901D01*
X214177137Y-61117901D02*
X213748565Y-61546473D01*
X213748565Y-61546473D02*
X213748565Y-61082187D01*
X214498565Y-60439330D02*
X214498565Y-60582187D01*
X214498565Y-60582187D02*
X214462851Y-60653615D01*
X214462851Y-60653615D02*
X214427137Y-60689330D01*
X214427137Y-60689330D02*
X214319994Y-60760758D01*
X214319994Y-60760758D02*
X214177137Y-60796472D01*
X214177137Y-60796472D02*
X213891422Y-60796472D01*
X213891422Y-60796472D02*
X213819994Y-60760758D01*
X213819994Y-60760758D02*
X213784280Y-60725044D01*
X213784280Y-60725044D02*
X213748565Y-60653615D01*
X213748565Y-60653615D02*
X213748565Y-60510758D01*
X213748565Y-60510758D02*
X213784280Y-60439330D01*
X213784280Y-60439330D02*
X213819994Y-60403615D01*
X213819994Y-60403615D02*
X213891422Y-60367901D01*
X213891422Y-60367901D02*
X214069994Y-60367901D01*
X214069994Y-60367901D02*
X214141422Y-60403615D01*
X214141422Y-60403615D02*
X214177137Y-60439330D01*
X214177137Y-60439330D02*
X214212851Y-60510758D01*
X214212851Y-60510758D02*
X214212851Y-60653615D01*
X214212851Y-60653615D02*
X214177137Y-60725044D01*
X214177137Y-60725044D02*
X214141422Y-60760758D01*
X214141422Y-60760758D02*
X214069994Y-60796472D01*
X211450168Y-63088148D02*
X211450168Y-62516720D01*
X211164453Y-62802434D02*
X211735882Y-62802434D01*
X211914453Y-62231006D02*
X211914453Y-61766720D01*
X211914453Y-61766720D02*
X211628739Y-62016720D01*
X211628739Y-62016720D02*
X211628739Y-61909577D01*
X211628739Y-61909577D02*
X211593025Y-61838149D01*
X211593025Y-61838149D02*
X211557310Y-61802434D01*
X211557310Y-61802434D02*
X211485882Y-61766720D01*
X211485882Y-61766720D02*
X211307310Y-61766720D01*
X211307310Y-61766720D02*
X211235882Y-61802434D01*
X211235882Y-61802434D02*
X211200168Y-61838149D01*
X211200168Y-61838149D02*
X211164453Y-61909577D01*
X211164453Y-61909577D02*
X211164453Y-62123863D01*
X211164453Y-62123863D02*
X211200168Y-62195291D01*
X211200168Y-62195291D02*
X211235882Y-62231006D01*
X211914453Y-61552434D02*
X211164453Y-61302434D01*
X211164453Y-61302434D02*
X211914453Y-61052434D01*
X211914453Y-60873863D02*
X211914453Y-60409577D01*
X211914453Y-60409577D02*
X211628739Y-60659577D01*
X211628739Y-60659577D02*
X211628739Y-60552434D01*
X211628739Y-60552434D02*
X211593025Y-60481006D01*
X211593025Y-60481006D02*
X211557310Y-60445291D01*
X211557310Y-60445291D02*
X211485882Y-60409577D01*
X211485882Y-60409577D02*
X211307310Y-60409577D01*
X211307310Y-60409577D02*
X211235882Y-60445291D01*
X211235882Y-60445291D02*
X211200168Y-60481006D01*
X211200168Y-60481006D02*
X211164453Y-60552434D01*
X211164453Y-60552434D02*
X211164453Y-60766720D01*
X211164453Y-60766720D02*
X211200168Y-60838148D01*
X211200168Y-60838148D02*
X211235882Y-60873863D01*
X217013261Y-62617124D02*
X217048975Y-62688553D01*
X217048975Y-62688553D02*
X217048975Y-62795695D01*
X217048975Y-62795695D02*
X217013261Y-62902838D01*
X217013261Y-62902838D02*
X216941832Y-62974267D01*
X216941832Y-62974267D02*
X216870404Y-63009981D01*
X216870404Y-63009981D02*
X216727547Y-63045695D01*
X216727547Y-63045695D02*
X216620404Y-63045695D01*
X216620404Y-63045695D02*
X216477547Y-63009981D01*
X216477547Y-63009981D02*
X216406118Y-62974267D01*
X216406118Y-62974267D02*
X216334690Y-62902838D01*
X216334690Y-62902838D02*
X216298975Y-62795695D01*
X216298975Y-62795695D02*
X216298975Y-62724267D01*
X216298975Y-62724267D02*
X216334690Y-62617124D01*
X216334690Y-62617124D02*
X216370404Y-62581410D01*
X216370404Y-62581410D02*
X216620404Y-62581410D01*
X216620404Y-62581410D02*
X216620404Y-62724267D01*
X216298975Y-62259981D02*
X217048975Y-62259981D01*
X217048975Y-62259981D02*
X217048975Y-61974267D01*
X217048975Y-61974267D02*
X217013261Y-61902838D01*
X217013261Y-61902838D02*
X216977547Y-61867124D01*
X216977547Y-61867124D02*
X216906118Y-61831410D01*
X216906118Y-61831410D02*
X216798975Y-61831410D01*
X216798975Y-61831410D02*
X216727547Y-61867124D01*
X216727547Y-61867124D02*
X216691832Y-61902838D01*
X216691832Y-61902838D02*
X216656118Y-61974267D01*
X216656118Y-61974267D02*
X216656118Y-62259981D01*
X216977547Y-61545695D02*
X217013261Y-61509981D01*
X217013261Y-61509981D02*
X217048975Y-61438553D01*
X217048975Y-61438553D02*
X217048975Y-61259981D01*
X217048975Y-61259981D02*
X217013261Y-61188553D01*
X217013261Y-61188553D02*
X216977547Y-61152838D01*
X216977547Y-61152838D02*
X216906118Y-61117124D01*
X216906118Y-61117124D02*
X216834690Y-61117124D01*
X216834690Y-61117124D02*
X216727547Y-61152838D01*
X216727547Y-61152838D02*
X216298975Y-61581410D01*
X216298975Y-61581410D02*
X216298975Y-61117124D01*
X216727547Y-60688552D02*
X216763261Y-60759981D01*
X216763261Y-60759981D02*
X216798975Y-60795695D01*
X216798975Y-60795695D02*
X216870404Y-60831409D01*
X216870404Y-60831409D02*
X216906118Y-60831409D01*
X216906118Y-60831409D02*
X216977547Y-60795695D01*
X216977547Y-60795695D02*
X217013261Y-60759981D01*
X217013261Y-60759981D02*
X217048975Y-60688552D01*
X217048975Y-60688552D02*
X217048975Y-60545695D01*
X217048975Y-60545695D02*
X217013261Y-60474267D01*
X217013261Y-60474267D02*
X216977547Y-60438552D01*
X216977547Y-60438552D02*
X216906118Y-60402838D01*
X216906118Y-60402838D02*
X216870404Y-60402838D01*
X216870404Y-60402838D02*
X216798975Y-60438552D01*
X216798975Y-60438552D02*
X216763261Y-60474267D01*
X216763261Y-60474267D02*
X216727547Y-60545695D01*
X216727547Y-60545695D02*
X216727547Y-60688552D01*
X216727547Y-60688552D02*
X216691832Y-60759981D01*
X216691832Y-60759981D02*
X216656118Y-60795695D01*
X216656118Y-60795695D02*
X216584690Y-60831409D01*
X216584690Y-60831409D02*
X216441832Y-60831409D01*
X216441832Y-60831409D02*
X216370404Y-60795695D01*
X216370404Y-60795695D02*
X216334690Y-60759981D01*
X216334690Y-60759981D02*
X216298975Y-60688552D01*
X216298975Y-60688552D02*
X216298975Y-60545695D01*
X216298975Y-60545695D02*
X216334690Y-60474267D01*
X216334690Y-60474267D02*
X216370404Y-60438552D01*
X216370404Y-60438552D02*
X216441832Y-60402838D01*
X216441832Y-60402838D02*
X216584690Y-60402838D01*
X216584690Y-60402838D02*
X216656118Y-60438552D01*
X216656118Y-60438552D02*
X216691832Y-60474267D01*
X216691832Y-60474267D02*
X216727547Y-60545695D01*
X238941578Y-95321692D02*
X238989197Y-95369312D01*
X238989197Y-95369312D02*
X239132054Y-95416931D01*
X239132054Y-95416931D02*
X239227292Y-95416931D01*
X239227292Y-95416931D02*
X239370149Y-95369312D01*
X239370149Y-95369312D02*
X239465387Y-95274073D01*
X239465387Y-95274073D02*
X239513006Y-95178835D01*
X239513006Y-95178835D02*
X239560625Y-94988359D01*
X239560625Y-94988359D02*
X239560625Y-94845502D01*
X239560625Y-94845502D02*
X239513006Y-94655026D01*
X239513006Y-94655026D02*
X239465387Y-94559788D01*
X239465387Y-94559788D02*
X239370149Y-94464550D01*
X239370149Y-94464550D02*
X239227292Y-94416931D01*
X239227292Y-94416931D02*
X239132054Y-94416931D01*
X239132054Y-94416931D02*
X238989197Y-94464550D01*
X238989197Y-94464550D02*
X238941578Y-94512169D01*
X238465387Y-95416931D02*
X238274911Y-95416931D01*
X238274911Y-95416931D02*
X238179673Y-95369312D01*
X238179673Y-95369312D02*
X238132054Y-95321692D01*
X238132054Y-95321692D02*
X238036816Y-95178835D01*
X238036816Y-95178835D02*
X237989197Y-94988359D01*
X237989197Y-94988359D02*
X237989197Y-94607407D01*
X237989197Y-94607407D02*
X238036816Y-94512169D01*
X238036816Y-94512169D02*
X238084435Y-94464550D01*
X238084435Y-94464550D02*
X238179673Y-94416931D01*
X238179673Y-94416931D02*
X238370149Y-94416931D01*
X238370149Y-94416931D02*
X238465387Y-94464550D01*
X238465387Y-94464550D02*
X238513006Y-94512169D01*
X238513006Y-94512169D02*
X238560625Y-94607407D01*
X238560625Y-94607407D02*
X238560625Y-94845502D01*
X238560625Y-94845502D02*
X238513006Y-94940740D01*
X238513006Y-94940740D02*
X238465387Y-94988359D01*
X238465387Y-94988359D02*
X238370149Y-95035978D01*
X238370149Y-95035978D02*
X238179673Y-95035978D01*
X238179673Y-95035978D02*
X238084435Y-94988359D01*
X238084435Y-94988359D02*
X238036816Y-94940740D01*
X238036816Y-94940740D02*
X237989197Y-94845502D01*
X219249419Y-92571767D02*
X219297038Y-92619387D01*
X219297038Y-92619387D02*
X219439895Y-92667006D01*
X219439895Y-92667006D02*
X219535133Y-92667006D01*
X219535133Y-92667006D02*
X219677990Y-92619387D01*
X219677990Y-92619387D02*
X219773228Y-92524148D01*
X219773228Y-92524148D02*
X219820847Y-92428910D01*
X219820847Y-92428910D02*
X219868466Y-92238434D01*
X219868466Y-92238434D02*
X219868466Y-92095577D01*
X219868466Y-92095577D02*
X219820847Y-91905101D01*
X219820847Y-91905101D02*
X219773228Y-91809863D01*
X219773228Y-91809863D02*
X219677990Y-91714625D01*
X219677990Y-91714625D02*
X219535133Y-91667006D01*
X219535133Y-91667006D02*
X219439895Y-91667006D01*
X219439895Y-91667006D02*
X219297038Y-91714625D01*
X219297038Y-91714625D02*
X219249419Y-91762244D01*
X218297038Y-92667006D02*
X218868466Y-92667006D01*
X218582752Y-92667006D02*
X218582752Y-91667006D01*
X218582752Y-91667006D02*
X218677990Y-91809863D01*
X218677990Y-91809863D02*
X218773228Y-91905101D01*
X218773228Y-91905101D02*
X218868466Y-91952720D01*
X217439895Y-92000339D02*
X217439895Y-92667006D01*
X217677990Y-91619387D02*
X217916085Y-92333672D01*
X217916085Y-92333672D02*
X217297038Y-92333672D01*
X239561381Y-91795520D02*
X239085190Y-91462187D01*
X239561381Y-91224092D02*
X238561381Y-91224092D01*
X238561381Y-91224092D02*
X238561381Y-91605044D01*
X238561381Y-91605044D02*
X238609000Y-91700282D01*
X238609000Y-91700282D02*
X238656619Y-91747901D01*
X238656619Y-91747901D02*
X238751857Y-91795520D01*
X238751857Y-91795520D02*
X238894714Y-91795520D01*
X238894714Y-91795520D02*
X238989952Y-91747901D01*
X238989952Y-91747901D02*
X239037571Y-91700282D01*
X239037571Y-91700282D02*
X239085190Y-91605044D01*
X239085190Y-91605044D02*
X239085190Y-91224092D01*
X238989952Y-92366949D02*
X238942333Y-92271711D01*
X238942333Y-92271711D02*
X238894714Y-92224092D01*
X238894714Y-92224092D02*
X238799476Y-92176473D01*
X238799476Y-92176473D02*
X238751857Y-92176473D01*
X238751857Y-92176473D02*
X238656619Y-92224092D01*
X238656619Y-92224092D02*
X238609000Y-92271711D01*
X238609000Y-92271711D02*
X238561381Y-92366949D01*
X238561381Y-92366949D02*
X238561381Y-92557425D01*
X238561381Y-92557425D02*
X238609000Y-92652663D01*
X238609000Y-92652663D02*
X238656619Y-92700282D01*
X238656619Y-92700282D02*
X238751857Y-92747901D01*
X238751857Y-92747901D02*
X238799476Y-92747901D01*
X238799476Y-92747901D02*
X238894714Y-92700282D01*
X238894714Y-92700282D02*
X238942333Y-92652663D01*
X238942333Y-92652663D02*
X238989952Y-92557425D01*
X238989952Y-92557425D02*
X238989952Y-92366949D01*
X238989952Y-92366949D02*
X239037571Y-92271711D01*
X239037571Y-92271711D02*
X239085190Y-92224092D01*
X239085190Y-92224092D02*
X239180428Y-92176473D01*
X239180428Y-92176473D02*
X239370904Y-92176473D01*
X239370904Y-92176473D02*
X239466142Y-92224092D01*
X239466142Y-92224092D02*
X239513762Y-92271711D01*
X239513762Y-92271711D02*
X239561381Y-92366949D01*
X239561381Y-92366949D02*
X239561381Y-92557425D01*
X239561381Y-92557425D02*
X239513762Y-92652663D01*
X239513762Y-92652663D02*
X239466142Y-92700282D01*
X239466142Y-92700282D02*
X239370904Y-92747901D01*
X239370904Y-92747901D02*
X239180428Y-92747901D01*
X239180428Y-92747901D02*
X239085190Y-92700282D01*
X239085190Y-92700282D02*
X239037571Y-92652663D01*
X239037571Y-92652663D02*
X238989952Y-92557425D01*
X244351851Y-107539835D02*
X244399470Y-107682692D01*
X244399470Y-107682692D02*
X244447089Y-107730311D01*
X244447089Y-107730311D02*
X244542327Y-107777930D01*
X244542327Y-107777930D02*
X244685184Y-107777930D01*
X244685184Y-107777930D02*
X244780422Y-107730311D01*
X244780422Y-107730311D02*
X244828042Y-107682692D01*
X244828042Y-107682692D02*
X244875661Y-107587454D01*
X244875661Y-107587454D02*
X244875661Y-107206502D01*
X244875661Y-107206502D02*
X243875661Y-107206502D01*
X243875661Y-107206502D02*
X243875661Y-107539835D01*
X243875661Y-107539835D02*
X243923280Y-107635073D01*
X243923280Y-107635073D02*
X243970899Y-107682692D01*
X243970899Y-107682692D02*
X244066137Y-107730311D01*
X244066137Y-107730311D02*
X244161375Y-107730311D01*
X244161375Y-107730311D02*
X244256613Y-107682692D01*
X244256613Y-107682692D02*
X244304232Y-107635073D01*
X244304232Y-107635073D02*
X244351851Y-107539835D01*
X244351851Y-107539835D02*
X244351851Y-107206502D01*
X244875661Y-108349359D02*
X244828042Y-108254121D01*
X244828042Y-108254121D02*
X244780422Y-108206502D01*
X244780422Y-108206502D02*
X244685184Y-108158883D01*
X244685184Y-108158883D02*
X244399470Y-108158883D01*
X244399470Y-108158883D02*
X244304232Y-108206502D01*
X244304232Y-108206502D02*
X244256613Y-108254121D01*
X244256613Y-108254121D02*
X244208994Y-108349359D01*
X244208994Y-108349359D02*
X244208994Y-108492216D01*
X244208994Y-108492216D02*
X244256613Y-108587454D01*
X244256613Y-108587454D02*
X244304232Y-108635073D01*
X244304232Y-108635073D02*
X244399470Y-108682692D01*
X244399470Y-108682692D02*
X244685184Y-108682692D01*
X244685184Y-108682692D02*
X244780422Y-108635073D01*
X244780422Y-108635073D02*
X244828042Y-108587454D01*
X244828042Y-108587454D02*
X244875661Y-108492216D01*
X244875661Y-108492216D02*
X244875661Y-108349359D01*
X244875661Y-109254121D02*
X244828042Y-109158883D01*
X244828042Y-109158883D02*
X244780422Y-109111264D01*
X244780422Y-109111264D02*
X244685184Y-109063645D01*
X244685184Y-109063645D02*
X244399470Y-109063645D01*
X244399470Y-109063645D02*
X244304232Y-109111264D01*
X244304232Y-109111264D02*
X244256613Y-109158883D01*
X244256613Y-109158883D02*
X244208994Y-109254121D01*
X244208994Y-109254121D02*
X244208994Y-109396978D01*
X244208994Y-109396978D02*
X244256613Y-109492216D01*
X244256613Y-109492216D02*
X244304232Y-109539835D01*
X244304232Y-109539835D02*
X244399470Y-109587454D01*
X244399470Y-109587454D02*
X244685184Y-109587454D01*
X244685184Y-109587454D02*
X244780422Y-109539835D01*
X244780422Y-109539835D02*
X244828042Y-109492216D01*
X244828042Y-109492216D02*
X244875661Y-109396978D01*
X244875661Y-109396978D02*
X244875661Y-109254121D01*
X244208994Y-109873169D02*
X244208994Y-110254121D01*
X243875661Y-110016026D02*
X244732803Y-110016026D01*
X244732803Y-110016026D02*
X244828042Y-110063645D01*
X244828042Y-110063645D02*
X244875661Y-110158883D01*
X244875661Y-110158883D02*
X244875661Y-110254121D01*
X244875661Y-111111264D02*
X244875661Y-110539836D01*
X244875661Y-110825550D02*
X243875661Y-110825550D01*
X243875661Y-110825550D02*
X244018518Y-110730312D01*
X244018518Y-110730312D02*
X244113756Y-110635074D01*
X244113756Y-110635074D02*
X244161375Y-110539836D01*
X231848599Y-92195399D02*
X231896219Y-92147780D01*
X231896219Y-92147780D02*
X231943838Y-92004923D01*
X231943838Y-92004923D02*
X231943838Y-91909685D01*
X231943838Y-91909685D02*
X231896219Y-91766828D01*
X231896219Y-91766828D02*
X231800980Y-91671590D01*
X231800980Y-91671590D02*
X231705742Y-91623971D01*
X231705742Y-91623971D02*
X231515266Y-91576352D01*
X231515266Y-91576352D02*
X231372409Y-91576352D01*
X231372409Y-91576352D02*
X231181933Y-91623971D01*
X231181933Y-91623971D02*
X231086695Y-91671590D01*
X231086695Y-91671590D02*
X230991457Y-91766828D01*
X230991457Y-91766828D02*
X230943838Y-91909685D01*
X230943838Y-91909685D02*
X230943838Y-92004923D01*
X230943838Y-92004923D02*
X230991457Y-92147780D01*
X230991457Y-92147780D02*
X231039076Y-92195399D01*
X231372409Y-92766828D02*
X231324790Y-92671590D01*
X231324790Y-92671590D02*
X231277171Y-92623971D01*
X231277171Y-92623971D02*
X231181933Y-92576352D01*
X231181933Y-92576352D02*
X231134314Y-92576352D01*
X231134314Y-92576352D02*
X231039076Y-92623971D01*
X231039076Y-92623971D02*
X230991457Y-92671590D01*
X230991457Y-92671590D02*
X230943838Y-92766828D01*
X230943838Y-92766828D02*
X230943838Y-92957304D01*
X230943838Y-92957304D02*
X230991457Y-93052542D01*
X230991457Y-93052542D02*
X231039076Y-93100161D01*
X231039076Y-93100161D02*
X231134314Y-93147780D01*
X231134314Y-93147780D02*
X231181933Y-93147780D01*
X231181933Y-93147780D02*
X231277171Y-93100161D01*
X231277171Y-93100161D02*
X231324790Y-93052542D01*
X231324790Y-93052542D02*
X231372409Y-92957304D01*
X231372409Y-92957304D02*
X231372409Y-92766828D01*
X231372409Y-92766828D02*
X231420028Y-92671590D01*
X231420028Y-92671590D02*
X231467647Y-92623971D01*
X231467647Y-92623971D02*
X231562885Y-92576352D01*
X231562885Y-92576352D02*
X231753361Y-92576352D01*
X231753361Y-92576352D02*
X231848599Y-92623971D01*
X231848599Y-92623971D02*
X231896219Y-92671590D01*
X231896219Y-92671590D02*
X231943838Y-92766828D01*
X231943838Y-92766828D02*
X231943838Y-92957304D01*
X231943838Y-92957304D02*
X231896219Y-93052542D01*
X231896219Y-93052542D02*
X231848599Y-93100161D01*
X231848599Y-93100161D02*
X231753361Y-93147780D01*
X231753361Y-93147780D02*
X231562885Y-93147780D01*
X231562885Y-93147780D02*
X231467647Y-93100161D01*
X231467647Y-93100161D02*
X231420028Y-93052542D01*
X231420028Y-93052542D02*
X231372409Y-92957304D01*
X237023228Y-95321767D02*
X237070847Y-95369387D01*
X237070847Y-95369387D02*
X237213704Y-95417006D01*
X237213704Y-95417006D02*
X237308942Y-95417006D01*
X237308942Y-95417006D02*
X237451799Y-95369387D01*
X237451799Y-95369387D02*
X237547037Y-95274148D01*
X237547037Y-95274148D02*
X237594656Y-95178910D01*
X237594656Y-95178910D02*
X237642275Y-94988434D01*
X237642275Y-94988434D02*
X237642275Y-94845577D01*
X237642275Y-94845577D02*
X237594656Y-94655101D01*
X237594656Y-94655101D02*
X237547037Y-94559863D01*
X237547037Y-94559863D02*
X237451799Y-94464625D01*
X237451799Y-94464625D02*
X237308942Y-94417006D01*
X237308942Y-94417006D02*
X237213704Y-94417006D01*
X237213704Y-94417006D02*
X237070847Y-94464625D01*
X237070847Y-94464625D02*
X237023228Y-94512244D01*
X236689894Y-94417006D02*
X236023228Y-94417006D01*
X236023228Y-94417006D02*
X236451799Y-95417006D01*
X251506945Y-97875313D02*
X251554564Y-97922933D01*
X251554564Y-97922933D02*
X251697421Y-97970552D01*
X251697421Y-97970552D02*
X251792659Y-97970552D01*
X251792659Y-97970552D02*
X251935516Y-97922933D01*
X251935516Y-97922933D02*
X252030754Y-97827694D01*
X252030754Y-97827694D02*
X252078373Y-97732456D01*
X252078373Y-97732456D02*
X252125992Y-97541980D01*
X252125992Y-97541980D02*
X252125992Y-97399123D01*
X252125992Y-97399123D02*
X252078373Y-97208647D01*
X252078373Y-97208647D02*
X252030754Y-97113409D01*
X252030754Y-97113409D02*
X251935516Y-97018171D01*
X251935516Y-97018171D02*
X251792659Y-96970552D01*
X251792659Y-96970552D02*
X251697421Y-96970552D01*
X251697421Y-96970552D02*
X251554564Y-97018171D01*
X251554564Y-97018171D02*
X251506945Y-97065790D01*
X250602183Y-96970552D02*
X251078373Y-96970552D01*
X251078373Y-96970552D02*
X251125992Y-97446742D01*
X251125992Y-97446742D02*
X251078373Y-97399123D01*
X251078373Y-97399123D02*
X250983135Y-97351504D01*
X250983135Y-97351504D02*
X250745040Y-97351504D01*
X250745040Y-97351504D02*
X250649802Y-97399123D01*
X250649802Y-97399123D02*
X250602183Y-97446742D01*
X250602183Y-97446742D02*
X250554564Y-97541980D01*
X250554564Y-97541980D02*
X250554564Y-97780075D01*
X250554564Y-97780075D02*
X250602183Y-97875313D01*
X250602183Y-97875313D02*
X250649802Y-97922933D01*
X250649802Y-97922933D02*
X250745040Y-97970552D01*
X250745040Y-97970552D02*
X250983135Y-97970552D01*
X250983135Y-97970552D02*
X251078373Y-97922933D01*
X251078373Y-97922933D02*
X251125992Y-97875313D01*
X216082752Y-96940815D02*
X216082752Y-97417006D01*
X216416085Y-96417006D02*
X216082752Y-96940815D01*
X216082752Y-96940815D02*
X215749419Y-96417006D01*
X214892276Y-97417006D02*
X215463704Y-97417006D01*
X215177990Y-97417006D02*
X215177990Y-96417006D01*
X215177990Y-96417006D02*
X215273228Y-96559863D01*
X215273228Y-96559863D02*
X215368466Y-96655101D01*
X215368466Y-96655101D02*
X215463704Y-96702720D01*
X249784383Y-102040910D02*
X249308192Y-101707577D01*
X249784383Y-101469482D02*
X248784383Y-101469482D01*
X248784383Y-101469482D02*
X248784383Y-101850434D01*
X248784383Y-101850434D02*
X248832002Y-101945672D01*
X248832002Y-101945672D02*
X248879621Y-101993291D01*
X248879621Y-101993291D02*
X248974859Y-102040910D01*
X248974859Y-102040910D02*
X249117716Y-102040910D01*
X249117716Y-102040910D02*
X249212954Y-101993291D01*
X249212954Y-101993291D02*
X249260573Y-101945672D01*
X249260573Y-101945672D02*
X249308192Y-101850434D01*
X249308192Y-101850434D02*
X249308192Y-101469482D01*
X248784383Y-102945672D02*
X248784383Y-102469482D01*
X248784383Y-102469482D02*
X249260573Y-102421863D01*
X249260573Y-102421863D02*
X249212954Y-102469482D01*
X249212954Y-102469482D02*
X249165335Y-102564720D01*
X249165335Y-102564720D02*
X249165335Y-102802815D01*
X249165335Y-102802815D02*
X249212954Y-102898053D01*
X249212954Y-102898053D02*
X249260573Y-102945672D01*
X249260573Y-102945672D02*
X249355811Y-102993291D01*
X249355811Y-102993291D02*
X249593906Y-102993291D01*
X249593906Y-102993291D02*
X249689144Y-102945672D01*
X249689144Y-102945672D02*
X249736764Y-102898053D01*
X249736764Y-102898053D02*
X249784383Y-102802815D01*
X249784383Y-102802815D02*
X249784383Y-102564720D01*
X249784383Y-102564720D02*
X249736764Y-102469482D01*
X249736764Y-102469482D02*
X249689144Y-102421863D01*
X155774502Y-78649580D02*
X155822121Y-78697200D01*
X155822121Y-78697200D02*
X155964978Y-78744819D01*
X155964978Y-78744819D02*
X156060216Y-78744819D01*
X156060216Y-78744819D02*
X156203073Y-78697200D01*
X156203073Y-78697200D02*
X156298311Y-78601961D01*
X156298311Y-78601961D02*
X156345930Y-78506723D01*
X156345930Y-78506723D02*
X156393549Y-78316247D01*
X156393549Y-78316247D02*
X156393549Y-78173390D01*
X156393549Y-78173390D02*
X156345930Y-77982914D01*
X156345930Y-77982914D02*
X156298311Y-77887676D01*
X156298311Y-77887676D02*
X156203073Y-77792438D01*
X156203073Y-77792438D02*
X156060216Y-77744819D01*
X156060216Y-77744819D02*
X155964978Y-77744819D01*
X155964978Y-77744819D02*
X155822121Y-77792438D01*
X155822121Y-77792438D02*
X155774502Y-77840057D01*
X154822121Y-78744819D02*
X155393549Y-78744819D01*
X155107835Y-78744819D02*
X155107835Y-77744819D01*
X155107835Y-77744819D02*
X155203073Y-77887676D01*
X155203073Y-77887676D02*
X155298311Y-77982914D01*
X155298311Y-77982914D02*
X155393549Y-78030533D01*
X97152694Y-72925350D02*
X97866979Y-72925350D01*
X97866979Y-72925350D02*
X98009836Y-72877731D01*
X98009836Y-72877731D02*
X98105075Y-72782493D01*
X98105075Y-72782493D02*
X98152694Y-72639636D01*
X98152694Y-72639636D02*
X98152694Y-72544398D01*
X97152694Y-73877731D02*
X97152694Y-73401541D01*
X97152694Y-73401541D02*
X97628884Y-73353922D01*
X97628884Y-73353922D02*
X97581265Y-73401541D01*
X97581265Y-73401541D02*
X97533646Y-73496779D01*
X97533646Y-73496779D02*
X97533646Y-73734874D01*
X97533646Y-73734874D02*
X97581265Y-73830112D01*
X97581265Y-73830112D02*
X97628884Y-73877731D01*
X97628884Y-73877731D02*
X97724122Y-73925350D01*
X97724122Y-73925350D02*
X97962217Y-73925350D01*
X97962217Y-73925350D02*
X98057455Y-73877731D01*
X98057455Y-73877731D02*
X98105075Y-73830112D01*
X98105075Y-73830112D02*
X98152694Y-73734874D01*
X98152694Y-73734874D02*
X98152694Y-73496779D01*
X98152694Y-73496779D02*
X98105075Y-73401541D01*
X98105075Y-73401541D02*
X98057455Y-73353922D01*
X104568649Y-74521061D02*
X103759126Y-74521061D01*
X103759126Y-74521061D02*
X103663888Y-74473442D01*
X103663888Y-74473442D02*
X103616269Y-74425823D01*
X103616269Y-74425823D02*
X103568649Y-74330585D01*
X103568649Y-74330585D02*
X103568649Y-74140109D01*
X103568649Y-74140109D02*
X103616269Y-74044871D01*
X103616269Y-74044871D02*
X103663888Y-73997252D01*
X103663888Y-73997252D02*
X103759126Y-73949633D01*
X103759126Y-73949633D02*
X104568649Y-73949633D01*
X103616269Y-73521061D02*
X103568649Y-73378204D01*
X103568649Y-73378204D02*
X103568649Y-73140109D01*
X103568649Y-73140109D02*
X103616269Y-73044871D01*
X103616269Y-73044871D02*
X103663888Y-72997252D01*
X103663888Y-72997252D02*
X103759126Y-72949633D01*
X103759126Y-72949633D02*
X103854364Y-72949633D01*
X103854364Y-72949633D02*
X103949602Y-72997252D01*
X103949602Y-72997252D02*
X103997221Y-73044871D01*
X103997221Y-73044871D02*
X104044840Y-73140109D01*
X104044840Y-73140109D02*
X104092459Y-73330585D01*
X104092459Y-73330585D02*
X104140078Y-73425823D01*
X104140078Y-73425823D02*
X104187697Y-73473442D01*
X104187697Y-73473442D02*
X104282935Y-73521061D01*
X104282935Y-73521061D02*
X104378173Y-73521061D01*
X104378173Y-73521061D02*
X104473411Y-73473442D01*
X104473411Y-73473442D02*
X104521030Y-73425823D01*
X104521030Y-73425823D02*
X104568649Y-73330585D01*
X104568649Y-73330585D02*
X104568649Y-73092490D01*
X104568649Y-73092490D02*
X104521030Y-72949633D01*
X104092459Y-72187728D02*
X104044840Y-72044871D01*
X104044840Y-72044871D02*
X103997221Y-71997252D01*
X103997221Y-71997252D02*
X103901983Y-71949633D01*
X103901983Y-71949633D02*
X103759126Y-71949633D01*
X103759126Y-71949633D02*
X103663888Y-71997252D01*
X103663888Y-71997252D02*
X103616269Y-72044871D01*
X103616269Y-72044871D02*
X103568649Y-72140109D01*
X103568649Y-72140109D02*
X103568649Y-72521061D01*
X103568649Y-72521061D02*
X104568649Y-72521061D01*
X104568649Y-72521061D02*
X104568649Y-72187728D01*
X104568649Y-72187728D02*
X104521030Y-72092490D01*
X104521030Y-72092490D02*
X104473411Y-72044871D01*
X104473411Y-72044871D02*
X104378173Y-71997252D01*
X104378173Y-71997252D02*
X104282935Y-71997252D01*
X104282935Y-71997252D02*
X104187697Y-72044871D01*
X104187697Y-72044871D02*
X104140078Y-72092490D01*
X104140078Y-72092490D02*
X104092459Y-72187728D01*
X104092459Y-72187728D02*
X104092459Y-72521061D01*
X232618466Y-96917006D02*
X232618466Y-97726529D01*
X232618466Y-97726529D02*
X232570847Y-97821767D01*
X232570847Y-97821767D02*
X232523228Y-97869387D01*
X232523228Y-97869387D02*
X232427990Y-97917006D01*
X232427990Y-97917006D02*
X232237514Y-97917006D01*
X232237514Y-97917006D02*
X232142276Y-97869387D01*
X232142276Y-97869387D02*
X232094657Y-97821767D01*
X232094657Y-97821767D02*
X232047038Y-97726529D01*
X232047038Y-97726529D02*
X232047038Y-96917006D01*
X231666085Y-96917006D02*
X231047038Y-96917006D01*
X231047038Y-96917006D02*
X231380371Y-97297958D01*
X231380371Y-97297958D02*
X231237514Y-97297958D01*
X231237514Y-97297958D02*
X231142276Y-97345577D01*
X231142276Y-97345577D02*
X231094657Y-97393196D01*
X231094657Y-97393196D02*
X231047038Y-97488434D01*
X231047038Y-97488434D02*
X231047038Y-97726529D01*
X231047038Y-97726529D02*
X231094657Y-97821767D01*
X231094657Y-97821767D02*
X231142276Y-97869387D01*
X231142276Y-97869387D02*
X231237514Y-97917006D01*
X231237514Y-97917006D02*
X231523228Y-97917006D01*
X231523228Y-97917006D02*
X231618466Y-97869387D01*
X231618466Y-97869387D02*
X231666085Y-97821767D01*
X161641666Y-78909580D02*
X161689285Y-78957200D01*
X161689285Y-78957200D02*
X161832142Y-79004819D01*
X161832142Y-79004819D02*
X161927380Y-79004819D01*
X161927380Y-79004819D02*
X162070237Y-78957200D01*
X162070237Y-78957200D02*
X162165475Y-78861961D01*
X162165475Y-78861961D02*
X162213094Y-78766723D01*
X162213094Y-78766723D02*
X162260713Y-78576247D01*
X162260713Y-78576247D02*
X162260713Y-78433390D01*
X162260713Y-78433390D02*
X162213094Y-78242914D01*
X162213094Y-78242914D02*
X162165475Y-78147676D01*
X162165475Y-78147676D02*
X162070237Y-78052438D01*
X162070237Y-78052438D02*
X161927380Y-78004819D01*
X161927380Y-78004819D02*
X161832142Y-78004819D01*
X161832142Y-78004819D02*
X161689285Y-78052438D01*
X161689285Y-78052438D02*
X161641666Y-78100057D01*
X160784523Y-78338152D02*
X160784523Y-79004819D01*
X161022618Y-77957200D02*
X161260713Y-78671485D01*
X161260713Y-78671485D02*
X160641666Y-78671485D01*
X237023228Y-93917006D02*
X237356561Y-93440815D01*
X237594656Y-93917006D02*
X237594656Y-92917006D01*
X237594656Y-92917006D02*
X237213704Y-92917006D01*
X237213704Y-92917006D02*
X237118466Y-92964625D01*
X237118466Y-92964625D02*
X237070847Y-93012244D01*
X237070847Y-93012244D02*
X237023228Y-93107482D01*
X237023228Y-93107482D02*
X237023228Y-93250339D01*
X237023228Y-93250339D02*
X237070847Y-93345577D01*
X237070847Y-93345577D02*
X237118466Y-93393196D01*
X237118466Y-93393196D02*
X237213704Y-93440815D01*
X237213704Y-93440815D02*
X237594656Y-93440815D01*
X236689894Y-92917006D02*
X236070847Y-92917006D01*
X236070847Y-92917006D02*
X236404180Y-93297958D01*
X236404180Y-93297958D02*
X236261323Y-93297958D01*
X236261323Y-93297958D02*
X236166085Y-93345577D01*
X236166085Y-93345577D02*
X236118466Y-93393196D01*
X236118466Y-93393196D02*
X236070847Y-93488434D01*
X236070847Y-93488434D02*
X236070847Y-93726529D01*
X236070847Y-93726529D02*
X236118466Y-93821767D01*
X236118466Y-93821767D02*
X236166085Y-93869387D01*
X236166085Y-93869387D02*
X236261323Y-93917006D01*
X236261323Y-93917006D02*
X236547037Y-93917006D01*
X236547037Y-93917006D02*
X236642275Y-93869387D01*
X236642275Y-93869387D02*
X236689894Y-93821767D01*
X214723228Y-94521767D02*
X214770847Y-94569387D01*
X214770847Y-94569387D02*
X214913704Y-94617006D01*
X214913704Y-94617006D02*
X215008942Y-94617006D01*
X215008942Y-94617006D02*
X215151799Y-94569387D01*
X215151799Y-94569387D02*
X215247037Y-94474148D01*
X215247037Y-94474148D02*
X215294656Y-94378910D01*
X215294656Y-94378910D02*
X215342275Y-94188434D01*
X215342275Y-94188434D02*
X215342275Y-94045577D01*
X215342275Y-94045577D02*
X215294656Y-93855101D01*
X215294656Y-93855101D02*
X215247037Y-93759863D01*
X215247037Y-93759863D02*
X215151799Y-93664625D01*
X215151799Y-93664625D02*
X215008942Y-93617006D01*
X215008942Y-93617006D02*
X214913704Y-93617006D01*
X214913704Y-93617006D02*
X214770847Y-93664625D01*
X214770847Y-93664625D02*
X214723228Y-93712244D01*
X214389894Y-93617006D02*
X213770847Y-93617006D01*
X213770847Y-93617006D02*
X214104180Y-93997958D01*
X214104180Y-93997958D02*
X213961323Y-93997958D01*
X213961323Y-93997958D02*
X213866085Y-94045577D01*
X213866085Y-94045577D02*
X213818466Y-94093196D01*
X213818466Y-94093196D02*
X213770847Y-94188434D01*
X213770847Y-94188434D02*
X213770847Y-94426529D01*
X213770847Y-94426529D02*
X213818466Y-94521767D01*
X213818466Y-94521767D02*
X213866085Y-94569387D01*
X213866085Y-94569387D02*
X213961323Y-94617006D01*
X213961323Y-94617006D02*
X214247037Y-94617006D01*
X214247037Y-94617006D02*
X214342275Y-94569387D01*
X214342275Y-94569387D02*
X214389894Y-94521767D01*
X239767943Y-93897650D02*
X239815562Y-93945270D01*
X239815562Y-93945270D02*
X239958419Y-93992889D01*
X239958419Y-93992889D02*
X240053657Y-93992889D01*
X240053657Y-93992889D02*
X240196514Y-93945270D01*
X240196514Y-93945270D02*
X240291752Y-93850031D01*
X240291752Y-93850031D02*
X240339371Y-93754793D01*
X240339371Y-93754793D02*
X240386990Y-93564317D01*
X240386990Y-93564317D02*
X240386990Y-93421460D01*
X240386990Y-93421460D02*
X240339371Y-93230984D01*
X240339371Y-93230984D02*
X240291752Y-93135746D01*
X240291752Y-93135746D02*
X240196514Y-93040508D01*
X240196514Y-93040508D02*
X240053657Y-92992889D01*
X240053657Y-92992889D02*
X239958419Y-92992889D01*
X239958419Y-92992889D02*
X239815562Y-93040508D01*
X239815562Y-93040508D02*
X239767943Y-93088127D01*
X238815562Y-93992889D02*
X239386990Y-93992889D01*
X239101276Y-93992889D02*
X239101276Y-92992889D01*
X239101276Y-92992889D02*
X239196514Y-93135746D01*
X239196514Y-93135746D02*
X239291752Y-93230984D01*
X239291752Y-93230984D02*
X239386990Y-93278603D01*
X237958419Y-92992889D02*
X238148895Y-92992889D01*
X238148895Y-92992889D02*
X238244133Y-93040508D01*
X238244133Y-93040508D02*
X238291752Y-93088127D01*
X238291752Y-93088127D02*
X238386990Y-93230984D01*
X238386990Y-93230984D02*
X238434609Y-93421460D01*
X238434609Y-93421460D02*
X238434609Y-93802412D01*
X238434609Y-93802412D02*
X238386990Y-93897650D01*
X238386990Y-93897650D02*
X238339371Y-93945270D01*
X238339371Y-93945270D02*
X238244133Y-93992889D01*
X238244133Y-93992889D02*
X238053657Y-93992889D01*
X238053657Y-93992889D02*
X237958419Y-93945270D01*
X237958419Y-93945270D02*
X237910800Y-93897650D01*
X237910800Y-93897650D02*
X237863181Y-93802412D01*
X237863181Y-93802412D02*
X237863181Y-93564317D01*
X237863181Y-93564317D02*
X237910800Y-93469079D01*
X237910800Y-93469079D02*
X237958419Y-93421460D01*
X237958419Y-93421460D02*
X238053657Y-93373841D01*
X238053657Y-93373841D02*
X238244133Y-93373841D01*
X238244133Y-93373841D02*
X238339371Y-93421460D01*
X238339371Y-93421460D02*
X238386990Y-93469079D01*
X238386990Y-93469079D02*
X238434609Y-93564317D01*
X221523228Y-96321767D02*
X221570847Y-96369387D01*
X221570847Y-96369387D02*
X221713704Y-96417006D01*
X221713704Y-96417006D02*
X221808942Y-96417006D01*
X221808942Y-96417006D02*
X221951799Y-96369387D01*
X221951799Y-96369387D02*
X222047037Y-96274148D01*
X222047037Y-96274148D02*
X222094656Y-96178910D01*
X222094656Y-96178910D02*
X222142275Y-95988434D01*
X222142275Y-95988434D02*
X222142275Y-95845577D01*
X222142275Y-95845577D02*
X222094656Y-95655101D01*
X222094656Y-95655101D02*
X222047037Y-95559863D01*
X222047037Y-95559863D02*
X221951799Y-95464625D01*
X221951799Y-95464625D02*
X221808942Y-95417006D01*
X221808942Y-95417006D02*
X221713704Y-95417006D01*
X221713704Y-95417006D02*
X221570847Y-95464625D01*
X221570847Y-95464625D02*
X221523228Y-95512244D01*
X221142275Y-95512244D02*
X221094656Y-95464625D01*
X221094656Y-95464625D02*
X220999418Y-95417006D01*
X220999418Y-95417006D02*
X220761323Y-95417006D01*
X220761323Y-95417006D02*
X220666085Y-95464625D01*
X220666085Y-95464625D02*
X220618466Y-95512244D01*
X220618466Y-95512244D02*
X220570847Y-95607482D01*
X220570847Y-95607482D02*
X220570847Y-95702720D01*
X220570847Y-95702720D02*
X220618466Y-95845577D01*
X220618466Y-95845577D02*
X221189894Y-96417006D01*
X221189894Y-96417006D02*
X220570847Y-96417006D01*
X149992857Y-74034819D02*
X150326190Y-73558628D01*
X150564285Y-74034819D02*
X150564285Y-73034819D01*
X150564285Y-73034819D02*
X150183333Y-73034819D01*
X150183333Y-73034819D02*
X150088095Y-73082438D01*
X150088095Y-73082438D02*
X150040476Y-73130057D01*
X150040476Y-73130057D02*
X149992857Y-73225295D01*
X149992857Y-73225295D02*
X149992857Y-73368152D01*
X149992857Y-73368152D02*
X150040476Y-73463390D01*
X150040476Y-73463390D02*
X150088095Y-73511009D01*
X150088095Y-73511009D02*
X150183333Y-73558628D01*
X150183333Y-73558628D02*
X150564285Y-73558628D01*
X149040476Y-74034819D02*
X149611904Y-74034819D01*
X149326190Y-74034819D02*
X149326190Y-73034819D01*
X149326190Y-73034819D02*
X149421428Y-73177676D01*
X149421428Y-73177676D02*
X149516666Y-73272914D01*
X149516666Y-73272914D02*
X149611904Y-73320533D01*
X148088095Y-74034819D02*
X148659523Y-74034819D01*
X148373809Y-74034819D02*
X148373809Y-73034819D01*
X148373809Y-73034819D02*
X148469047Y-73177676D01*
X148469047Y-73177676D02*
X148564285Y-73272914D01*
X148564285Y-73272914D02*
X148659523Y-73320533D01*
X95451474Y-72903328D02*
X96165759Y-72903328D01*
X96165759Y-72903328D02*
X96308616Y-72855709D01*
X96308616Y-72855709D02*
X96403855Y-72760471D01*
X96403855Y-72760471D02*
X96451474Y-72617614D01*
X96451474Y-72617614D02*
X96451474Y-72522376D01*
X95451474Y-73284281D02*
X95451474Y-73903328D01*
X95451474Y-73903328D02*
X95832426Y-73569995D01*
X95832426Y-73569995D02*
X95832426Y-73712852D01*
X95832426Y-73712852D02*
X95880045Y-73808090D01*
X95880045Y-73808090D02*
X95927664Y-73855709D01*
X95927664Y-73855709D02*
X96022902Y-73903328D01*
X96022902Y-73903328D02*
X96260997Y-73903328D01*
X96260997Y-73903328D02*
X96356235Y-73855709D01*
X96356235Y-73855709D02*
X96403855Y-73808090D01*
X96403855Y-73808090D02*
X96451474Y-73712852D01*
X96451474Y-73712852D02*
X96451474Y-73427138D01*
X96451474Y-73427138D02*
X96403855Y-73331900D01*
X96403855Y-73331900D02*
X96356235Y-73284281D01*
X89354819Y-70212852D02*
X89354819Y-69736662D01*
X89354819Y-69736662D02*
X88354819Y-69736662D01*
X88831009Y-70546186D02*
X88831009Y-70879519D01*
X89354819Y-71022376D02*
X89354819Y-70546186D01*
X89354819Y-70546186D02*
X88354819Y-70546186D01*
X88354819Y-70546186D02*
X88354819Y-71022376D01*
X89354819Y-71450948D02*
X88354819Y-71450948D01*
X88354819Y-71450948D02*
X88354819Y-71689043D01*
X88354819Y-71689043D02*
X88402438Y-71831900D01*
X88402438Y-71831900D02*
X88497676Y-71927138D01*
X88497676Y-71927138D02*
X88592914Y-71974757D01*
X88592914Y-71974757D02*
X88783390Y-72022376D01*
X88783390Y-72022376D02*
X88926247Y-72022376D01*
X88926247Y-72022376D02*
X89116723Y-71974757D01*
X89116723Y-71974757D02*
X89211961Y-71927138D01*
X89211961Y-71927138D02*
X89307200Y-71831900D01*
X89307200Y-71831900D02*
X89354819Y-71689043D01*
X89354819Y-71689043D02*
X89354819Y-71450948D01*
X88973866Y-72450948D02*
X88973866Y-73212853D01*
X89307200Y-73641424D02*
X89354819Y-73784281D01*
X89354819Y-73784281D02*
X89354819Y-74022376D01*
X89354819Y-74022376D02*
X89307200Y-74117614D01*
X89307200Y-74117614D02*
X89259580Y-74165233D01*
X89259580Y-74165233D02*
X89164342Y-74212852D01*
X89164342Y-74212852D02*
X89069104Y-74212852D01*
X89069104Y-74212852D02*
X88973866Y-74165233D01*
X88973866Y-74165233D02*
X88926247Y-74117614D01*
X88926247Y-74117614D02*
X88878628Y-74022376D01*
X88878628Y-74022376D02*
X88831009Y-73831900D01*
X88831009Y-73831900D02*
X88783390Y-73736662D01*
X88783390Y-73736662D02*
X88735771Y-73689043D01*
X88735771Y-73689043D02*
X88640533Y-73641424D01*
X88640533Y-73641424D02*
X88545295Y-73641424D01*
X88545295Y-73641424D02*
X88450057Y-73689043D01*
X88450057Y-73689043D02*
X88402438Y-73736662D01*
X88402438Y-73736662D02*
X88354819Y-73831900D01*
X88354819Y-73831900D02*
X88354819Y-74069995D01*
X88354819Y-74069995D02*
X88402438Y-74212852D01*
X88688152Y-74498567D02*
X88688152Y-74879519D01*
X88354819Y-74641424D02*
X89211961Y-74641424D01*
X89211961Y-74641424D02*
X89307200Y-74689043D01*
X89307200Y-74689043D02*
X89354819Y-74784281D01*
X89354819Y-74784281D02*
X89354819Y-74879519D01*
X89354819Y-75212853D02*
X88688152Y-75212853D01*
X88878628Y-75212853D02*
X88783390Y-75260472D01*
X88783390Y-75260472D02*
X88735771Y-75308091D01*
X88735771Y-75308091D02*
X88688152Y-75403329D01*
X88688152Y-75403329D02*
X88688152Y-75498567D01*
X89354819Y-75831901D02*
X88688152Y-75831901D01*
X88354819Y-75831901D02*
X88402438Y-75784282D01*
X88402438Y-75784282D02*
X88450057Y-75831901D01*
X88450057Y-75831901D02*
X88402438Y-75879520D01*
X88402438Y-75879520D02*
X88354819Y-75831901D01*
X88354819Y-75831901D02*
X88450057Y-75831901D01*
X88688152Y-76308091D02*
X89688152Y-76308091D01*
X88735771Y-76308091D02*
X88688152Y-76403329D01*
X88688152Y-76403329D02*
X88688152Y-76593805D01*
X88688152Y-76593805D02*
X88735771Y-76689043D01*
X88735771Y-76689043D02*
X88783390Y-76736662D01*
X88783390Y-76736662D02*
X88878628Y-76784281D01*
X88878628Y-76784281D02*
X89164342Y-76784281D01*
X89164342Y-76784281D02*
X89259580Y-76736662D01*
X89259580Y-76736662D02*
X89307200Y-76689043D01*
X89307200Y-76689043D02*
X89354819Y-76593805D01*
X89354819Y-76593805D02*
X89354819Y-76403329D01*
X89354819Y-76403329D02*
X89307200Y-76308091D01*
X252113356Y-70916965D02*
X251637165Y-70583632D01*
X252113356Y-70345537D02*
X251113356Y-70345537D01*
X251113356Y-70345537D02*
X251113356Y-70726489D01*
X251113356Y-70726489D02*
X251160975Y-70821727D01*
X251160975Y-70821727D02*
X251208594Y-70869346D01*
X251208594Y-70869346D02*
X251303832Y-70916965D01*
X251303832Y-70916965D02*
X251446689Y-70916965D01*
X251446689Y-70916965D02*
X251541927Y-70869346D01*
X251541927Y-70869346D02*
X251589546Y-70821727D01*
X251589546Y-70821727D02*
X251637165Y-70726489D01*
X251637165Y-70726489D02*
X251637165Y-70345537D01*
X252065737Y-71726489D02*
X252113356Y-71631251D01*
X252113356Y-71631251D02*
X252113356Y-71440775D01*
X252113356Y-71440775D02*
X252065737Y-71345537D01*
X252065737Y-71345537D02*
X251970498Y-71297918D01*
X251970498Y-71297918D02*
X251589546Y-71297918D01*
X251589546Y-71297918D02*
X251494308Y-71345537D01*
X251494308Y-71345537D02*
X251446689Y-71440775D01*
X251446689Y-71440775D02*
X251446689Y-71631251D01*
X251446689Y-71631251D02*
X251494308Y-71726489D01*
X251494308Y-71726489D02*
X251589546Y-71774108D01*
X251589546Y-71774108D02*
X251684784Y-71774108D01*
X251684784Y-71774108D02*
X251780022Y-71297918D01*
X252065737Y-72155061D02*
X252113356Y-72250299D01*
X252113356Y-72250299D02*
X252113356Y-72440775D01*
X252113356Y-72440775D02*
X252065737Y-72536013D01*
X252065737Y-72536013D02*
X251970498Y-72583632D01*
X251970498Y-72583632D02*
X251922879Y-72583632D01*
X251922879Y-72583632D02*
X251827641Y-72536013D01*
X251827641Y-72536013D02*
X251780022Y-72440775D01*
X251780022Y-72440775D02*
X251780022Y-72297918D01*
X251780022Y-72297918D02*
X251732403Y-72202680D01*
X251732403Y-72202680D02*
X251637165Y-72155061D01*
X251637165Y-72155061D02*
X251589546Y-72155061D01*
X251589546Y-72155061D02*
X251494308Y-72202680D01*
X251494308Y-72202680D02*
X251446689Y-72297918D01*
X251446689Y-72297918D02*
X251446689Y-72440775D01*
X251446689Y-72440775D02*
X251494308Y-72536013D01*
X252065737Y-73393156D02*
X252113356Y-73297918D01*
X252113356Y-73297918D02*
X252113356Y-73107442D01*
X252113356Y-73107442D02*
X252065737Y-73012204D01*
X252065737Y-73012204D02*
X251970498Y-72964585D01*
X251970498Y-72964585D02*
X251589546Y-72964585D01*
X251589546Y-72964585D02*
X251494308Y-73012204D01*
X251494308Y-73012204D02*
X251446689Y-73107442D01*
X251446689Y-73107442D02*
X251446689Y-73297918D01*
X251446689Y-73297918D02*
X251494308Y-73393156D01*
X251494308Y-73393156D02*
X251589546Y-73440775D01*
X251589546Y-73440775D02*
X251684784Y-73440775D01*
X251684784Y-73440775D02*
X251780022Y-72964585D01*
X251446689Y-73726490D02*
X251446689Y-74107442D01*
X251113356Y-73869347D02*
X251970498Y-73869347D01*
X251970498Y-73869347D02*
X252065737Y-73916966D01*
X252065737Y-73916966D02*
X252113356Y-74012204D01*
X252113356Y-74012204D02*
X252113356Y-74107442D01*
X252113356Y-74964585D02*
X252113356Y-74393157D01*
X252113356Y-74678871D02*
X251113356Y-74678871D01*
X251113356Y-74678871D02*
X251256213Y-74583633D01*
X251256213Y-74583633D02*
X251351451Y-74488395D01*
X251351451Y-74488395D02*
X251399070Y-74393157D01*
X159261904Y-73304819D02*
X159261904Y-74114342D01*
X159261904Y-74114342D02*
X159214285Y-74209580D01*
X159214285Y-74209580D02*
X159166666Y-74257200D01*
X159166666Y-74257200D02*
X159071428Y-74304819D01*
X159071428Y-74304819D02*
X158880952Y-74304819D01*
X158880952Y-74304819D02*
X158785714Y-74257200D01*
X158785714Y-74257200D02*
X158738095Y-74209580D01*
X158738095Y-74209580D02*
X158690476Y-74114342D01*
X158690476Y-74114342D02*
X158690476Y-73304819D01*
X157690476Y-74304819D02*
X158261904Y-74304819D01*
X157976190Y-74304819D02*
X157976190Y-73304819D01*
X157976190Y-73304819D02*
X158071428Y-73447676D01*
X158071428Y-73447676D02*
X158166666Y-73542914D01*
X158166666Y-73542914D02*
X158261904Y-73590533D01*
X246117993Y-97095696D02*
X246117993Y-97905219D01*
X246117993Y-97905219D02*
X246070374Y-98000457D01*
X246070374Y-98000457D02*
X246022755Y-98048077D01*
X246022755Y-98048077D02*
X245927517Y-98095696D01*
X245927517Y-98095696D02*
X245737041Y-98095696D01*
X245737041Y-98095696D02*
X245641803Y-98048077D01*
X245641803Y-98048077D02*
X245594184Y-98000457D01*
X245594184Y-98000457D02*
X245546565Y-97905219D01*
X245546565Y-97905219D02*
X245546565Y-97095696D01*
X245117993Y-97190934D02*
X245070374Y-97143315D01*
X245070374Y-97143315D02*
X244975136Y-97095696D01*
X244975136Y-97095696D02*
X244737041Y-97095696D01*
X244737041Y-97095696D02*
X244641803Y-97143315D01*
X244641803Y-97143315D02*
X244594184Y-97190934D01*
X244594184Y-97190934D02*
X244546565Y-97286172D01*
X244546565Y-97286172D02*
X244546565Y-97381410D01*
X244546565Y-97381410D02*
X244594184Y-97524267D01*
X244594184Y-97524267D02*
X245165612Y-98095696D01*
X245165612Y-98095696D02*
X244546565Y-98095696D01*
X251430225Y-99644200D02*
X250954034Y-99310867D01*
X251430225Y-99072772D02*
X250430225Y-99072772D01*
X250430225Y-99072772D02*
X250430225Y-99453724D01*
X250430225Y-99453724D02*
X250477844Y-99548962D01*
X250477844Y-99548962D02*
X250525463Y-99596581D01*
X250525463Y-99596581D02*
X250620701Y-99644200D01*
X250620701Y-99644200D02*
X250763558Y-99644200D01*
X250763558Y-99644200D02*
X250858796Y-99596581D01*
X250858796Y-99596581D02*
X250906415Y-99548962D01*
X250906415Y-99548962D02*
X250954034Y-99453724D01*
X250954034Y-99453724D02*
X250954034Y-99072772D01*
X250430225Y-100501343D02*
X250430225Y-100310867D01*
X250430225Y-100310867D02*
X250477844Y-100215629D01*
X250477844Y-100215629D02*
X250525463Y-100168010D01*
X250525463Y-100168010D02*
X250668320Y-100072772D01*
X250668320Y-100072772D02*
X250858796Y-100025153D01*
X250858796Y-100025153D02*
X251239748Y-100025153D01*
X251239748Y-100025153D02*
X251334986Y-100072772D01*
X251334986Y-100072772D02*
X251382606Y-100120391D01*
X251382606Y-100120391D02*
X251430225Y-100215629D01*
X251430225Y-100215629D02*
X251430225Y-100406105D01*
X251430225Y-100406105D02*
X251382606Y-100501343D01*
X251382606Y-100501343D02*
X251334986Y-100548962D01*
X251334986Y-100548962D02*
X251239748Y-100596581D01*
X251239748Y-100596581D02*
X251001653Y-100596581D01*
X251001653Y-100596581D02*
X250906415Y-100548962D01*
X250906415Y-100548962D02*
X250858796Y-100501343D01*
X250858796Y-100501343D02*
X250811177Y-100406105D01*
X250811177Y-100406105D02*
X250811177Y-100215629D01*
X250811177Y-100215629D02*
X250858796Y-100120391D01*
X250858796Y-100120391D02*
X250906415Y-100072772D01*
X250906415Y-100072772D02*
X251001653Y-100025153D01*
X224426157Y-102142856D02*
X224759490Y-101666665D01*
X224997585Y-102142856D02*
X224997585Y-101142856D01*
X224997585Y-101142856D02*
X224616633Y-101142856D01*
X224616633Y-101142856D02*
X224521395Y-101190475D01*
X224521395Y-101190475D02*
X224473776Y-101238094D01*
X224473776Y-101238094D02*
X224426157Y-101333332D01*
X224426157Y-101333332D02*
X224426157Y-101476189D01*
X224426157Y-101476189D02*
X224473776Y-101571427D01*
X224473776Y-101571427D02*
X224521395Y-101619046D01*
X224521395Y-101619046D02*
X224616633Y-101666665D01*
X224616633Y-101666665D02*
X224997585Y-101666665D01*
X223949966Y-102142856D02*
X223759490Y-102142856D01*
X223759490Y-102142856D02*
X223664252Y-102095237D01*
X223664252Y-102095237D02*
X223616633Y-102047617D01*
X223616633Y-102047617D02*
X223521395Y-101904760D01*
X223521395Y-101904760D02*
X223473776Y-101714284D01*
X223473776Y-101714284D02*
X223473776Y-101333332D01*
X223473776Y-101333332D02*
X223521395Y-101238094D01*
X223521395Y-101238094D02*
X223569014Y-101190475D01*
X223569014Y-101190475D02*
X223664252Y-101142856D01*
X223664252Y-101142856D02*
X223854728Y-101142856D01*
X223854728Y-101142856D02*
X223949966Y-101190475D01*
X223949966Y-101190475D02*
X223997585Y-101238094D01*
X223997585Y-101238094D02*
X224045204Y-101333332D01*
X224045204Y-101333332D02*
X224045204Y-101571427D01*
X224045204Y-101571427D02*
X223997585Y-101666665D01*
X223997585Y-101666665D02*
X223949966Y-101714284D01*
X223949966Y-101714284D02*
X223854728Y-101761903D01*
X223854728Y-101761903D02*
X223664252Y-101761903D01*
X223664252Y-101761903D02*
X223569014Y-101714284D01*
X223569014Y-101714284D02*
X223521395Y-101666665D01*
X223521395Y-101666665D02*
X223473776Y-101571427D01*
X228648457Y-90355289D02*
X228696076Y-90402909D01*
X228696076Y-90402909D02*
X228838933Y-90450528D01*
X228838933Y-90450528D02*
X228934171Y-90450528D01*
X228934171Y-90450528D02*
X229077028Y-90402909D01*
X229077028Y-90402909D02*
X229172266Y-90307670D01*
X229172266Y-90307670D02*
X229219885Y-90212432D01*
X229219885Y-90212432D02*
X229267504Y-90021956D01*
X229267504Y-90021956D02*
X229267504Y-89879099D01*
X229267504Y-89879099D02*
X229219885Y-89688623D01*
X229219885Y-89688623D02*
X229172266Y-89593385D01*
X229172266Y-89593385D02*
X229077028Y-89498147D01*
X229077028Y-89498147D02*
X228934171Y-89450528D01*
X228934171Y-89450528D02*
X228838933Y-89450528D01*
X228838933Y-89450528D02*
X228696076Y-89498147D01*
X228696076Y-89498147D02*
X228648457Y-89545766D01*
X227696076Y-90450528D02*
X228267504Y-90450528D01*
X227981790Y-90450528D02*
X227981790Y-89450528D01*
X227981790Y-89450528D02*
X228077028Y-89593385D01*
X228077028Y-89593385D02*
X228172266Y-89688623D01*
X228172266Y-89688623D02*
X228267504Y-89736242D01*
X226791314Y-89450528D02*
X227267504Y-89450528D01*
X227267504Y-89450528D02*
X227315123Y-89926718D01*
X227315123Y-89926718D02*
X227267504Y-89879099D01*
X227267504Y-89879099D02*
X227172266Y-89831480D01*
X227172266Y-89831480D02*
X226934171Y-89831480D01*
X226934171Y-89831480D02*
X226838933Y-89879099D01*
X226838933Y-89879099D02*
X226791314Y-89926718D01*
X226791314Y-89926718D02*
X226743695Y-90021956D01*
X226743695Y-90021956D02*
X226743695Y-90260051D01*
X226743695Y-90260051D02*
X226791314Y-90355289D01*
X226791314Y-90355289D02*
X226838933Y-90402909D01*
X226838933Y-90402909D02*
X226934171Y-90450528D01*
X226934171Y-90450528D02*
X227172266Y-90450528D01*
X227172266Y-90450528D02*
X227267504Y-90402909D01*
X227267504Y-90402909D02*
X227315123Y-90355289D01*
X228648457Y-91203832D02*
X228696076Y-91251452D01*
X228696076Y-91251452D02*
X228838933Y-91299071D01*
X228838933Y-91299071D02*
X228934171Y-91299071D01*
X228934171Y-91299071D02*
X229077028Y-91251452D01*
X229077028Y-91251452D02*
X229172266Y-91156213D01*
X229172266Y-91156213D02*
X229219885Y-91060975D01*
X229219885Y-91060975D02*
X229267504Y-90870499D01*
X229267504Y-90870499D02*
X229267504Y-90727642D01*
X229267504Y-90727642D02*
X229219885Y-90537166D01*
X229219885Y-90537166D02*
X229172266Y-90441928D01*
X229172266Y-90441928D02*
X229077028Y-90346690D01*
X229077028Y-90346690D02*
X228934171Y-90299071D01*
X228934171Y-90299071D02*
X228838933Y-90299071D01*
X228838933Y-90299071D02*
X228696076Y-90346690D01*
X228696076Y-90346690D02*
X228648457Y-90394309D01*
X227696076Y-91299071D02*
X228267504Y-91299071D01*
X227981790Y-91299071D02*
X227981790Y-90299071D01*
X227981790Y-90299071D02*
X228077028Y-90441928D01*
X228077028Y-90441928D02*
X228172266Y-90537166D01*
X228172266Y-90537166D02*
X228267504Y-90584785D01*
X227077028Y-90299071D02*
X226981790Y-90299071D01*
X226981790Y-90299071D02*
X226886552Y-90346690D01*
X226886552Y-90346690D02*
X226838933Y-90394309D01*
X226838933Y-90394309D02*
X226791314Y-90489547D01*
X226791314Y-90489547D02*
X226743695Y-90680023D01*
X226743695Y-90680023D02*
X226743695Y-90918118D01*
X226743695Y-90918118D02*
X226791314Y-91108594D01*
X226791314Y-91108594D02*
X226838933Y-91203832D01*
X226838933Y-91203832D02*
X226886552Y-91251452D01*
X226886552Y-91251452D02*
X226981790Y-91299071D01*
X226981790Y-91299071D02*
X227077028Y-91299071D01*
X227077028Y-91299071D02*
X227172266Y-91251452D01*
X227172266Y-91251452D02*
X227219885Y-91203832D01*
X227219885Y-91203832D02*
X227267504Y-91108594D01*
X227267504Y-91108594D02*
X227315123Y-90918118D01*
X227315123Y-90918118D02*
X227315123Y-90680023D01*
X227315123Y-90680023D02*
X227267504Y-90489547D01*
X227267504Y-90489547D02*
X227219885Y-90394309D01*
X227219885Y-90394309D02*
X227172266Y-90346690D01*
X227172266Y-90346690D02*
X227077028Y-90299071D01*
X224456287Y-99975859D02*
X224503906Y-100023479D01*
X224503906Y-100023479D02*
X224646763Y-100071098D01*
X224646763Y-100071098D02*
X224742001Y-100071098D01*
X224742001Y-100071098D02*
X224884858Y-100023479D01*
X224884858Y-100023479D02*
X224980096Y-99928240D01*
X224980096Y-99928240D02*
X225027715Y-99833002D01*
X225027715Y-99833002D02*
X225075334Y-99642526D01*
X225075334Y-99642526D02*
X225075334Y-99499669D01*
X225075334Y-99499669D02*
X225027715Y-99309193D01*
X225027715Y-99309193D02*
X224980096Y-99213955D01*
X224980096Y-99213955D02*
X224884858Y-99118717D01*
X224884858Y-99118717D02*
X224742001Y-99071098D01*
X224742001Y-99071098D02*
X224646763Y-99071098D01*
X224646763Y-99071098D02*
X224503906Y-99118717D01*
X224503906Y-99118717D02*
X224456287Y-99166336D01*
X223503906Y-100071098D02*
X224075334Y-100071098D01*
X223789620Y-100071098D02*
X223789620Y-99071098D01*
X223789620Y-99071098D02*
X223884858Y-99213955D01*
X223884858Y-99213955D02*
X223980096Y-99309193D01*
X223980096Y-99309193D02*
X224075334Y-99356812D01*
X223170572Y-99071098D02*
X222551525Y-99071098D01*
X222551525Y-99071098D02*
X222884858Y-99452050D01*
X222884858Y-99452050D02*
X222742001Y-99452050D01*
X222742001Y-99452050D02*
X222646763Y-99499669D01*
X222646763Y-99499669D02*
X222599144Y-99547288D01*
X222599144Y-99547288D02*
X222551525Y-99642526D01*
X222551525Y-99642526D02*
X222551525Y-99880621D01*
X222551525Y-99880621D02*
X222599144Y-99975859D01*
X222599144Y-99975859D02*
X222646763Y-100023479D01*
X222646763Y-100023479D02*
X222742001Y-100071098D01*
X222742001Y-100071098D02*
X223027715Y-100071098D01*
X223027715Y-100071098D02*
X223122953Y-100023479D01*
X223122953Y-100023479D02*
X223170572Y-99975859D01*
X233499419Y-99571767D02*
X233547038Y-99619387D01*
X233547038Y-99619387D02*
X233689895Y-99667006D01*
X233689895Y-99667006D02*
X233785133Y-99667006D01*
X233785133Y-99667006D02*
X233927990Y-99619387D01*
X233927990Y-99619387D02*
X234023228Y-99524148D01*
X234023228Y-99524148D02*
X234070847Y-99428910D01*
X234070847Y-99428910D02*
X234118466Y-99238434D01*
X234118466Y-99238434D02*
X234118466Y-99095577D01*
X234118466Y-99095577D02*
X234070847Y-98905101D01*
X234070847Y-98905101D02*
X234023228Y-98809863D01*
X234023228Y-98809863D02*
X233927990Y-98714625D01*
X233927990Y-98714625D02*
X233785133Y-98667006D01*
X233785133Y-98667006D02*
X233689895Y-98667006D01*
X233689895Y-98667006D02*
X233547038Y-98714625D01*
X233547038Y-98714625D02*
X233499419Y-98762244D01*
X232547038Y-99667006D02*
X233118466Y-99667006D01*
X232832752Y-99667006D02*
X232832752Y-98667006D01*
X232832752Y-98667006D02*
X232927990Y-98809863D01*
X232927990Y-98809863D02*
X233023228Y-98905101D01*
X233023228Y-98905101D02*
X233118466Y-98952720D01*
X231594657Y-99667006D02*
X232166085Y-99667006D01*
X231880371Y-99667006D02*
X231880371Y-98667006D01*
X231880371Y-98667006D02*
X231975609Y-98809863D01*
X231975609Y-98809863D02*
X232070847Y-98905101D01*
X232070847Y-98905101D02*
X232166085Y-98952720D01*
X219273228Y-91071767D02*
X219320847Y-91119387D01*
X219320847Y-91119387D02*
X219463704Y-91167006D01*
X219463704Y-91167006D02*
X219558942Y-91167006D01*
X219558942Y-91167006D02*
X219701799Y-91119387D01*
X219701799Y-91119387D02*
X219797037Y-91024148D01*
X219797037Y-91024148D02*
X219844656Y-90928910D01*
X219844656Y-90928910D02*
X219892275Y-90738434D01*
X219892275Y-90738434D02*
X219892275Y-90595577D01*
X219892275Y-90595577D02*
X219844656Y-90405101D01*
X219844656Y-90405101D02*
X219797037Y-90309863D01*
X219797037Y-90309863D02*
X219701799Y-90214625D01*
X219701799Y-90214625D02*
X219558942Y-90167006D01*
X219558942Y-90167006D02*
X219463704Y-90167006D01*
X219463704Y-90167006D02*
X219320847Y-90214625D01*
X219320847Y-90214625D02*
X219273228Y-90262244D01*
X218416085Y-90167006D02*
X218606561Y-90167006D01*
X218606561Y-90167006D02*
X218701799Y-90214625D01*
X218701799Y-90214625D02*
X218749418Y-90262244D01*
X218749418Y-90262244D02*
X218844656Y-90405101D01*
X218844656Y-90405101D02*
X218892275Y-90595577D01*
X218892275Y-90595577D02*
X218892275Y-90976529D01*
X218892275Y-90976529D02*
X218844656Y-91071767D01*
X218844656Y-91071767D02*
X218797037Y-91119387D01*
X218797037Y-91119387D02*
X218701799Y-91167006D01*
X218701799Y-91167006D02*
X218511323Y-91167006D01*
X218511323Y-91167006D02*
X218416085Y-91119387D01*
X218416085Y-91119387D02*
X218368466Y-91071767D01*
X218368466Y-91071767D02*
X218320847Y-90976529D01*
X218320847Y-90976529D02*
X218320847Y-90738434D01*
X218320847Y-90738434D02*
X218368466Y-90643196D01*
X218368466Y-90643196D02*
X218416085Y-90595577D01*
X218416085Y-90595577D02*
X218511323Y-90547958D01*
X218511323Y-90547958D02*
X218701799Y-90547958D01*
X218701799Y-90547958D02*
X218797037Y-90595577D01*
X218797037Y-90595577D02*
X218844656Y-90643196D01*
X218844656Y-90643196D02*
X218892275Y-90738434D01*
X203374209Y-97069719D02*
X203412304Y-97145909D01*
X203412304Y-97145909D02*
X203412304Y-97260195D01*
X203412304Y-97260195D02*
X203374209Y-97374481D01*
X203374209Y-97374481D02*
X203298019Y-97450671D01*
X203298019Y-97450671D02*
X203221828Y-97488766D01*
X203221828Y-97488766D02*
X203069447Y-97526862D01*
X203069447Y-97526862D02*
X202955161Y-97526862D01*
X202955161Y-97526862D02*
X202802780Y-97488766D01*
X202802780Y-97488766D02*
X202726590Y-97450671D01*
X202726590Y-97450671D02*
X202650400Y-97374481D01*
X202650400Y-97374481D02*
X202612304Y-97260195D01*
X202612304Y-97260195D02*
X202612304Y-97184004D01*
X202612304Y-97184004D02*
X202650400Y-97069719D01*
X202650400Y-97069719D02*
X202688495Y-97031623D01*
X202688495Y-97031623D02*
X202955161Y-97031623D01*
X202955161Y-97031623D02*
X202955161Y-97184004D01*
X202612304Y-96688766D02*
X203412304Y-96688766D01*
X203412304Y-96688766D02*
X203412304Y-96384004D01*
X203412304Y-96384004D02*
X203374209Y-96307814D01*
X203374209Y-96307814D02*
X203336114Y-96269719D01*
X203336114Y-96269719D02*
X203259923Y-96231623D01*
X203259923Y-96231623D02*
X203145638Y-96231623D01*
X203145638Y-96231623D02*
X203069447Y-96269719D01*
X203069447Y-96269719D02*
X203031352Y-96307814D01*
X203031352Y-96307814D02*
X202993257Y-96384004D01*
X202993257Y-96384004D02*
X202993257Y-96688766D01*
X202612304Y-95469719D02*
X202612304Y-95926862D01*
X202612304Y-95698290D02*
X203412304Y-95698290D01*
X203412304Y-95698290D02*
X203298019Y-95774481D01*
X203298019Y-95774481D02*
X203221828Y-95850671D01*
X203221828Y-95850671D02*
X203183733Y-95926862D01*
X203412304Y-95203052D02*
X203412304Y-94707814D01*
X203412304Y-94707814D02*
X203107542Y-94974480D01*
X203107542Y-94974480D02*
X203107542Y-94860195D01*
X203107542Y-94860195D02*
X203069447Y-94784004D01*
X203069447Y-94784004D02*
X203031352Y-94745909D01*
X203031352Y-94745909D02*
X202955161Y-94707814D01*
X202955161Y-94707814D02*
X202764685Y-94707814D01*
X202764685Y-94707814D02*
X202688495Y-94745909D01*
X202688495Y-94745909D02*
X202650400Y-94784004D01*
X202650400Y-94784004D02*
X202612304Y-94860195D01*
X202612304Y-94860195D02*
X202612304Y-95088766D01*
X202612304Y-95088766D02*
X202650400Y-95164957D01*
X202650400Y-95164957D02*
X202688495Y-95203052D01*
X199358019Y-97096141D02*
X199396114Y-97172331D01*
X199396114Y-97172331D02*
X199396114Y-97286617D01*
X199396114Y-97286617D02*
X199358019Y-97400903D01*
X199358019Y-97400903D02*
X199281829Y-97477093D01*
X199281829Y-97477093D02*
X199205638Y-97515188D01*
X199205638Y-97515188D02*
X199053257Y-97553284D01*
X199053257Y-97553284D02*
X198938971Y-97553284D01*
X198938971Y-97553284D02*
X198786590Y-97515188D01*
X198786590Y-97515188D02*
X198710400Y-97477093D01*
X198710400Y-97477093D02*
X198634210Y-97400903D01*
X198634210Y-97400903D02*
X198596114Y-97286617D01*
X198596114Y-97286617D02*
X198596114Y-97210426D01*
X198596114Y-97210426D02*
X198634210Y-97096141D01*
X198634210Y-97096141D02*
X198672305Y-97058045D01*
X198672305Y-97058045D02*
X198938971Y-97058045D01*
X198938971Y-97058045D02*
X198938971Y-97210426D01*
X198596114Y-96715188D02*
X199396114Y-96715188D01*
X199396114Y-96715188D02*
X199396114Y-96410426D01*
X199396114Y-96410426D02*
X199358019Y-96334236D01*
X199358019Y-96334236D02*
X199319924Y-96296141D01*
X199319924Y-96296141D02*
X199243733Y-96258045D01*
X199243733Y-96258045D02*
X199129448Y-96258045D01*
X199129448Y-96258045D02*
X199053257Y-96296141D01*
X199053257Y-96296141D02*
X199015162Y-96334236D01*
X199015162Y-96334236D02*
X198977067Y-96410426D01*
X198977067Y-96410426D02*
X198977067Y-96715188D01*
X199396114Y-95762807D02*
X199396114Y-95686617D01*
X199396114Y-95686617D02*
X199358019Y-95610426D01*
X199358019Y-95610426D02*
X199319924Y-95572331D01*
X199319924Y-95572331D02*
X199243733Y-95534236D01*
X199243733Y-95534236D02*
X199091352Y-95496141D01*
X199091352Y-95496141D02*
X198900876Y-95496141D01*
X198900876Y-95496141D02*
X198748495Y-95534236D01*
X198748495Y-95534236D02*
X198672305Y-95572331D01*
X198672305Y-95572331D02*
X198634210Y-95610426D01*
X198634210Y-95610426D02*
X198596114Y-95686617D01*
X198596114Y-95686617D02*
X198596114Y-95762807D01*
X198596114Y-95762807D02*
X198634210Y-95838998D01*
X198634210Y-95838998D02*
X198672305Y-95877093D01*
X198672305Y-95877093D02*
X198748495Y-95915188D01*
X198748495Y-95915188D02*
X198900876Y-95953284D01*
X198900876Y-95953284D02*
X199091352Y-95953284D01*
X199091352Y-95953284D02*
X199243733Y-95915188D01*
X199243733Y-95915188D02*
X199319924Y-95877093D01*
X199319924Y-95877093D02*
X199358019Y-95838998D01*
X199358019Y-95838998D02*
X199396114Y-95762807D01*
X199053257Y-95038998D02*
X199091352Y-95115188D01*
X199091352Y-95115188D02*
X199129448Y-95153283D01*
X199129448Y-95153283D02*
X199205638Y-95191379D01*
X199205638Y-95191379D02*
X199243733Y-95191379D01*
X199243733Y-95191379D02*
X199319924Y-95153283D01*
X199319924Y-95153283D02*
X199358019Y-95115188D01*
X199358019Y-95115188D02*
X199396114Y-95038998D01*
X199396114Y-95038998D02*
X199396114Y-94886617D01*
X199396114Y-94886617D02*
X199358019Y-94810426D01*
X199358019Y-94810426D02*
X199319924Y-94772331D01*
X199319924Y-94772331D02*
X199243733Y-94734236D01*
X199243733Y-94734236D02*
X199205638Y-94734236D01*
X199205638Y-94734236D02*
X199129448Y-94772331D01*
X199129448Y-94772331D02*
X199091352Y-94810426D01*
X199091352Y-94810426D02*
X199053257Y-94886617D01*
X199053257Y-94886617D02*
X199053257Y-95038998D01*
X199053257Y-95038998D02*
X199015162Y-95115188D01*
X199015162Y-95115188D02*
X198977067Y-95153283D01*
X198977067Y-95153283D02*
X198900876Y-95191379D01*
X198900876Y-95191379D02*
X198748495Y-95191379D01*
X198748495Y-95191379D02*
X198672305Y-95153283D01*
X198672305Y-95153283D02*
X198634210Y-95115188D01*
X198634210Y-95115188D02*
X198596114Y-95038998D01*
X198596114Y-95038998D02*
X198596114Y-94886617D01*
X198596114Y-94886617D02*
X198634210Y-94810426D01*
X198634210Y-94810426D02*
X198672305Y-94772331D01*
X198672305Y-94772331D02*
X198748495Y-94734236D01*
X198748495Y-94734236D02*
X198900876Y-94734236D01*
X198900876Y-94734236D02*
X198977067Y-94772331D01*
X198977067Y-94772331D02*
X199015162Y-94810426D01*
X199015162Y-94810426D02*
X199053257Y-94886617D01*
X201339691Y-97069719D02*
X201377786Y-97145909D01*
X201377786Y-97145909D02*
X201377786Y-97260195D01*
X201377786Y-97260195D02*
X201339691Y-97374481D01*
X201339691Y-97374481D02*
X201263501Y-97450671D01*
X201263501Y-97450671D02*
X201187310Y-97488766D01*
X201187310Y-97488766D02*
X201034929Y-97526862D01*
X201034929Y-97526862D02*
X200920643Y-97526862D01*
X200920643Y-97526862D02*
X200768262Y-97488766D01*
X200768262Y-97488766D02*
X200692072Y-97450671D01*
X200692072Y-97450671D02*
X200615882Y-97374481D01*
X200615882Y-97374481D02*
X200577786Y-97260195D01*
X200577786Y-97260195D02*
X200577786Y-97184004D01*
X200577786Y-97184004D02*
X200615882Y-97069719D01*
X200615882Y-97069719D02*
X200653977Y-97031623D01*
X200653977Y-97031623D02*
X200920643Y-97031623D01*
X200920643Y-97031623D02*
X200920643Y-97184004D01*
X200577786Y-96688766D02*
X201377786Y-96688766D01*
X201377786Y-96688766D02*
X201377786Y-96384004D01*
X201377786Y-96384004D02*
X201339691Y-96307814D01*
X201339691Y-96307814D02*
X201301596Y-96269719D01*
X201301596Y-96269719D02*
X201225405Y-96231623D01*
X201225405Y-96231623D02*
X201111120Y-96231623D01*
X201111120Y-96231623D02*
X201034929Y-96269719D01*
X201034929Y-96269719D02*
X200996834Y-96307814D01*
X200996834Y-96307814D02*
X200958739Y-96384004D01*
X200958739Y-96384004D02*
X200958739Y-96688766D01*
X200577786Y-95469719D02*
X200577786Y-95926862D01*
X200577786Y-95698290D02*
X201377786Y-95698290D01*
X201377786Y-95698290D02*
X201263501Y-95774481D01*
X201263501Y-95774481D02*
X201187310Y-95850671D01*
X201187310Y-95850671D02*
X201149215Y-95926862D01*
X201377786Y-94974480D02*
X201377786Y-94898290D01*
X201377786Y-94898290D02*
X201339691Y-94822099D01*
X201339691Y-94822099D02*
X201301596Y-94784004D01*
X201301596Y-94784004D02*
X201225405Y-94745909D01*
X201225405Y-94745909D02*
X201073024Y-94707814D01*
X201073024Y-94707814D02*
X200882548Y-94707814D01*
X200882548Y-94707814D02*
X200730167Y-94745909D01*
X200730167Y-94745909D02*
X200653977Y-94784004D01*
X200653977Y-94784004D02*
X200615882Y-94822099D01*
X200615882Y-94822099D02*
X200577786Y-94898290D01*
X200577786Y-94898290D02*
X200577786Y-94974480D01*
X200577786Y-94974480D02*
X200615882Y-95050671D01*
X200615882Y-95050671D02*
X200653977Y-95088766D01*
X200653977Y-95088766D02*
X200730167Y-95126861D01*
X200730167Y-95126861D02*
X200882548Y-95164957D01*
X200882548Y-95164957D02*
X201073024Y-95164957D01*
X201073024Y-95164957D02*
X201225405Y-95126861D01*
X201225405Y-95126861D02*
X201301596Y-95088766D01*
X201301596Y-95088766D02*
X201339691Y-95050671D01*
X201339691Y-95050671D02*
X201377786Y-94974480D01*
X202645421Y-91892321D02*
X202312088Y-91892321D01*
X202169231Y-92416131D02*
X202645421Y-92416131D01*
X202645421Y-92416131D02*
X202645421Y-91416131D01*
X202645421Y-91416131D02*
X202169231Y-91416131D01*
X201835897Y-92416131D02*
X201312088Y-91749464D01*
X201835897Y-91749464D02*
X201312088Y-92416131D01*
X201073992Y-91749464D02*
X200693040Y-91749464D01*
X200931135Y-91416131D02*
X200931135Y-92273273D01*
X200931135Y-92273273D02*
X200883516Y-92368512D01*
X200883516Y-92368512D02*
X200788278Y-92416131D01*
X200788278Y-92416131D02*
X200693040Y-92416131D01*
X200359706Y-92416131D02*
X200359706Y-91749464D01*
X200359706Y-91939940D02*
X200312087Y-91844702D01*
X200312087Y-91844702D02*
X200264468Y-91797083D01*
X200264468Y-91797083D02*
X200169230Y-91749464D01*
X200169230Y-91749464D02*
X200073992Y-91749464D01*
X199312087Y-92416131D02*
X199312087Y-91892321D01*
X199312087Y-91892321D02*
X199359706Y-91797083D01*
X199359706Y-91797083D02*
X199454944Y-91749464D01*
X199454944Y-91749464D02*
X199645420Y-91749464D01*
X199645420Y-91749464D02*
X199740658Y-91797083D01*
X199312087Y-92368512D02*
X199407325Y-92416131D01*
X199407325Y-92416131D02*
X199645420Y-92416131D01*
X199645420Y-92416131D02*
X199740658Y-92368512D01*
X199740658Y-92368512D02*
X199788277Y-92273273D01*
X199788277Y-92273273D02*
X199788277Y-92178035D01*
X199788277Y-92178035D02*
X199740658Y-92082797D01*
X199740658Y-92082797D02*
X199645420Y-92035178D01*
X199645420Y-92035178D02*
X199407325Y-92035178D01*
X199407325Y-92035178D02*
X199312087Y-91987559D01*
X198073991Y-92416131D02*
X198073991Y-91416131D01*
X198073991Y-91416131D02*
X197693039Y-91416131D01*
X197693039Y-91416131D02*
X197597801Y-91463750D01*
X197597801Y-91463750D02*
X197550182Y-91511369D01*
X197550182Y-91511369D02*
X197502563Y-91606607D01*
X197502563Y-91606607D02*
X197502563Y-91749464D01*
X197502563Y-91749464D02*
X197550182Y-91844702D01*
X197550182Y-91844702D02*
X197597801Y-91892321D01*
X197597801Y-91892321D02*
X197693039Y-91939940D01*
X197693039Y-91939940D02*
X198073991Y-91939940D01*
X197073991Y-92416131D02*
X197073991Y-91749464D01*
X197073991Y-91416131D02*
X197121610Y-91463750D01*
X197121610Y-91463750D02*
X197073991Y-91511369D01*
X197073991Y-91511369D02*
X197026372Y-91463750D01*
X197026372Y-91463750D02*
X197073991Y-91416131D01*
X197073991Y-91416131D02*
X197073991Y-91511369D01*
X196597801Y-91749464D02*
X196597801Y-92416131D01*
X196597801Y-91844702D02*
X196550182Y-91797083D01*
X196550182Y-91797083D02*
X196454944Y-91749464D01*
X196454944Y-91749464D02*
X196312087Y-91749464D01*
X196312087Y-91749464D02*
X196216849Y-91797083D01*
X196216849Y-91797083D02*
X196169230Y-91892321D01*
X196169230Y-91892321D02*
X196169230Y-92416131D01*
X195740658Y-92368512D02*
X195645420Y-92416131D01*
X195645420Y-92416131D02*
X195454944Y-92416131D01*
X195454944Y-92416131D02*
X195359706Y-92368512D01*
X195359706Y-92368512D02*
X195312087Y-92273273D01*
X195312087Y-92273273D02*
X195312087Y-92225654D01*
X195312087Y-92225654D02*
X195359706Y-92130416D01*
X195359706Y-92130416D02*
X195454944Y-92082797D01*
X195454944Y-92082797D02*
X195597801Y-92082797D01*
X195597801Y-92082797D02*
X195693039Y-92035178D01*
X195693039Y-92035178D02*
X195740658Y-91939940D01*
X195740658Y-91939940D02*
X195740658Y-91892321D01*
X195740658Y-91892321D02*
X195693039Y-91797083D01*
X195693039Y-91797083D02*
X195597801Y-91749464D01*
X195597801Y-91749464D02*
X195454944Y-91749464D01*
X195454944Y-91749464D02*
X195359706Y-91797083D01*
X196892782Y-96960320D02*
X196892782Y-96350797D01*
X196588020Y-96655558D02*
X197197544Y-96655558D01*
X197388020Y-95588892D02*
X197388020Y-95969844D01*
X197388020Y-95969844D02*
X197007068Y-96007940D01*
X197007068Y-96007940D02*
X197045163Y-95969844D01*
X197045163Y-95969844D02*
X197083258Y-95893654D01*
X197083258Y-95893654D02*
X197083258Y-95703178D01*
X197083258Y-95703178D02*
X197045163Y-95626987D01*
X197045163Y-95626987D02*
X197007068Y-95588892D01*
X197007068Y-95588892D02*
X196930877Y-95550797D01*
X196930877Y-95550797D02*
X196740401Y-95550797D01*
X196740401Y-95550797D02*
X196664211Y-95588892D01*
X196664211Y-95588892D02*
X196626116Y-95626987D01*
X196626116Y-95626987D02*
X196588020Y-95703178D01*
X196588020Y-95703178D02*
X196588020Y-95893654D01*
X196588020Y-95893654D02*
X196626116Y-95969844D01*
X196626116Y-95969844D02*
X196664211Y-96007940D01*
X197388020Y-95322225D02*
X196588020Y-95055558D01*
X196588020Y-95055558D02*
X197388020Y-94788892D01*
X205408726Y-97043297D02*
X205446821Y-97119487D01*
X205446821Y-97119487D02*
X205446821Y-97233773D01*
X205446821Y-97233773D02*
X205408726Y-97348059D01*
X205408726Y-97348059D02*
X205332536Y-97424249D01*
X205332536Y-97424249D02*
X205256345Y-97462344D01*
X205256345Y-97462344D02*
X205103964Y-97500440D01*
X205103964Y-97500440D02*
X204989678Y-97500440D01*
X204989678Y-97500440D02*
X204837297Y-97462344D01*
X204837297Y-97462344D02*
X204761107Y-97424249D01*
X204761107Y-97424249D02*
X204684917Y-97348059D01*
X204684917Y-97348059D02*
X204646821Y-97233773D01*
X204646821Y-97233773D02*
X204646821Y-97157582D01*
X204646821Y-97157582D02*
X204684917Y-97043297D01*
X204684917Y-97043297D02*
X204723012Y-97005201D01*
X204723012Y-97005201D02*
X204989678Y-97005201D01*
X204989678Y-97005201D02*
X204989678Y-97157582D01*
X204646821Y-96662344D02*
X205446821Y-96662344D01*
X205446821Y-96662344D02*
X205446821Y-96357582D01*
X205446821Y-96357582D02*
X205408726Y-96281392D01*
X205408726Y-96281392D02*
X205370631Y-96243297D01*
X205370631Y-96243297D02*
X205294440Y-96205201D01*
X205294440Y-96205201D02*
X205180155Y-96205201D01*
X205180155Y-96205201D02*
X205103964Y-96243297D01*
X205103964Y-96243297D02*
X205065869Y-96281392D01*
X205065869Y-96281392D02*
X205027774Y-96357582D01*
X205027774Y-96357582D02*
X205027774Y-96662344D01*
X204646821Y-95443297D02*
X204646821Y-95900440D01*
X204646821Y-95671868D02*
X205446821Y-95671868D01*
X205446821Y-95671868D02*
X205332536Y-95748059D01*
X205332536Y-95748059D02*
X205256345Y-95824249D01*
X205256345Y-95824249D02*
X205218250Y-95900440D01*
X205446821Y-94719487D02*
X205446821Y-95100439D01*
X205446821Y-95100439D02*
X205065869Y-95138535D01*
X205065869Y-95138535D02*
X205103964Y-95100439D01*
X205103964Y-95100439D02*
X205142059Y-95024249D01*
X205142059Y-95024249D02*
X205142059Y-94833773D01*
X205142059Y-94833773D02*
X205103964Y-94757582D01*
X205103964Y-94757582D02*
X205065869Y-94719487D01*
X205065869Y-94719487D02*
X204989678Y-94681392D01*
X204989678Y-94681392D02*
X204799202Y-94681392D01*
X204799202Y-94681392D02*
X204723012Y-94719487D01*
X204723012Y-94719487D02*
X204684917Y-94757582D01*
X204684917Y-94757582D02*
X204646821Y-94833773D01*
X204646821Y-94833773D02*
X204646821Y-95024249D01*
X204646821Y-95024249D02*
X204684917Y-95100439D01*
X204684917Y-95100439D02*
X204723012Y-95138535D01*
X195069643Y-97673722D02*
X195069643Y-97064199D01*
X194764881Y-97368960D02*
X195374405Y-97368960D01*
X195564881Y-96759437D02*
X195564881Y-96264199D01*
X195564881Y-96264199D02*
X195260119Y-96530865D01*
X195260119Y-96530865D02*
X195260119Y-96416580D01*
X195260119Y-96416580D02*
X195222024Y-96340389D01*
X195222024Y-96340389D02*
X195183929Y-96302294D01*
X195183929Y-96302294D02*
X195107738Y-96264199D01*
X195107738Y-96264199D02*
X194917262Y-96264199D01*
X194917262Y-96264199D02*
X194841072Y-96302294D01*
X194841072Y-96302294D02*
X194802977Y-96340389D01*
X194802977Y-96340389D02*
X194764881Y-96416580D01*
X194764881Y-96416580D02*
X194764881Y-96645151D01*
X194764881Y-96645151D02*
X194802977Y-96721342D01*
X194802977Y-96721342D02*
X194841072Y-96759437D01*
X195564881Y-96035627D02*
X194764881Y-95768960D01*
X194764881Y-95768960D02*
X195564881Y-95502294D01*
X195564881Y-95311818D02*
X195564881Y-94816580D01*
X195564881Y-94816580D02*
X195260119Y-95083246D01*
X195260119Y-95083246D02*
X195260119Y-94968961D01*
X195260119Y-94968961D02*
X195222024Y-94892770D01*
X195222024Y-94892770D02*
X195183929Y-94854675D01*
X195183929Y-94854675D02*
X195107738Y-94816580D01*
X195107738Y-94816580D02*
X194917262Y-94816580D01*
X194917262Y-94816580D02*
X194841072Y-94854675D01*
X194841072Y-94854675D02*
X194802977Y-94892770D01*
X194802977Y-94892770D02*
X194764881Y-94968961D01*
X194764881Y-94968961D02*
X194764881Y-95197532D01*
X194764881Y-95197532D02*
X194802977Y-95273723D01*
X194802977Y-95273723D02*
X194841072Y-95311818D01*
X193386580Y-96462006D02*
X193424675Y-96538196D01*
X193424675Y-96538196D02*
X193424675Y-96652482D01*
X193424675Y-96652482D02*
X193386580Y-96766768D01*
X193386580Y-96766768D02*
X193310390Y-96842958D01*
X193310390Y-96842958D02*
X193234199Y-96881053D01*
X193234199Y-96881053D02*
X193081818Y-96919149D01*
X193081818Y-96919149D02*
X192967532Y-96919149D01*
X192967532Y-96919149D02*
X192815151Y-96881053D01*
X192815151Y-96881053D02*
X192738961Y-96842958D01*
X192738961Y-96842958D02*
X192662771Y-96766768D01*
X192662771Y-96766768D02*
X192624675Y-96652482D01*
X192624675Y-96652482D02*
X192624675Y-96576291D01*
X192624675Y-96576291D02*
X192662771Y-96462006D01*
X192662771Y-96462006D02*
X192700866Y-96423910D01*
X192700866Y-96423910D02*
X192967532Y-96423910D01*
X192967532Y-96423910D02*
X192967532Y-96576291D01*
X192624675Y-96081053D02*
X193424675Y-96081053D01*
X193424675Y-96081053D02*
X192624675Y-95623910D01*
X192624675Y-95623910D02*
X193424675Y-95623910D01*
X192624675Y-95242958D02*
X193424675Y-95242958D01*
X193424675Y-95242958D02*
X193424675Y-95052482D01*
X193424675Y-95052482D02*
X193386580Y-94938196D01*
X193386580Y-94938196D02*
X193310390Y-94862006D01*
X193310390Y-94862006D02*
X193234199Y-94823911D01*
X193234199Y-94823911D02*
X193081818Y-94785815D01*
X193081818Y-94785815D02*
X192967532Y-94785815D01*
X192967532Y-94785815D02*
X192815151Y-94823911D01*
X192815151Y-94823911D02*
X192738961Y-94862006D01*
X192738961Y-94862006D02*
X192662771Y-94938196D01*
X192662771Y-94938196D02*
X192624675Y-95052482D01*
X192624675Y-95052482D02*
X192624675Y-95242958D01*
X237023228Y-92667006D02*
X237356561Y-92190815D01*
X237594656Y-92667006D02*
X237594656Y-91667006D01*
X237594656Y-91667006D02*
X237213704Y-91667006D01*
X237213704Y-91667006D02*
X237118466Y-91714625D01*
X237118466Y-91714625D02*
X237070847Y-91762244D01*
X237070847Y-91762244D02*
X237023228Y-91857482D01*
X237023228Y-91857482D02*
X237023228Y-92000339D01*
X237023228Y-92000339D02*
X237070847Y-92095577D01*
X237070847Y-92095577D02*
X237118466Y-92143196D01*
X237118466Y-92143196D02*
X237213704Y-92190815D01*
X237213704Y-92190815D02*
X237594656Y-92190815D01*
X236166085Y-92000339D02*
X236166085Y-92667006D01*
X236404180Y-91619387D02*
X236642275Y-92333672D01*
X236642275Y-92333672D02*
X236023228Y-92333672D01*
X229039640Y-100999573D02*
X228039640Y-100999573D01*
X228039640Y-100999573D02*
X228039640Y-101237668D01*
X228039640Y-101237668D02*
X228087259Y-101380525D01*
X228087259Y-101380525D02*
X228182497Y-101475763D01*
X228182497Y-101475763D02*
X228277735Y-101523382D01*
X228277735Y-101523382D02*
X228468211Y-101571001D01*
X228468211Y-101571001D02*
X228611068Y-101571001D01*
X228611068Y-101571001D02*
X228801544Y-101523382D01*
X228801544Y-101523382D02*
X228896782Y-101475763D01*
X228896782Y-101475763D02*
X228992021Y-101380525D01*
X228992021Y-101380525D02*
X229039640Y-101237668D01*
X229039640Y-101237668D02*
X229039640Y-100999573D01*
X228134878Y-101951954D02*
X228087259Y-101999573D01*
X228087259Y-101999573D02*
X228039640Y-102094811D01*
X228039640Y-102094811D02*
X228039640Y-102332906D01*
X228039640Y-102332906D02*
X228087259Y-102428144D01*
X228087259Y-102428144D02*
X228134878Y-102475763D01*
X228134878Y-102475763D02*
X228230116Y-102523382D01*
X228230116Y-102523382D02*
X228325354Y-102523382D01*
X228325354Y-102523382D02*
X228468211Y-102475763D01*
X228468211Y-102475763D02*
X229039640Y-101904335D01*
X229039640Y-101904335D02*
X229039640Y-102523382D01*
X228039640Y-103142430D02*
X228039640Y-103237668D01*
X228039640Y-103237668D02*
X228087259Y-103332906D01*
X228087259Y-103332906D02*
X228134878Y-103380525D01*
X228134878Y-103380525D02*
X228230116Y-103428144D01*
X228230116Y-103428144D02*
X228420592Y-103475763D01*
X228420592Y-103475763D02*
X228658687Y-103475763D01*
X228658687Y-103475763D02*
X228849163Y-103428144D01*
X228849163Y-103428144D02*
X228944401Y-103380525D01*
X228944401Y-103380525D02*
X228992021Y-103332906D01*
X228992021Y-103332906D02*
X229039640Y-103237668D01*
X229039640Y-103237668D02*
X229039640Y-103142430D01*
X229039640Y-103142430D02*
X228992021Y-103047192D01*
X228992021Y-103047192D02*
X228944401Y-102999573D01*
X228944401Y-102999573D02*
X228849163Y-102951954D01*
X228849163Y-102951954D02*
X228658687Y-102904335D01*
X228658687Y-102904335D02*
X228420592Y-102904335D01*
X228420592Y-102904335D02*
X228230116Y-102951954D01*
X228230116Y-102951954D02*
X228134878Y-102999573D01*
X228134878Y-102999573D02*
X228087259Y-103047192D01*
X228087259Y-103047192D02*
X228039640Y-103142430D01*
X150292857Y-77374819D02*
X150626190Y-76898628D01*
X150864285Y-77374819D02*
X150864285Y-76374819D01*
X150864285Y-76374819D02*
X150483333Y-76374819D01*
X150483333Y-76374819D02*
X150388095Y-76422438D01*
X150388095Y-76422438D02*
X150340476Y-76470057D01*
X150340476Y-76470057D02*
X150292857Y-76565295D01*
X150292857Y-76565295D02*
X150292857Y-76708152D01*
X150292857Y-76708152D02*
X150340476Y-76803390D01*
X150340476Y-76803390D02*
X150388095Y-76851009D01*
X150388095Y-76851009D02*
X150483333Y-76898628D01*
X150483333Y-76898628D02*
X150864285Y-76898628D01*
X149340476Y-77374819D02*
X149911904Y-77374819D01*
X149626190Y-77374819D02*
X149626190Y-76374819D01*
X149626190Y-76374819D02*
X149721428Y-76517676D01*
X149721428Y-76517676D02*
X149816666Y-76612914D01*
X149816666Y-76612914D02*
X149911904Y-76660533D01*
X148721428Y-76374819D02*
X148626190Y-76374819D01*
X148626190Y-76374819D02*
X148530952Y-76422438D01*
X148530952Y-76422438D02*
X148483333Y-76470057D01*
X148483333Y-76470057D02*
X148435714Y-76565295D01*
X148435714Y-76565295D02*
X148388095Y-76755771D01*
X148388095Y-76755771D02*
X148388095Y-76993866D01*
X148388095Y-76993866D02*
X148435714Y-77184342D01*
X148435714Y-77184342D02*
X148483333Y-77279580D01*
X148483333Y-77279580D02*
X148530952Y-77327200D01*
X148530952Y-77327200D02*
X148626190Y-77374819D01*
X148626190Y-77374819D02*
X148721428Y-77374819D01*
X148721428Y-77374819D02*
X148816666Y-77327200D01*
X148816666Y-77327200D02*
X148864285Y-77279580D01*
X148864285Y-77279580D02*
X148911904Y-77184342D01*
X148911904Y-77184342D02*
X148959523Y-76993866D01*
X148959523Y-76993866D02*
X148959523Y-76755771D01*
X148959523Y-76755771D02*
X148911904Y-76565295D01*
X148911904Y-76565295D02*
X148864285Y-76470057D01*
X148864285Y-76470057D02*
X148816666Y-76422438D01*
X148816666Y-76422438D02*
X148721428Y-76374819D01*
X159141374Y-81419163D02*
X159188993Y-81466783D01*
X159188993Y-81466783D02*
X159331850Y-81514402D01*
X159331850Y-81514402D02*
X159427088Y-81514402D01*
X159427088Y-81514402D02*
X159569945Y-81466783D01*
X159569945Y-81466783D02*
X159665183Y-81371544D01*
X159665183Y-81371544D02*
X159712802Y-81276306D01*
X159712802Y-81276306D02*
X159760421Y-81085830D01*
X159760421Y-81085830D02*
X159760421Y-80942973D01*
X159760421Y-80942973D02*
X159712802Y-80752497D01*
X159712802Y-80752497D02*
X159665183Y-80657259D01*
X159665183Y-80657259D02*
X159569945Y-80562021D01*
X159569945Y-80562021D02*
X159427088Y-80514402D01*
X159427088Y-80514402D02*
X159331850Y-80514402D01*
X159331850Y-80514402D02*
X159188993Y-80562021D01*
X159188993Y-80562021D02*
X159141374Y-80609640D01*
X158188993Y-81514402D02*
X158760421Y-81514402D01*
X158474707Y-81514402D02*
X158474707Y-80514402D01*
X158474707Y-80514402D02*
X158569945Y-80657259D01*
X158569945Y-80657259D02*
X158665183Y-80752497D01*
X158665183Y-80752497D02*
X158760421Y-80800116D01*
X157855659Y-80514402D02*
X157188993Y-80514402D01*
X157188993Y-80514402D02*
X157617564Y-81514402D01*
D12*
%TO.C,D1*%
X78542000Y-70356000D02*
X78542000Y-68896000D01*
X78542000Y-70356000D02*
X77612000Y-70356000D01*
X75382000Y-70356000D02*
X75382000Y-68196000D01*
X75382000Y-70356000D02*
X76312000Y-70356000D01*
%TO.C,D2*%
X116705500Y-70356000D02*
X116705500Y-68896000D01*
X116705500Y-70356000D02*
X115775500Y-70356000D01*
X113545500Y-70356000D02*
X113545500Y-68196000D01*
X113545500Y-70356000D02*
X114475500Y-70356000D01*
%TO.C,D3*%
X135692000Y-70356000D02*
X135692000Y-68896000D01*
X135692000Y-70356000D02*
X134762000Y-70356000D01*
X132532000Y-70356000D02*
X132532000Y-68196000D01*
X132532000Y-70356000D02*
X133462000Y-70356000D01*
%TO.C,D4*%
X192969000Y-70419500D02*
X192969000Y-68959500D01*
X192969000Y-70419500D02*
X192039000Y-70419500D01*
X189809000Y-70419500D02*
X189809000Y-68259500D01*
X189809000Y-70419500D02*
X190739000Y-70419500D01*
%TO.C,D5*%
X232021500Y-70419500D02*
X232021500Y-68959500D01*
X232021500Y-70419500D02*
X231091500Y-70419500D01*
X228861500Y-70419500D02*
X228861500Y-68259500D01*
X228861500Y-70419500D02*
X229791500Y-70419500D01*
%TO.C,D6*%
X82288500Y-89406000D02*
X82288500Y-87946000D01*
X82288500Y-89406000D02*
X81358500Y-89406000D01*
X79128500Y-89406000D02*
X79128500Y-87246000D01*
X79128500Y-89406000D02*
X80058500Y-89406000D01*
%TO.C,D7*%
X121468000Y-89406000D02*
X121468000Y-87946000D01*
X121468000Y-89406000D02*
X120538000Y-89406000D01*
X118308000Y-89406000D02*
X118308000Y-87246000D01*
X118308000Y-89406000D02*
X119238000Y-89406000D01*
%TO.C,D8*%
X159631500Y-89406000D02*
X159631500Y-87946000D01*
X159631500Y-89406000D02*
X158701500Y-89406000D01*
X156471500Y-89406000D02*
X156471500Y-87246000D01*
X156471500Y-89406000D02*
X157401500Y-89406000D01*
%TO.C,D9*%
X197604500Y-89406000D02*
X197604500Y-87946000D01*
X197604500Y-89406000D02*
X196674500Y-89406000D01*
X194444500Y-89406000D02*
X194444500Y-87246000D01*
X194444500Y-89406000D02*
X195374500Y-89406000D01*
%TO.C,D10*%
X239580000Y-91010000D02*
X239580000Y-89550000D01*
X239580000Y-91010000D02*
X238650000Y-91010000D01*
X236420000Y-91010000D02*
X236420000Y-88850000D01*
X236420000Y-91010000D02*
X237350000Y-91010000D01*
%TO.C,D11*%
X89464000Y-108837000D02*
X89464000Y-107377000D01*
X89464000Y-108837000D02*
X88534000Y-108837000D01*
X86304000Y-108837000D02*
X86304000Y-106677000D01*
X86304000Y-108837000D02*
X87234000Y-108837000D01*
%TO.C,D12*%
X111879500Y-108837000D02*
X111879500Y-107377000D01*
X111879500Y-108837000D02*
X110949500Y-108837000D01*
X108719500Y-108837000D02*
X108719500Y-106677000D01*
X108719500Y-108837000D02*
X109649500Y-108837000D01*
%TO.C,D13*%
X149979500Y-108837000D02*
X149979500Y-107377000D01*
X149979500Y-108837000D02*
X149049500Y-108837000D01*
X146819500Y-108837000D02*
X146819500Y-106677000D01*
X146819500Y-108837000D02*
X147749500Y-108837000D01*
%TO.C,D14*%
X188143000Y-108837000D02*
X188143000Y-107377000D01*
X188143000Y-108837000D02*
X187213000Y-108837000D01*
X184983000Y-108837000D02*
X184983000Y-106677000D01*
X184983000Y-108837000D02*
X185913000Y-108837000D01*
%TO.C,D15*%
X235935691Y-109618660D02*
X235935691Y-108158660D01*
X235935691Y-109618660D02*
X235005691Y-109618660D01*
X232775691Y-109618660D02*
X232775691Y-107458660D01*
X232775691Y-109618660D02*
X233705691Y-109618660D01*
%TO.C,D16*%
X97623750Y-127315500D02*
X97623750Y-125855500D01*
X97623750Y-127315500D02*
X96693750Y-127315500D01*
X94463750Y-127315500D02*
X94463750Y-125155500D01*
X94463750Y-127315500D02*
X95393750Y-127315500D01*
%TO.C,D19*%
X235704500Y-127315500D02*
X235704500Y-125855500D01*
X235704500Y-127315500D02*
X234774500Y-127315500D01*
X232544500Y-127315500D02*
X232544500Y-125155500D01*
X232544500Y-127315500D02*
X233474500Y-127315500D01*
%TO.C,F1*%
X152852064Y-76160000D02*
X151647936Y-76160000D01*
X152852064Y-74340000D02*
X151647936Y-74340000D01*
%TO.C,R1*%
X144272936Y-59515000D02*
X144727064Y-59515000D01*
X144272936Y-60985000D02*
X144727064Y-60985000D01*
%TO.C,R2*%
X166727064Y-60985000D02*
X166272936Y-60985000D01*
X166727064Y-59515000D02*
X166272936Y-59515000D01*
%TO.C,U4*%
X153250000Y-66060000D02*
X154050000Y-66060000D01*
X153250000Y-66060000D02*
X152450000Y-66060000D01*
X153250000Y-62940000D02*
X155050000Y-62940000D01*
X153250000Y-62940000D02*
X152450000Y-62940000D01*
%TO.C,D17*%
X146741000Y-127252000D02*
X146741000Y-125792000D01*
X146741000Y-127252000D02*
X145811000Y-127252000D01*
X143581000Y-127252000D02*
X143581000Y-125092000D01*
X143581000Y-127252000D02*
X144511000Y-127252000D01*
%TO.C,D18*%
X216718000Y-127315500D02*
X216718000Y-125855500D01*
X216718000Y-127315500D02*
X215788000Y-127315500D01*
X213558000Y-127315500D02*
X213558000Y-125155500D01*
X213558000Y-127315500D02*
X214488000Y-127315500D01*
%TO.C,C9*%
X234548726Y-94602187D02*
X234764398Y-94602187D01*
X234548726Y-95322187D02*
X234764398Y-95322187D01*
%TO.C,C14*%
X220261340Y-92467674D02*
X220261340Y-92252002D01*
X220981340Y-92467674D02*
X220981340Y-92252002D01*
%TO.C,C12*%
X225302100Y-89267572D02*
X225302100Y-89051900D01*
X226022100Y-89267572D02*
X226022100Y-89051900D01*
%TO.C,R8*%
X234636562Y-92208546D02*
X234636562Y-92515828D01*
X233876562Y-92208546D02*
X233876562Y-92515828D01*
%TO.C,Boot1*%
X249060842Y-106415074D02*
X246980842Y-106415074D01*
X250740842Y-107685074D02*
X250250842Y-107195074D01*
X250740842Y-107685074D02*
X250740842Y-110585074D01*
X245300842Y-107685074D02*
X245790842Y-107195074D01*
X245300842Y-107685074D02*
X245300842Y-110585074D01*
X250740842Y-110585074D02*
X250250842Y-111075074D01*
X245300842Y-110585074D02*
X245790842Y-111075074D01*
X249060842Y-111855074D02*
X246980842Y-111855074D01*
%TO.C,C8*%
X231454187Y-90682518D02*
X231669859Y-90682518D01*
X231454187Y-91402518D02*
X231669859Y-91402518D01*
%TO.C,C7*%
X232245032Y-94257943D02*
X232460704Y-94257943D01*
X232245032Y-94977943D02*
X232460704Y-94977943D01*
%TO.C,C5*%
X249392164Y-97140000D02*
X249607836Y-97140000D01*
X249392164Y-97860000D02*
X249607836Y-97860000D01*
%TO.C,Y1*%
X216706562Y-96762187D02*
X216706562Y-92762187D01*
X220006562Y-96762187D02*
X216706562Y-96762187D01*
%TO.C,R5*%
X247620000Y-102403641D02*
X247620000Y-102096359D01*
X248380000Y-102403641D02*
X248380000Y-102096359D01*
%TO.C,C1*%
X155607836Y-77400000D02*
X155392164Y-77400000D01*
X155607836Y-76680000D02*
X155392164Y-76680000D01*
%TO.C,J5*%
X102012875Y-69848684D02*
X98632875Y-69848684D01*
X98632875Y-69848684D02*
X98632875Y-70898684D01*
X98432875Y-70898684D02*
X98432875Y-69848684D01*
X103402875Y-70918684D02*
X103402875Y-71418684D01*
X103402875Y-71418684D02*
X102902875Y-71718684D01*
X102902875Y-71718684D02*
X102902875Y-74798684D01*
X102902875Y-74798684D02*
X103402875Y-75098684D01*
X103402875Y-75098684D02*
X103402875Y-75598684D01*
X102012875Y-76668684D02*
X98632875Y-76668684D01*
X98632875Y-76668684D02*
X98632875Y-75618684D01*
%TO.C,U3*%
X223046562Y-97972187D02*
X223696562Y-97972187D01*
X223046562Y-97322187D02*
X223046562Y-97972187D01*
X230266562Y-97322187D02*
X230266562Y-97972187D01*
X223046562Y-91402187D02*
X223046562Y-90752187D01*
X230266562Y-91402187D02*
X230266562Y-90752187D01*
X223046562Y-90752187D02*
X223696562Y-90752187D01*
X230266562Y-90752187D02*
X229616562Y-90752187D01*
%TO.C,C4*%
X161392164Y-76890000D02*
X161607836Y-76890000D01*
X161392164Y-77610000D02*
X161607836Y-77610000D01*
%TO.C,J4*%
X249229055Y-74009104D02*
X248426585Y-74009104D01*
X249229055Y-72804104D02*
X249229055Y-74009104D01*
X249229055Y-72804104D02*
X248682526Y-72804104D01*
X249229055Y-72044104D02*
X249229055Y-71284104D01*
X249229055Y-71284104D02*
X248119055Y-71284104D01*
X247811525Y-74009104D02*
X247009055Y-74009104D01*
X247555584Y-72804104D02*
X247009055Y-72804104D01*
X247009055Y-72804104D02*
X247009055Y-74009104D01*
%TO.C,R3*%
X232410203Y-93742187D02*
X232102921Y-93742187D01*
X232410203Y-92982187D02*
X232102921Y-92982187D01*
%TO.C,C3*%
X215746562Y-95070023D02*
X215746562Y-94854351D01*
X216466562Y-95070023D02*
X216466562Y-94854351D01*
%TO.C,C16*%
X234548726Y-93602187D02*
X234764398Y-93602187D01*
X234548726Y-94322187D02*
X234764398Y-94322187D01*
%TO.C,C2*%
X220270083Y-94431279D02*
X220270083Y-94215607D01*
X220990083Y-94431279D02*
X220990083Y-94215607D01*
%TO.C,R11*%
X149153641Y-75130000D02*
X148846359Y-75130000D01*
X149153641Y-74370000D02*
X148846359Y-74370000D01*
%TO.C,J3*%
X91681655Y-76646662D02*
X95061655Y-76646662D01*
X95061655Y-76646662D02*
X95061655Y-75596662D01*
X95261655Y-75596662D02*
X95261655Y-76646662D01*
X90291655Y-75576662D02*
X90291655Y-75076662D01*
X90291655Y-75076662D02*
X90791655Y-74776662D01*
X90791655Y-74776662D02*
X90791655Y-71696662D01*
X90791655Y-71696662D02*
X90291655Y-71396662D01*
X90291655Y-71396662D02*
X90291655Y-70896662D01*
X91681655Y-69826662D02*
X95061655Y-69826662D01*
X95061655Y-69826662D02*
X95061655Y-70876662D01*
%TO.C,Reset1*%
X247018537Y-75351252D02*
X249098537Y-75351252D01*
X245338537Y-74081252D02*
X245828537Y-74571252D01*
X245338537Y-74081252D02*
X245338537Y-71181252D01*
X250778537Y-74081252D02*
X250288537Y-74571252D01*
X250778537Y-74081252D02*
X250778537Y-71181252D01*
X245338537Y-71181252D02*
X245828537Y-70691252D01*
X250778537Y-71181252D02*
X250288537Y-70691252D01*
X247018537Y-69911252D02*
X249098537Y-69911252D01*
%TO.C,U1*%
X158500000Y-77810000D02*
X159150000Y-77810000D01*
X158500000Y-77810000D02*
X157850000Y-77810000D01*
X158500000Y-74690000D02*
X160175000Y-74690000D01*
X158500000Y-74690000D02*
X157850000Y-74690000D01*
%TO.C,U2*%
X242275000Y-91275000D02*
X242275000Y-91535000D01*
X242275000Y-96465000D02*
X240600000Y-96465000D01*
X242275000Y-96725000D02*
X242275000Y-96465000D01*
X245000000Y-91275000D02*
X242275000Y-91275000D01*
X245000000Y-91275000D02*
X247725000Y-91275000D01*
X245000000Y-96725000D02*
X242275000Y-96725000D01*
X245000000Y-96725000D02*
X247725000Y-96725000D01*
X247725000Y-91275000D02*
X247725000Y-91535000D01*
X247725000Y-96725000D02*
X247725000Y-96465000D01*
%TO.C,R6*%
X248977064Y-100485000D02*
X248522936Y-100485000D01*
X248977064Y-99015000D02*
X248522936Y-99015000D01*
%TO.C,R9*%
X226023214Y-101399403D02*
X226023214Y-101706685D01*
X225263214Y-101399403D02*
X225263214Y-101706685D01*
%TO.C,C15*%
X230297764Y-88335709D02*
X230513436Y-88335709D01*
X230297764Y-89055709D02*
X230513436Y-89055709D01*
%TO.C,C10*%
X230297764Y-89434252D02*
X230513436Y-89434252D01*
X230297764Y-90154252D02*
X230513436Y-90154252D01*
%TO.C,J2*%
X66956930Y-75611939D02*
X66956930Y-78271939D01*
X61816930Y-75611939D02*
X66956930Y-75611939D01*
X61816930Y-75611939D02*
X61816930Y-78271939D01*
X60546930Y-75611939D02*
X59216930Y-75611939D01*
X59216930Y-75611939D02*
X59216930Y-76941939D01*
X61816930Y-78271939D02*
X66956930Y-78271939D01*
%TO.C,C13*%
X226016562Y-99454351D02*
X226016562Y-99670023D01*
X225296562Y-99454351D02*
X225296562Y-99670023D01*
%TO.C,C11*%
X230398726Y-98752187D02*
X230614398Y-98752187D01*
X230398726Y-99472187D02*
X230614398Y-99472187D01*
%TO.C,C6*%
X221296562Y-92470023D02*
X221296562Y-92254351D01*
X222016562Y-92470023D02*
X222016562Y-92254351D01*
%TO.C,R4*%
X232410203Y-92542187D02*
X232102921Y-92542187D01*
X232410203Y-91782187D02*
X232102921Y-91782187D01*
%TO.C,D20*%
X226419821Y-103698859D02*
X226419821Y-101413859D01*
X227889821Y-103698859D02*
X226419821Y-103698859D01*
X227889821Y-101413859D02*
X227889821Y-103698859D01*
%TO.C,R10*%
X148846359Y-75370000D02*
X149153641Y-75370000D01*
X148846359Y-76130000D02*
X149153641Y-76130000D01*
%TO.C,C17*%
X158238748Y-78765000D02*
X158761252Y-78765000D01*
X158238748Y-80235000D02*
X158761252Y-80235000D01*
%TD*%
M02*
