M48
; DRILL file {KiCad 7.0.7} date Sat Oct 14 12:40:22 2023
; FORMAT={-:-/ absolute / metric / decimal}
; #@! TF.CreationDate,2023-10-14T12:40:22+02:00
; #@! TF.GenerationSoftware,Kicad,Pcbnew,7.0.7
; #@! TF.FileFunction,NonPlated,1,2,NPTH
FMAT,2
METRIC
; #@! TA.AperFunction,NonPlated,NPTH,ComponentDrill
T1C0.650
; #@! TA.AperFunction,NonPlated,NPTH,ComponentDrill
T2C1.750
; #@! TA.AperFunction,NonPlated,NPTH,ComponentDrill
T3C3.000
; #@! TA.AperFunction,NonPlated,NPTH,ComponentDrill
T4C3.048
; #@! TA.AperFunction,NonPlated,NPTH,ComponentDrill
T5C3.988
%
G90
G05
T1
X152.685Y-58.67
X158.465Y-58.67
T2
X62.389Y-66.675
X62.389Y-123.825
X64.77Y-85.725
X69.532Y-104.775
X72.549Y-66.675
X72.549Y-123.825
X74.93Y-85.725
X79.692Y-104.775
X81.439Y-66.675
X81.439Y-123.825
X86.201Y-85.725
X91.599Y-66.675
X91.599Y-123.825
X95.726Y-104.775
X96.361Y-85.725
X100.489Y-66.675
X100.489Y-123.825
X105.251Y-85.725
X105.886Y-104.775
X110.649Y-66.675
X110.649Y-123.825
X114.776Y-104.775
X115.411Y-85.725
X117.157Y-123.825
X119.539Y-66.675
X124.301Y-85.725
X124.936Y-104.775
X127.317Y-123.825
X129.699Y-66.675
X131.445Y-123.825
X133.826Y-104.775
X134.461Y-85.725
X138.589Y-66.675
X141.605Y-123.825
X143.351Y-85.725
X143.986Y-104.775
X148.749Y-66.675
X150.495Y-123.825
X152.876Y-104.775
X153.511Y-85.725
X155.257Y-123.825
X157.639Y-66.675
X160.655Y-123.825
X162.401Y-85.725
X163.036Y-104.775
X165.417Y-123.825
X167.799Y-66.675
X171.926Y-104.775
X171.926Y-123.825
X172.561Y-85.725
X176.689Y-66.675
X181.451Y-85.725
X182.086Y-104.775
X182.086Y-123.825
X186.849Y-66.675
X188.595Y-123.825
X190.976Y-104.775
X191.611Y-85.725
X195.739Y-66.675
X198.755Y-123.825
X200.501Y-85.725
X200.501Y-123.825
X201.136Y-104.775
X205.899Y-66.675
X210.026Y-104.775
X210.661Y-85.725
X210.661Y-123.825
X214.789Y-66.675
X219.551Y-85.725
X219.551Y-123.825
X220.186Y-104.775
X224.949Y-66.675
X229.711Y-85.725
X229.711Y-123.825
X233.839Y-104.775
X236.22Y-66.675
X238.601Y-85.725
X238.601Y-123.825
X243.999Y-104.775
X246.38Y-66.675
X248.761Y-85.725
X248.761Y-123.825
T3
X63.659Y-64.135
X63.659Y-121.285
X66.04Y-83.185
X70.009Y-61.595
X70.009Y-118.745
X70.802Y-102.235
X72.39Y-80.645
X77.153Y-99.695
X82.709Y-64.135
X82.709Y-121.285
X87.471Y-83.185
X89.059Y-61.595
X89.059Y-118.745
X93.821Y-80.645
X96.996Y-102.235
X101.759Y-64.135
X101.759Y-121.285
X103.346Y-99.695
X106.521Y-83.185
X108.109Y-61.595
X108.109Y-118.745
X112.871Y-80.645
X116.046Y-102.235
X118.427Y-121.285
X120.809Y-64.135
X122.396Y-99.695
X124.777Y-118.745
X125.571Y-83.185
X127.159Y-61.595
X131.921Y-80.645
X132.715Y-121.285
X135.096Y-102.235
X139.065Y-118.745
X141.129Y-71.755
X141.446Y-99.695
X144.621Y-83.185
X147.479Y-69.215
X150.971Y-80.645
X151.765Y-121.285
X154.146Y-102.235
X157.797Y-128.905
X158.115Y-118.745
X160.179Y-71.755
X160.496Y-99.695
X163.671Y-83.185
X164.147Y-126.365
X166.529Y-69.215
X170.021Y-80.645
X173.196Y-102.235
X173.196Y-121.285
X177.959Y-64.135
X179.546Y-99.695
X179.546Y-118.745
X182.721Y-83.185
X184.309Y-61.595
X189.071Y-80.645
X189.865Y-121.285
X192.246Y-102.235
X196.215Y-118.745
X197.009Y-64.135
X198.596Y-99.695
X201.771Y-83.185
X201.771Y-121.285
X203.359Y-61.595
X208.121Y-80.645
X208.121Y-118.745
X211.296Y-102.235
X216.059Y-64.135
X217.646Y-99.695
X220.821Y-83.185
X220.821Y-121.285
X222.409Y-61.595
X227.171Y-80.645
X227.171Y-118.745
X235.109Y-102.235
X237.49Y-64.135
X239.871Y-83.185
X239.871Y-121.285
X241.459Y-99.695
X243.84Y-61.595
X246.221Y-80.645
X246.221Y-118.745
T4
X105.575Y-130.81
X110.299Y-130.81
X124.587Y-130.81
X134.175Y-130.81
X148.463Y-130.81
X165.068Y-130.81
X181.737Y-130.81
X188.944Y-130.81
X205.575Y-130.81
X205.613Y-130.81
T5
X67.469Y-66.675
X67.469Y-123.825
X69.85Y-85.725
X74.612Y-104.775
X86.519Y-66.675
X86.519Y-123.825
X91.281Y-85.725
X100.806Y-104.775
X105.569Y-66.675
X105.569Y-123.825
X105.575Y-115.57
X110.299Y-115.57
X110.331Y-85.725
X119.856Y-104.775
X122.237Y-123.825
X124.587Y-115.57
X124.619Y-66.675
X129.381Y-85.725
X134.175Y-115.57
X136.525Y-123.825
X138.906Y-104.775
X143.669Y-66.675
X148.431Y-85.725
X148.463Y-115.57
X155.575Y-123.825
X157.956Y-104.775
X160.338Y-123.825
X162.719Y-66.675
X165.068Y-115.57
X167.481Y-85.725
X177.006Y-104.775
X177.006Y-123.825
X181.737Y-115.57
X181.769Y-66.675
X186.531Y-85.725
X188.944Y-115.57
X193.675Y-123.825
X196.056Y-104.775
X200.819Y-66.675
X205.575Y-115.57
X205.581Y-85.725
X205.581Y-123.825
X205.613Y-115.57
X215.106Y-104.775
X219.869Y-66.675
X224.631Y-85.725
X224.631Y-123.825
X238.919Y-104.775
X241.3Y-66.675
X243.681Y-85.725
X243.681Y-123.825
T0
M30
