%TF.GenerationSoftware,KiCad,Pcbnew,7.0.7*%
%TF.CreationDate,2023-10-14T12:40:26+02:00*%
%TF.ProjectId,qez,71657a2e-6b69-4636-9164-5f7063625858,rev?*%
%TF.SameCoordinates,Original*%
%TF.FileFunction,Profile,NP*%
%FSLAX46Y46*%
G04 Gerber Fmt 4.6, Leading zero omitted, Abs format (unit mm)*
G04 Created by KiCad (PCBNEW 7.0.7) date 2023-10-14 12:40:26*
%MOMM*%
%LPD*%
G01*
G04 APERTURE LIST*
%TA.AperFunction,Profile*%
%ADD10C,0.100000*%
%TD*%
G04 APERTURE END LIST*
D10*
X58458099Y-131381500D02*
G75*
G03*
X59918599Y-132842001I1460501J0D01*
G01*
X251269500Y-132842001D02*
G75*
G03*
X252730001Y-131381501I0J1460501D01*
G01*
X252730000Y-59105801D02*
G75*
G03*
X251269500Y-57645300I-1460500J1D01*
G01*
X162090101Y-55308500D02*
G75*
G03*
X160629601Y-53847999I-1460501J0D01*
G01*
X150558500Y-53847999D02*
G75*
G03*
X149097999Y-55308499I0J-1460501D01*
G01*
X149233127Y-57649464D02*
X147091751Y-57647600D01*
X161909330Y-57635272D02*
X164091750Y-57647599D01*
X59918599Y-132842001D02*
X251269500Y-132842000D01*
X161909331Y-56635279D02*
G75*
G03*
X162105285Y-56483324I-18731J226479D01*
G01*
X252730001Y-131381501D02*
X252729999Y-59105801D01*
X157909432Y-57643136D02*
X153233025Y-57641600D01*
X59918600Y-57645300D02*
G75*
G03*
X58458100Y-59105800I0J-1460500D01*
G01*
X149070608Y-56481280D02*
X149097999Y-55308499D01*
X251269500Y-57645300D02*
X164091750Y-57647599D01*
X162091750Y-55647601D02*
X162090100Y-55308500D01*
X162105285Y-56483324D02*
X162091750Y-55647601D01*
X147091751Y-57647600D02*
X59918600Y-57645300D01*
X160629601Y-53847999D02*
X150558500Y-53848000D01*
X157909432Y-56643136D02*
X153233025Y-56641600D01*
X149070610Y-56481280D02*
G75*
G03*
X149238718Y-56649390I168090J-20D01*
G01*
X58458100Y-59105800D02*
X58458100Y-131381500D01*
%TO.C,REF\u002A\u002A*%
X149233127Y-57649464D02*
G75*
G03*
X149233127Y-56649464I0J500000D01*
G01*
X153233025Y-56641600D02*
G75*
G03*
X153233025Y-57641600I0J-500000D01*
G01*
X157909432Y-57643136D02*
G75*
G03*
X157909432Y-56643136I0J500000D01*
G01*
X161909330Y-56635272D02*
G75*
G03*
X161909330Y-57635272I0J-500000D01*
G01*
%TD*%
M02*
