%TF.GenerationSoftware,KiCad,Pcbnew,7.0.7*%
%TF.CreationDate,2023-10-14T12:40:26+02:00*%
%TF.ProjectId,qez,71657a2e-6b69-4636-9164-5f7063625858,rev?*%
%TF.SameCoordinates,Original*%
%TF.FileFunction,Soldermask,Top*%
%TF.FilePolarity,Negative*%
%FSLAX46Y46*%
G04 Gerber Fmt 4.6, Leading zero omitted, Abs format (unit mm)*
G04 Created by KiCad (PCBNEW 7.0.7) date 2023-10-14 12:40:26*
%MOMM*%
%LPD*%
G01*
G04 APERTURE LIST*
%ADD10C,1.750000*%
%ADD11C,3.000000*%
%ADD12C,3.987800*%
%ADD13C,3.048000*%
%ADD14C,0.650000*%
%ADD15O,1.000000X1.600000*%
%ADD16O,1.000000X2.100000*%
%ADD17R,1.000000X1.000000*%
%ADD18O,1.000000X1.000000*%
%ADD19R,1.700000X1.700000*%
%ADD20O,1.700000X1.700000*%
%ADD21R,1.350000X1.350000*%
%ADD22O,1.350000X1.350000*%
G04 APERTURE END LIST*
D10*
%TO.C,MX1*%
X62388750Y-66675000D03*
D11*
X63658750Y-64135000D03*
D12*
X67468750Y-66675000D03*
D11*
X70008750Y-61595000D03*
D10*
X72548750Y-66675000D03*
%TD*%
%TO.C,MX2*%
X81438750Y-66675000D03*
D11*
X82708750Y-64135000D03*
D12*
X86518750Y-66675000D03*
D11*
X89058750Y-61595000D03*
D10*
X91598750Y-66675000D03*
%TD*%
%TO.C,MX3*%
X100488750Y-66675000D03*
D11*
X101758750Y-64135000D03*
D12*
X105568750Y-66675000D03*
D11*
X108108750Y-61595000D03*
D10*
X110648750Y-66675000D03*
%TD*%
%TO.C,MX4*%
X119538750Y-66675000D03*
D11*
X120808750Y-64135000D03*
D12*
X124618750Y-66675000D03*
D11*
X127158750Y-61595000D03*
D10*
X129698750Y-66675000D03*
%TD*%
%TO.C,MX5*%
X148748750Y-66675000D03*
D11*
X147478750Y-69215000D03*
D12*
X143668750Y-66675000D03*
D11*
X141128750Y-71755000D03*
D10*
X138588750Y-66675000D03*
%TD*%
%TO.C,MX6*%
X167798750Y-66675000D03*
D11*
X166528750Y-69215000D03*
D12*
X162718750Y-66675000D03*
D11*
X160178750Y-71755000D03*
D10*
X157638750Y-66675000D03*
%TD*%
%TO.C,MX7*%
X176688750Y-66675000D03*
D11*
X177958750Y-64135000D03*
D12*
X181768750Y-66675000D03*
D11*
X184308750Y-61595000D03*
D10*
X186848750Y-66675000D03*
%TD*%
%TO.C,MX8*%
X195738750Y-66675000D03*
D11*
X197008750Y-64135000D03*
D12*
X200818750Y-66675000D03*
D11*
X203358750Y-61595000D03*
D10*
X205898750Y-66675000D03*
%TD*%
%TO.C,MX9*%
X214788750Y-66675000D03*
D11*
X216058750Y-64135000D03*
D12*
X219868750Y-66675000D03*
D11*
X222408750Y-61595000D03*
D10*
X224948750Y-66675000D03*
%TD*%
%TO.C,MX10*%
X236220000Y-66675000D03*
D11*
X237490000Y-64135000D03*
D12*
X241300000Y-66675000D03*
D11*
X243840000Y-61595000D03*
D10*
X246380000Y-66675000D03*
%TD*%
%TO.C,MX11*%
X64770000Y-85725000D03*
D11*
X66040000Y-83185000D03*
D12*
X69850000Y-85725000D03*
D11*
X72390000Y-80645000D03*
D10*
X74930000Y-85725000D03*
%TD*%
%TO.C,MX12*%
X86201250Y-85725000D03*
D11*
X87471250Y-83185000D03*
D12*
X91281250Y-85725000D03*
D11*
X93821250Y-80645000D03*
D10*
X96361250Y-85725000D03*
%TD*%
%TO.C,MX13*%
X105251250Y-85725000D03*
D11*
X106521250Y-83185000D03*
D12*
X110331250Y-85725000D03*
D11*
X112871250Y-80645000D03*
D10*
X115411250Y-85725000D03*
%TD*%
%TO.C,MX14*%
X124301250Y-85725000D03*
D11*
X125571250Y-83185000D03*
D12*
X129381250Y-85725000D03*
D11*
X131921250Y-80645000D03*
D10*
X134461250Y-85725000D03*
%TD*%
%TO.C,MX17*%
X181451250Y-85725000D03*
D11*
X182721250Y-83185000D03*
D12*
X186531250Y-85725000D03*
D11*
X189071250Y-80645000D03*
D10*
X191611250Y-85725000D03*
%TD*%
%TO.C,MX18*%
X200501250Y-85725000D03*
D11*
X201771250Y-83185000D03*
D12*
X205581250Y-85725000D03*
D11*
X208121250Y-80645000D03*
D10*
X210661250Y-85725000D03*
%TD*%
%TO.C,MX19*%
X219551250Y-85725000D03*
D11*
X220821250Y-83185000D03*
D12*
X224631250Y-85725000D03*
D11*
X227171250Y-80645000D03*
D10*
X229711250Y-85725000D03*
%TD*%
%TO.C,MX20*%
X238601250Y-85725000D03*
D11*
X239871250Y-83185000D03*
D12*
X243681250Y-85725000D03*
D11*
X246221250Y-80645000D03*
D10*
X248761250Y-85725000D03*
%TD*%
%TO.C,MX21*%
X69532500Y-104775000D03*
D11*
X70802500Y-102235000D03*
D12*
X74612500Y-104775000D03*
D11*
X77152500Y-99695000D03*
D10*
X79692500Y-104775000D03*
%TD*%
%TO.C,MX22*%
X62388750Y-123825000D03*
D11*
X63658750Y-121285000D03*
D12*
X67468750Y-123825000D03*
D11*
X70008750Y-118745000D03*
D10*
X72548750Y-123825000D03*
%TD*%
%TO.C,MX23*%
X95726250Y-104775000D03*
D11*
X96996250Y-102235000D03*
D12*
X100806250Y-104775000D03*
D11*
X103346250Y-99695000D03*
D10*
X105886250Y-104775000D03*
%TD*%
%TO.C,MX24*%
X114776250Y-104775000D03*
D11*
X116046250Y-102235000D03*
D12*
X119856250Y-104775000D03*
D11*
X122396250Y-99695000D03*
D10*
X124936250Y-104775000D03*
%TD*%
%TO.C,MX25*%
X133826250Y-104775000D03*
D11*
X135096250Y-102235000D03*
D12*
X138906250Y-104775000D03*
D11*
X141446250Y-99695000D03*
D10*
X143986250Y-104775000D03*
%TD*%
%TO.C,MX26*%
X152876250Y-104775000D03*
D11*
X154146250Y-102235000D03*
D12*
X157956250Y-104775000D03*
D11*
X160496250Y-99695000D03*
D10*
X163036250Y-104775000D03*
%TD*%
%TO.C,MX29*%
X210026250Y-104775000D03*
D11*
X211296250Y-102235000D03*
D12*
X215106250Y-104775000D03*
D11*
X217646250Y-99695000D03*
D10*
X220186250Y-104775000D03*
%TD*%
%TO.C,MX30*%
X233838750Y-104775000D03*
D11*
X235108750Y-102235000D03*
D12*
X238918750Y-104775000D03*
D11*
X241458750Y-99695000D03*
D10*
X243998750Y-104775000D03*
%TD*%
%TO.C,MX31*%
X81438750Y-123825000D03*
D11*
X82708750Y-121285000D03*
D12*
X86518750Y-123825000D03*
D11*
X89058750Y-118745000D03*
D10*
X91598750Y-123825000D03*
%TD*%
%TO.C,MX34*%
X165417500Y-123825000D03*
D11*
X164147500Y-126365000D03*
D12*
X160337500Y-123825000D03*
D11*
X157797500Y-128905000D03*
D10*
X155257500Y-123825000D03*
%TD*%
%TO.C,MX37*%
X219551250Y-123825000D03*
D11*
X220821250Y-121285000D03*
D12*
X224631250Y-123825000D03*
D11*
X227171250Y-118745000D03*
D10*
X229711250Y-123825000D03*
%TD*%
%TO.C,MX38*%
X238601250Y-123825000D03*
D11*
X239871250Y-121285000D03*
D12*
X243681250Y-123825000D03*
D11*
X246221250Y-118745000D03*
D10*
X248761250Y-123825000D03*
%TD*%
%TO.C,MX28*%
X190976250Y-104775000D03*
D11*
X192246250Y-102235000D03*
D12*
X196056250Y-104775000D03*
D11*
X198596250Y-99695000D03*
D10*
X201136250Y-104775000D03*
%TD*%
%TO.C,MX36*%
X200501250Y-123825000D03*
D11*
X201771250Y-121285000D03*
D12*
X205581250Y-123825000D03*
D11*
X208121250Y-118745000D03*
D10*
X210661250Y-123825000D03*
%TD*%
%TO.C,MX32*%
X100488750Y-123825000D03*
D11*
X101758750Y-121285000D03*
D12*
X105568750Y-123825000D03*
D11*
X108108750Y-118745000D03*
D10*
X110648750Y-123825000D03*
%TD*%
%TO.C,MX15*%
X143351250Y-85725000D03*
D11*
X144621250Y-83185000D03*
D12*
X148431250Y-85725000D03*
D11*
X150971250Y-80645000D03*
D10*
X153511250Y-85725000D03*
%TD*%
D12*
%TO.C,MX41*%
X105575100Y-115570000D03*
D13*
X105575100Y-130810000D03*
D10*
X150495000Y-123825000D03*
D11*
X151765000Y-121285000D03*
D12*
X155575000Y-123825000D03*
D11*
X158115000Y-118745000D03*
D10*
X160655000Y-123825000D03*
D12*
X205574900Y-115570000D03*
D13*
X205574900Y-130810000D03*
%TD*%
D12*
%TO.C,MX39*%
X124587000Y-115570000D03*
D13*
X124587000Y-130810000D03*
D10*
X131445000Y-123825000D03*
D11*
X132715000Y-121285000D03*
D12*
X136525000Y-123825000D03*
D11*
X139065000Y-118745000D03*
D10*
X141605000Y-123825000D03*
D12*
X148463000Y-115570000D03*
D13*
X148463000Y-130810000D03*
%TD*%
D12*
%TO.C,MX33*%
X110299500Y-115570000D03*
D13*
X110299500Y-130810000D03*
D10*
X117157500Y-123825000D03*
D11*
X118427500Y-121285000D03*
D12*
X122237500Y-123825000D03*
D11*
X124777500Y-118745000D03*
D10*
X127317500Y-123825000D03*
D12*
X134175500Y-115570000D03*
D13*
X134175500Y-130810000D03*
%TD*%
D12*
%TO.C,MX40*%
X165068250Y-115570000D03*
D13*
X165068250Y-130810000D03*
D10*
X171926250Y-123825000D03*
D11*
X173196250Y-121285000D03*
D12*
X177006250Y-123825000D03*
D11*
X179546250Y-118745000D03*
D10*
X182086250Y-123825000D03*
D12*
X188944250Y-115570000D03*
D13*
X188944250Y-130810000D03*
%TD*%
D12*
%TO.C,MX35*%
X181737000Y-115570000D03*
D13*
X181737000Y-130810000D03*
D10*
X188595000Y-123825000D03*
D11*
X189865000Y-121285000D03*
D12*
X193675000Y-123825000D03*
D11*
X196215000Y-118745000D03*
D10*
X198755000Y-123825000D03*
D12*
X205613000Y-115570000D03*
D13*
X205613000Y-130810000D03*
%TD*%
D10*
%TO.C,MX16*%
X162401250Y-85725000D03*
D11*
X163671250Y-83185000D03*
D12*
X167481250Y-85725000D03*
D11*
X170021250Y-80645000D03*
D10*
X172561250Y-85725000D03*
%TD*%
%TO.C,MX27*%
X171926250Y-104775000D03*
D11*
X173196250Y-102235000D03*
D12*
X177006250Y-104775000D03*
D11*
X179546250Y-99695000D03*
D10*
X182086250Y-104775000D03*
%TD*%
D14*
%TO.C,USB1*%
X152685000Y-58670500D03*
X158465000Y-58670500D03*
D15*
X159895000Y-55020500D03*
D16*
X159895000Y-59200500D03*
X151255000Y-59200500D03*
D15*
X151255000Y-55020500D03*
%TD*%
D17*
%TO.C,J7*%
X210317534Y-59737148D03*
D18*
X211587534Y-59737148D03*
X212857534Y-59737148D03*
X214127534Y-59737148D03*
X215397534Y-59737148D03*
X216667534Y-59737148D03*
X217937534Y-59737148D03*
%TD*%
D17*
%TO.C,J4*%
X248119055Y-72044104D03*
D18*
X248119055Y-73314104D03*
%TD*%
D19*
%TO.C,J2*%
X60546930Y-76941939D03*
D20*
X63086930Y-76941939D03*
X65626930Y-76941939D03*
%TD*%
D21*
%TO.C,J6*%
X192992434Y-93867427D03*
D22*
X194992434Y-93867427D03*
X196992434Y-93867427D03*
X198992434Y-93867427D03*
X200992434Y-93867427D03*
X202992434Y-93867427D03*
X204992434Y-93867427D03*
%TD*%
D17*
%TO.C,J1*%
X248040976Y-109791951D03*
D18*
X248040976Y-108521951D03*
%TD*%
M02*
